<svg id="Calque_1" data-name="Calque 1" xmlns="http://www.w3.org/2000/svg" viewBox="0 0 1373.8 784.6"><defs><style>.cls-1{fill:#eda594;}.cls-2{fill:#fff;}.cls-3{fill:#2c84f0;}</style></defs><title>accueil</title><rect class="cls-1" width="1373.8" height="784.6"/><path class="cls-2" d="M685.47,596.29c.59-9.06,20.73-4.78,28-4.78s6.13-17.12,20.06-13.59,30.46-.59,35.66-8.23,28.95-11.49,26.85,0,17.54,8.39,17.54,8.39-11.33-7,1.51-12.25,7.72,6.63,26.86,9.49a38.54,38.54,0,0,0,31-8.73c-.5,6.63,6.71,11.91,16.36,13.34,0,0,.34.42,5.12.17,12.5-.67,13.26-8.06,13.26-8.06-31.72,9.82-15.86-28.36,6.63-38-.67,5,9.9,11.16,24.42,9.4S957.27,530,956.6,520.18s8-17.87,43-20.14,23.16-29,23.16-29c-19.14,23.83-39,2.6-26.44-14.68,17.21,5.95,60.17,8.39,65.46-14.94S1033.3,423,1033.3,423c28.45,9.82-8,43.39-21.15,7.47s60.84-34.74,62.77-67.38c.59-10-15.86-24.59-5.29-30.88s25.1-15.7,11.92-35.75,2.69-21.06,4.62-30.46c6.79-32.06-45-19.22-45-19.22,48.25-1.34,17.2,38-8.56,33.15s-25.6,9-25.6,9c43.56,12.58,3.53,32.72-30.62,33.14-30,.34-19,28.53-19,28.53,28.2-19.8,47.58-.5,41.2,25.26-5.28,21.32-30.79,16.87-30.79,5.29,0-3-.67-8.56-15.86-9.06s-24.42,12.08-24.42,12.08c40.28,1.34,36.33,34.91,11.24,38s-7.3-10.74-7.3-10.74c-9.9,0-35.66,9-22.49,29.12s-26.43,36.67-36.5,25.93S876,456.33,876,456.33c-.67-8.82-23.16-11.75-21.82,9.23s-21.82,22.82-31,12.5-22.48-2.69-22.48-2.69c15.18-1.34,9.9,13.85,0,12.51-30.05-4-48.93-16.53-67.14-.93S705.28,499.21,694,484c-7-9.4-29.87-11.58-22.74-.84,7.56,11.41-22.32,19.38-40.53,3.77s-37.09-3.18-67.13.93c-9.9,1.34-15.19-13.85,0-12.51,0,0-13.26-7.63-22.49,2.69s-32.39,8.47-31.05-12.5-21.14-18.05-21.81-9.23c0,0,13.59-.59,3.44,10.15s-49.76-5.79-36.51-25.93-12.58-29.12-22.48-29.12c0,0,17.87,13.85-7.31,10.74s-29.11-36.67,11.25-38c0,0-9.23-12.5-24.42-12.08s-15.86,5.95-15.86,9.06c0,11.58-25.59,15.94-30.8-5.29-6.37-25.76,13-45.06,41.21-25.26,0,0,11-28.19-19-28.53-34.07-.42-74.1-20.47-30.63-33.14,0,0,.17-13.85-25.59-9s-56.81-34.49-8.56-33.15c0,0-51.69-12.84-45,19.22,2,9.4,17.87,10.4,4.62,30.46S284,326,294.6,332.22s-5.87,20.81-5.28,30.88c2,32.64,76,31.46,62.76,67.38s-49.59,2.43-21.14-7.47c0,0-33.74-4.95-28.45,18.38s48.25,20.89,65.45,14.94c12.59,17.28-7.3,38.51-26.43,14.68,0,0-11.92,26.77,23.16,29s43.64,10.33,43,20.14,3.28,21.49,17.88,23.25S450.6,539,449.93,534c22.49,9.73,38.35,47.92,6.63,38,0,0,.92,9.91,13.26,8.06,9.56-1.51,16.86-6.71,16.36-13.34a38.31,38.31,0,0,0,31,8.72c19.14-2.77,13.93-14.68,26.86-9.48s1.51,12.25,1.51,12.25,19.63,3.19,17.53-8.39,21.74-7.72,26.86,0,14.18,11.92,28.19,8.39,17.37,12.93,24.59,12.93,30.88-3.78,31,5.28C673.64,603.18,685,603.26,685.47,596.29Z" transform="translate(4.8 8.6)"/><path class="cls-2" d="M336.73,127.55s-1.35,19.38,13.17,25.93c0,0-12.59,3.35-11.83,24.75,0,0-.76-21.73-13.34-23.07C324.73,155.16,334.38,150.63,336.73,127.55Z" transform="translate(4.8 8.6)"/><path class="cls-2" d="M1033.64,126.29s-1.35,19.38,13.17,25.93c0,0-12.59,3.36-11.83,24.75,0,0-.76-21.73-13.34-23.07C1021.64,153.9,1031.37,149.37,1033.64,126.29Z" transform="translate(4.8 8.6)"/><path class="cls-2" d="M529.14,462.87s-.67,8.73,6.72,11.75c0,0-6.47,1.51-6.05,11.16,0,0-.42-9.82-6.79-10.41C523,475.37,528,473.28,529.14,462.87Z" transform="translate(4.8 8.6)"/><path class="cls-2" d="M838.28,461.86s-.67,8.73,6.72,11.75c0,0-6.47,1.51-6,11.16,0,0-.42-9.82-6.79-10.4C832.16,474.37,837.11,472.27,838.28,461.86Z" transform="translate(4.8 8.6)"/><path class="cls-3" d="M528,70.65l-14.1,144.76H487.35c-.16-5.88-.42-11.42-.67-16.62s-.59-10.15-.92-14.93-.84-9.4-1.34-14-1.09-9.23-1.68-14-1.34-9.74-2.18-14.85-1.68-10.58-2.61-16.45q-1.87,11.21-5.37,33.73c-2.26,15-5,33.65-8.22,56.06l-27.86,1.42L426.43,71.24l25.34-.59c-.08,4.2-.08,8.65-.08,13.6-.08,4.19-.08,9.06-.08,14.52v32.3c0,5,0,10,.08,14.86s.08,9.56.08,14,.09,8.56.26,12.25l13.76-87.61H489L500,168c.17-5,.26-10.24.42-15.78s.34-11.08.42-16.7.26-11.16.34-16.7.25-10.74.33-15.77c.26-11.75.51-23.42.68-35.08Z" transform="translate(4.8 8.6)"/><path class="cls-3" d="M577.31,157.76c-2.1-.17-4.2-.25-6.29-.34s-4.28-.08-6.47-.08c-1.17,0-2.43,0-3.77.08s-2.6.09-3.86.09l-.42,35.91c5.45-.17,10.82-.42,16-.84s10.74-1,16.53-1.93v21c-3.78-.17-7.39-.25-10.91-.33s-7-.09-10.49-.09c-5.2,0-10.41.09-15.52.25s-10.33.42-15.78.76c.59-12.5,1.09-24.84,1.43-37.09s.58-24.59.58-37.09c0-11.92-.16-23.75-.42-35.58s-.84-23.58-1.59-35.58c7.89.59,15.44.92,22.66.92,4.53,0,9.06-.08,13.59-.33s9.4-.59,14.52-.93V89.7c-4.2-.75-8.23-1.34-12.34-1.67a116.31,116.31,0,0,0-12.08-.59h-4c-.67,8.39-1.09,16.7-1.34,25s-.42,16.62-.59,25c1.77.17,3.53.17,5.29.17h10.15c1.6,0,3.28-.09,5-.17v20.31Z" transform="translate(4.8 8.6)"/><path class="cls-3" d="M650.82,211.71c-3.78-.16-7.39-.25-10.91-.33s-7-.08-10.49-.08c-5.2,0-10.41.08-15.52.25s-10.33.42-15.78.75c.59-12.5,1.09-24.84,1.43-37.09s.58-24.58.58-37.09c0-11.91-.16-23.75-.42-35.58S598.88,79,598.12,67a18.43,18.43,0,0,0,2.35.09c.75.08,1.68.08,2.68.08h3.61c2.19,0,4.45-.08,7-.17s5-.25,7.55-.42c-.84,9.65-1.51,19.81-1.85,30.46s-.58,21.4-.67,32.31-.16,21.73-.16,32.56-.17,21.23-.34,31.3c5.45-.17,10.82-.42,16-.84s10.74-1,16.53-1.93v21.31Z" transform="translate(4.8 8.6)"/><path class="cls-3" d="M713.75,209A50.61,50.61,0,0,1,706,211.8c-2.51.67-4.86,1.09-6.79,1.43a66.18,66.18,0,0,1-6.8.58,24.65,24.65,0,0,1-7.8-1.34,28.24,28.24,0,0,1-8.4-4.45,37.22,37.22,0,0,1-8.14-8.64,58.21,58.21,0,0,1-7-13.76,111.77,111.77,0,0,1-4.87-19.89,180.94,180.94,0,0,1-1.84-26.94,147.57,147.57,0,0,1,2.18-26.85,98,98,0,0,1,5.62-19.64A58.23,58.23,0,0,1,670,78.79a42.67,42.67,0,0,1,8.9-8.3,30.06,30.06,0,0,1,16.2-5.37,42.49,42.49,0,0,1,5.7.58A38.6,38.6,0,0,1,706,67.21a14.27,14.27,0,0,1,4.7,2.86l-2,20.22a33.92,33.92,0,0,0-5.29-2.1,19.22,19.22,0,0,0-4.7-.67,12.7,12.7,0,0,0-7.47,2.27,21.15,21.15,0,0,0-5.62,6,39.07,39.07,0,0,0-4,8.47,78.55,78.55,0,0,0-2.68,9.65A142,142,0,0,0,676,140.22a127.47,127.47,0,0,0,2.94,26.18A89.23,89.23,0,0,0,681.7,176a34.74,34.74,0,0,0,4.11,8.3,19.94,19.94,0,0,0,5.71,5.88,12.88,12.88,0,0,0,7.55,2.18c3.19,0,6.8-1.09,11-3.36Z" transform="translate(4.8 8.6)"/><path class="cls-3" d="M787.85,141.14q0,20.27-2.77,34.32c-1.84,9.4-4.36,17-7.47,22.91s-6.88,10.16-11.16,12.76a25.44,25.44,0,0,1-13.76,3.94,26.81,26.81,0,0,1-13.76-3.77c-4.28-2.52-8.06-6.63-11.25-12.42s-5.7-13.35-7.55-22.83-2.77-21.06-2.77-34.91.93-25.67,2.77-35.32,4.36-17.54,7.55-23.67,7-10.49,11.25-13.17a25.55,25.55,0,0,1,13.76-4.12,26.16,26.16,0,0,1,13.76,4c4.28,2.68,8,7,11.16,13s5.63,13.93,7.47,23.58C786.93,115.21,787.85,127.05,787.85,141.14Zm-22.4,0q0-15.73-1-26.68a115.12,115.12,0,0,0-2.77-17.62c-1.18-4.54-2.52-7.81-4.11-9.82s-3.19-3-4.95-3-3.53,1-5.12,3.1-2.94,5.37-4.11,9.82a113.69,113.69,0,0,0-2.77,17.71c-.67,7.3-1,16.11-1,26.51s.34,19,1,26A101,101,0,0,0,743.38,184c1.17,4.28,2.51,7.3,4.11,9.07a6.65,6.65,0,0,0,5.12,2.68c1.76,0,3.35-.92,4.95-2.85s2.93-5,4.11-9.32a106.43,106.43,0,0,0,2.77-16.95C765.11,159.69,765.45,151.21,765.45,141.14Z" transform="translate(4.8 8.6)"/><path class="cls-3" d="M869.83,211.71c.17-10.23.42-20.64.68-31.3.08-4.53.16-9.23.25-14.26s.17-10.15.25-15.27.08-10.32.17-15.53.08-10.15.08-14.85v-9c0-2.85-.08-5.54-.17-8-.84,5-1.84,11.32-3.1,19.13s-2.52,16.45-3.86,25.84-2.69,19.39-4,29.88-2.43,21-3.44,31.38l-19.13-.5c-1.59-10.49-3.19-20.73-4.7-30.88s-2.93-19.72-4.36-28.87-2.6-17.54-3.78-25.34-2.1-14.52-2.93-20.31v35c0,7.22,0,14.52.08,21.91s.17,14.26.25,20.72.25,12.34.42,17.54.5,9.23.84,12.08l-27.36,1.6c1-5.71,1.85-12.09,2.44-19.22s1.17-14.52,1.51-22.32.59-15.69.75-23.75.17-15.86.17-23.41c0-7.8-.08-15-.17-21.82s-.25-12.67-.33-17.79q-.26-8.92-.51-16.36c2.19.34,4.37.59,6.72.84s4.7.42,7,.59,4.53.25,6.63.33,4.11.09,5.79.09h3.19a22.7,22.7,0,0,0,2.6-.09,16.35,16.35,0,0,0,2.1-.08c3.19,22.24,6,41,8.14,56.3s3.94,26.94,5.2,34.91c.76-5.12,1.43-10.32,2.18-15.77s1.35-10.74,1.93-16,1.18-10.49,1.68-15.52.92-9.82,1.34-14.35c.93-10.58,1.77-20.81,2.52-30.8,1.51.17,3.11.25,4.87.42,1.51.17,3.36.25,5.45.33s4.45.09,7,.09,5.28-.09,8.22-.17,6-.34,9.23-.67c-.84,25.09-1.17,46.74-1.17,65,0,13.51.17,25.09.42,34.83s.58,17.79.92,24.16c.42,7.47.92,13.77,1.51,18.72Z" transform="translate(4.8 8.6)"/><path class="cls-3" d="M946.78,157.76c-2.09-.17-4.19-.25-6.29-.34s-4.28-.08-6.46-.08c-1.18,0-2.43,0-3.78.08s-2.6.09-3.86.09L926,193.42c5.46-.17,10.83-.42,16-.84s10.74-1,16.53-1.93v21c-3.77-.17-7.38-.25-10.91-.33s-7-.09-10.49-.09c-5.2,0-10.4.09-15.52.25s-10.32.42-15.78.76c.59-12.5,1.09-24.84,1.43-37.09s.59-24.59.59-37.09c0-11.92-.17-23.75-.42-35.58s-.84-23.58-1.6-35.58c7.89.59,15.44.92,22.66.92,4.53,0,9.06-.08,13.59-.33s9.4-.59,14.52-.93V89.7c-4.19-.75-8.22-1.34-12.33-1.67a116.5,116.5,0,0,0-12.09-.59h-3.94c-.67,8.39-1.09,16.7-1.34,25s-.42,16.62-.59,25c1.76.17,3.52.17,5.29.17h10.15c1.59,0,3.27-.09,5-.17v20.31Z" transform="translate(4.8 8.6)"/><path class="cls-2" d="M522.43,66.46l-14,144.33H482c-.17-5.87-.42-11.41-.67-16.61s-.59-10.16-.92-14.86-.84-9.39-1.34-13.93-1.1-9.14-1.68-13.93-1.35-9.65-2.18-14.76-1.68-10.58-2.61-16.37c-1.25,7.47-3,18.72-5.28,33.65s-5,33.57-8.23,55.89L431.3,211.3,421.23,67.05l25.26-.59c-.09,4.11-.09,8.64-.09,13.51-.08,4.2-.08,9.06-.08,14.52v32.22c0,5,0,9.9.08,14.77s.09,9.48.09,14,.08,8.56.25,12.25L460.5,80.47h23.16l10.91,83.16c.17-4.95.25-10.15.42-15.69s.33-11.08.42-16.7.25-11.16.33-16.61.26-10.74.34-15.7c.25-11.66.5-23.32.67-35Z" transform="translate(4.8 8.6)"/><path class="cls-2" d="M571.6,153.23c-2.09-.17-4.19-.26-6.29-.34s-4.28-.08-6.38-.08c-1.17,0-2.43,0-3.77.08s-2.61.08-3.86.08l-.42,35.75c5.45-.17,10.82-.42,15.94-.84s10.66-1,16.45-1.93v21c-3.78-.17-7.39-.25-10.91-.33s-7-.09-10.49-.09c-5.2,0-10.32.09-15.44.25s-10.32.42-15.69.76c.58-12.42,1.09-24.76,1.42-36.92s.59-24.51.59-36.93c0-11.91-.17-23.66-.42-35.41s-.84-23.49-1.59-35.41c7.88.59,15.35.92,22.57.92,4.53,0,9.06-.08,13.59-.33s9.32-.59,14.52-.92V85.59c-4.11-.75-8.22-1.34-12.25-1.68a116.43,116.43,0,0,0-12.08-.58h-4c-.67,8.39-1.09,16.7-1.34,24.92s-.42,16.61-.59,24.92c1.76.17,3.53.17,5.29.17h10.15c1.6,0,3.27-.08,5-.17v20.06Z" transform="translate(4.8 8.6)"/><path class="cls-2" d="M644.86,207c-3.78-.17-7.38-.26-10.91-.34s-7-.08-10.49-.08c-5.2,0-10.32.08-15.44.25s-10.32.42-15.69.75c.59-12.42,1.09-24.75,1.43-36.92s.58-24.5.58-36.92c0-11.92-.16-23.67-.42-35.41s-.83-23.5-1.59-35.42a17.76,17.76,0,0,0,2.27.09c.75.08,1.67.08,2.68.08h3.61c2.1,0,4.45-.08,7-.17s5-.25,7.56-.41c-.84,9.65-1.51,19.72-1.85,30.37s-.59,21.4-.67,32.23-.17,21.65-.17,32.47-.17,21.23-.33,31.22c5.45-.17,10.82-.42,15.94-.84S639,187,644.78,186v21Z" transform="translate(4.8 8.6)"/><path class="cls-2" d="M707.63,204.33a49.56,49.56,0,0,1-7.72,2.77c-2.52.67-4.79,1.09-6.8,1.43a65.94,65.94,0,0,1-6.8.58,24.69,24.69,0,0,1-7.8-1.34,28.08,28.08,0,0,1-8.39-4.45,36.82,36.82,0,0,1-8.14-8.64,54,54,0,0,1-6.88-13.76,111.21,111.21,0,0,1-4.79-19.81,180.56,180.56,0,0,1-1.76-26.85,147.45,147.45,0,0,1,2.18-26.77,91.23,91.23,0,0,1,5.63-19.55,54.31,54.31,0,0,1,7.8-13.42,42.22,42.22,0,0,1,8.9-8.31,30.5,30.5,0,0,1,8.72-4.2,29.9,29.9,0,0,1,7.39-1.17,42.49,42.49,0,0,1,5.7.58,34.16,34.16,0,0,1,5,1.51,15.85,15.85,0,0,1,4.7,2.77l-2,20.14a26,26,0,0,0-5.28-2,19.22,19.22,0,0,0-4.7-.67,12.86,12.86,0,0,0-7.47,2.26,21.28,21.28,0,0,0-5.62,6,38.84,38.84,0,0,0-4,8.39,76.47,76.47,0,0,0-2.69,9.65A135.78,135.78,0,0,0,670,135.69a125.1,125.1,0,0,0,2.94,26,91.6,91.6,0,0,0,2.77,9.57,38.17,38.17,0,0,0,4,8.31,22.08,22.08,0,0,0,5.62,5.87,12.88,12.88,0,0,0,7.55,2.18c3.11,0,6.8-1.09,10.91-3.27Z" transform="translate(4.8 8.6)"/><path class="cls-2" d="M781.47,136.7c0,13.42-.92,24.83-2.77,34.15s-4.36,17-7.46,22.82-6.89,10.07-11.17,12.76a26.12,26.12,0,0,1-13.76,3.94,26.84,26.84,0,0,1-13.76-3.77c-4.28-2.52-8.06-6.63-11.24-12.34s-5.71-13.34-7.56-22.74-2.77-21-2.77-34.74.93-25.59,2.77-35.24S718.12,84,721.31,78s7-10.41,11.24-13.1a25.33,25.33,0,0,1,13.76-4,26.12,26.12,0,0,1,13.76,3.94c4.28,2.6,8,7,11.17,13s5.62,13.84,7.46,23.49S781.47,122.68,781.47,136.7Zm-22.32,0c0-10.49-.33-19.3-1-26.52a115.28,115.28,0,0,0-2.76-17.62c-1.18-4.53-2.52-7.81-4-9.74s-3.19-3-5-3-3.53,1-5,3-2.94,5.29-4.11,9.82a115.33,115.33,0,0,0-2.77,17.62q-1,10.83-1,26.44t1,25.93a103.73,103.73,0,0,0,2.77,16.86c1.17,4.28,2.52,7.3,4.11,9.06s3.27,2.69,5,2.69,3.35-.92,5-2.85,2.85-5,4-9.32a103.87,103.87,0,0,0,2.76-16.86C758.82,155.24,759.15,146.68,759.15,136.7Z" transform="translate(4.8 8.6)"/><path class="cls-2" d="M863.12,207c.17-10.24.42-20.65.67-31.14.09-4.44.17-9.23.25-14.26s.17-10.07.26-15.27.08-10.33.16-15.44.09-10.07.09-14.86v-9c0-2.85-.09-5.53-.17-8-.84,5-1.85,11.33-3,19s-2.52,16.36-3.86,25.76-2.69,19.3-3.94,29.79-2.44,20.89-3.45,31.3l-19-.51c-1.6-10.4-3.19-20.64-4.7-30.79s-2.94-19.64-4.28-28.78-2.6-17.54-3.78-25.26-2.1-14.52-2.94-20.23v34.91c0,7.22,0,14.52.09,21.82s.17,14.18.25,20.73.25,12.33.42,17.45.5,9.23.84,12.08l-27.27,1.6c1-5.71,1.84-12.08,2.43-19.13s1.17-14.52,1.51-22.24.59-15.61.76-23.66.16-15.78.16-23.33c0-7.72-.08-15-.16-21.74s-.26-12.67-.34-17.7q-.25-8.94-.5-16.37c2.09.34,4.36.59,6.71.84s4.62.42,6.88.59,4.45.25,6.63.34,4.11.08,5.79.08h3.19a23.23,23.23,0,0,0,2.52-.08,14.33,14.33,0,0,0,2.09-.09q4.78,33.24,8.14,56.14c2.27,15.27,4,26.85,5.21,34.74.75-5,1.42-10.32,2.18-15.69s1.34-10.74,1.93-15.94,1.17-10.41,1.68-15.53.92-9.82,1.34-14.26c.92-10.58,1.76-20.81,2.52-30.63,1.42.17,3.1.25,4.78.42,1.51.16,3.36.25,5.45.33s4.45.09,7,.09,5.29-.09,8.22-.17,6-.34,9.23-.67c-.84,25-1.17,46.57-1.17,64.86,0,13.43.17,25,.42,34.66s.59,17.71.92,24.08q.63,11.2,1.51,18.63Z" transform="translate(4.8 8.6)"/><path class="cls-2" d="M939.9,153.23c-2.09-.17-4.19-.26-6.29-.34s-4.28-.08-6.38-.08c-1.17,0-2.43,0-3.77.08s-2.61.08-3.86.08l-.42,35.75c5.45-.17,10.82-.42,15.94-.84s10.66-1,16.45-1.93v21c-3.78-.17-7.39-.25-10.91-.33s-7-.09-10.49-.09c-5.2,0-10.32.09-15.44.25s-10.32.42-15.69.76c.58-12.42,1.09-24.76,1.42-36.92s.59-24.51.59-36.93c0-11.91-.17-23.66-.42-35.41s-.84-23.49-1.59-35.41c7.88.59,15.35.92,22.57.92,4.53,0,9.06-.08,13.59-.33s9.32-.59,14.52-.92V85.59c-4.11-.75-8.22-1.34-12.25-1.68a116.43,116.43,0,0,0-12.08-.58h-3.95c-.67,8.39-1.09,16.7-1.34,24.92s-.42,16.61-.59,24.92c1.76.17,3.53.17,5.29.17H935c1.6,0,3.27-.08,4.95-.17Z" transform="translate(4.8 8.6)"/></svg>