<svg id="Calque_1" data-name="Calque 1" xmlns="http://www.w3.org/2000/svg" xmlns:xlink="http://www.w3.org/1999/xlink" viewBox="0 0 1481.02 905.63"><defs><style>.cls-1{fill:none;}.cls-2{clip-path:url(#clip-path);}.cls-13,.cls-3{fill:#eea695;}.cls-3{opacity:0.8;}.cls-4{fill:#ddaf3c;}.cls-5{fill:#827f7f;opacity:0.45;}.cls-6{fill:#f08582;}.cls-7{fill:#fff;}.cls-8{fill:#ef7c73;}.cls-9{fill:#30335f;}.cls-10{fill:#010101;}.cls-11{fill:#2c2b29;}.cls-12{fill:#5b4118;}.cls-14{fill:#786062;}.cls-15{fill:#4d83c3;}.cls-16{fill:#fdd826;}.cls-17,.cls-23{opacity:0.81;}.cls-18{fill:#1e1e1c;}.cls-19{fill:#689170;}.cls-20{fill:#f5d1c9;}.cls-20,.cls-26{opacity:0.7;}.cls-21{fill:#4d85c5;}.cls-22{fill:#f2927c;opacity:0.77;}.cls-23{fill:#fde640;}.cls-24{fill:#f08489;}.cls-25{fill:#f0814b;opacity:0.6;}.cls-26,.cls-29{fill:#fdd927;}.cls-27{opacity:0.64;}.cls-28{fill:#549165;}</style><clipPath id="clip-path" transform="translate(360.94 41.18)"><rect class="cls-1" x="-0.04" y="-0.01" width="595.29" height="841.93"/></clipPath></defs><title>fondA4- 1</title><g class="cls-2"><rect class="cls-3" x="110.02" y="489.55" width="1371" height="395.29"/><polygon class="cls-4" points="38.96 105.31 36.94 0 1413.9 2.01 1416.94 200.58 722.39 300.87 94.56 345 38.96 105.31"/><path class="cls-5" d="M1042,398.32s25.12-381.25-4-400,2-60-42.21-8.75-106.53,145-131.65,142.5-58.29,21.25-71.35,47.5-39.2,28.75-61.31,26.25-25.12,0-59.29-2.5-63.31,16.25-95.47,23.75-42.21,12.5-74.37,5-19.09-23.75-61.3-7.5-40.2-12.5-80.4-26.25-93.46-80-118.58-62.5-41.44-38.75-63.43-34.37S65.17,100.82,38,130.82s-64.32,33.75-96.48,33.75-65.32,15-101.5-6.25-60.3-35-96.48-43.75-93.46,18.75-93.46,18.75l-11.06,312.5,427.12-5L1042,439.57Z" transform="translate(360.94 41.18)"/><path class="cls-6" d="M-332,407.32s-25.12-381.25,4-400-2-60,42.21-8.75,106.53,145,131.65,142.5,58.29,21.25,71.35,47.5,39.2,28.75,61.31,26.25,25.12,0,59.29-2.5,63.31,16.25,95.47,23.75,42.21,12.5,74.37,5,19.09-23.75,61.3-7.5,40.2-12.5,80.4-26.25,93.46-80,118.58-62.5,41.44-38.75,63.43-34.37,113.45-.63,140.58,29.37,64.32,33.75,96.48,33.75,65.32,15,101.5-6.25,60.3-35,96.48-43.75,93.46,18.75,93.46,18.75l11.06,312.5-427.12-5L-332,448.57Z" transform="translate(360.94 41.18)"/><path class="cls-7" d="M135.57,827.41s10-45.85,11.41-115.69c1.28-64.77,37.88-69.28,31-112s-11-104.84,28.29-149.85,60.23-81.09,66.16-111.45-8.66-84.14,8.68-125.41,20.08-70.37,11.41-88.53,0-50.45,4.11-69.82S307.35-4.91,307.35-4.91l24-10.51s59.92,47.24,59.1,87.14c-.94,45.09-8.22,55.45-12.78,83.88s-13.18,56.12,1.41,100.2,27,72.73,32.1,103.12c4.09,24.44-1,90.2-3,137.76-1.11,27.41,42.35,348.08,42.35,348.08L147,819.4Z" transform="translate(360.94 41.18)"/><path class="cls-7" d="M86.92,864.45S97,818.6,98.34,748.76c1.27-64.76,24-63.1,17.21-105.83S128.8,535,168,490s75.07-86.3,81-116.66-9.8-82.06,7.54-123.34,24.33-65.17,23.35-84.6c-.92-18.51-8-64.08-3.92-83.45s16.5-97.63,16.5-97.63l24.8,2.6s79,94.77,63.48,134.77-37.41,59.25-42,87.68-2.74,31,11.86,75.1,60.17,93.78,64.62,118.79c5.79,32.59,8.93,69.55,7,117.1C421.17,547.76,417.47,637,417.47,637L156.73,842.37Z" transform="translate(360.94 41.18)"/><path class="cls-8" d="M163.13,849.59c-39.39.8-69.61-43.68-46.79-114,19.31-59.47,26.66-55.87,19.82-98.6s36.23-123.56,75.47-168.57,44.78-70.31,50.71-100.66-8.66-84.14,8.68-125.42S291.1,172,282.43,153.87s0-50.45,4.11-69.83S298.09.19,298.09.19l46,1.51s36.46,55.38,34.37,97.69c-2.19,44.5-5.35,74.61-9.91,103s-10.36,40.7,4.24,84.78,11.68,68.79,16.74,93.14c7,33.57,14.75,73.19,12,120.61-5.33,92.64,35,357.35,35,357.35l-299.68-9.5Z" transform="translate(360.94 41.18)"/><path class="cls-9" d="M156,843.32S132.87,805.49,134,735.09c1.06-65.27,22.17-63.73,15.15-106.82s29.5-95.52,68.81-140.76S263,392.41,268.9,361.82s-2.69-83.6,14.61-125.15,15.94-80.72,7.17-99.06,8.05-59.35,12.11-78.87-7.17-66.28-7.17-66.28l40.31-1.53S381.79,62,366.32,102.25s-3.49,67.27-8,95.91-15.76,33.9-.93,78.38,14.7,93.6,29.45,114.61.65,62.16-1.14,110.09c-1,27.63,44.72,344.32,44.72,344.32l-311.75,4.05Z" transform="translate(360.94 41.18)"/><path class="cls-10" d="M208.38,632.83,226.87,615l32.28-28.84L299,550.82l2.46,1.25S287,573.85,284.52,576.75s-26.89,22.91-30.3,25.5S213.63,630.77,208.38,632.83Z" transform="translate(360.94 41.18)"/><path class="cls-11" d="M207.67,633.51s16.09-15.41,19.2-18.55,30.57-27.24,30.57-27.24l41.06-36.16.49-.74-9.31-12.6-28.95,22.35-45.3,36.49L179,636l.33,1L201,638Z" transform="translate(360.94 41.18)"/><path class="cls-1" d="M169.55,647.35s31.21-31.8,45.15-44.65,60-51.72,71.54-60.55,38-28,41.58-29.06l2.57-7.34s-20.15,12.3-27.19,17.63S258.5,558,252.25,563s-38.89,32.81-44.75,38S176.44,631,171.56,637.61s-6.93,10.16-6.93,10.16l4,1.12Z" transform="translate(360.94 41.18)"/><polygon class="cls-1" points="578.79 643.46 605.82 649.86 614.66 644.61 586.02 636.31 578.79 643.46"/><path class="cls-1" d="M178.51,637.22l23.62,1.26-16.66,11.66-16.86-1.24S173.06,640.85,178.51,637.22Z" transform="translate(360.94 41.18)"/><path class="cls-12" d="M186.5,655.78s15.38,29.61,23.07,26.84S227,671.83,227,671.83s70.63-59.27,76.51-66.53S325.56,576,327.59,571s9.88-24.71,9.91-26.74-7.14-34.1-7.14-34.1L327.31,506s-1.73,11.26-6.51,18.34-29.44,43.34-40.48,54c-8.4,8.1-43.47,35.69-53.94,42.58s-43.92,29.54-43.92,29.54A35.17,35.17,0,0,1,186.5,655.78Z" transform="translate(360.94 41.18)"/><path class="cls-12" d="M182.43,650.35,162,649s40,34.32,47.06,33.81Z" transform="translate(360.94 41.18)"/><path class="cls-12" d="M169.55,647.35s48.3-50.09,56.9-57.4,70.26-56.45,70.26-56.45l32.52-21.15L327.31,506s-6.6,4.35-14.5,9.82-33.49,24.69-41.9,31.34-26.42,21.2-33.88,27.78-34.81,29.34-39,33.89-28.41,27.27-32.93,34.51L162,649l6.61.4Z" transform="translate(360.94 41.18)"/><path class="cls-13" d="M179.47,637l21.59.9-18.6,12.49-13.9-1a14.4,14.4,0,0,1,2.36-3.58C172.53,644.06,179.47,637,179.47,637Z" transform="translate(360.94 41.18)"/><polygon class="cls-13" points="578.79 643.46 604.6 649.58 612.09 643.38 586.02 636.31 578.79 643.46"/><path class="cls-13" d="M250.17,573.56l27.94,6.78s5-4.73,5.64-5.86L257,566.24l-7.58,6.44.2.83Z" transform="translate(360.94 41.18)"/><path class="cls-13" d="M288.44,539.77s11.15-5.5,22.08-1.08c0,0,12.75-15.42,14.23-23.35C324.75,515.34,292.41,535.63,288.44,539.77Z" transform="translate(360.94 41.18)"/><path class="cls-14" d="M217.85,602.28s6.6,10.71,9,12.68l4.68,2.22,12.13-8.73Z" transform="translate(360.94 41.18)"/><path class="cls-14" d="M249.63,573.51s9,12.68,12,14.41l5.31,1.83,11.17-9.31Z" transform="translate(360.94 41.18)"/><path class="cls-14" d="M288.47,539.75a19.48,19.48,0,0,0,3,2.69c.79.34.83-.2,1.43.8s6.25,8.39,8.09,9l.36-.18,9.36-13.15a17.76,17.76,0,0,0-3.14-1.22,36,36,0,0,0-6.11-.73,69.51,69.51,0,0,0-7.12.79C293.35,538.11,289.2,539.13,288.47,539.75Z" transform="translate(360.94 41.18)"/><path class="cls-15" d="M194,675.42s-5.51,14.13-10.38,24.93S163.85,744,172.86,736.79s24.26-4.78,38.71-15.1S232,688.86,241,681.63s18.85-21.38,25.42-23.21,13.05-11.11,18.12-21.18,19.15-27.37,22.64-34.63S323.41,576,323.41,576l-69.76,73.73c-5.1,5.41-51.1,28.93-51.1,28.93Z" transform="translate(360.94 41.18)"/><path class="cls-16" d="M405.16,768.78c1.53-1.82-5.75-7.31-16.78-9.51-2.79-.56-3.91,0-5.59,0-1.12-3.36-2.23-7.27-3.91-7.27s-11.19,5.59-11.19,6.15,1.12,1.12,2.24,1.68,1.68,1.12,2.24,1.12c-2.8,0-7.83,1.67-8.95,1.67s-5-2.79-6.71-2.79a8.31,8.31,0,0,1-4.47-1.68c-.56-.56-1.68,3.92-.56,5.59s3.35,2.8,2.79,3.36-1.11,2.23-1.67,2.79-.56,2.24-.56,3.36,0,2.24,1.12,2.24,8.94-4.48,9.5-5.6a7.49,7.49,0,0,1,2.8-.56s1.68,5,2.79,6.16,2.8,2.23,3.36,1.67,3.35-4.47,3.35-5,2.24.56,2.24.56l.56,4.47s6.15,1.68,7.27-2.79C386.71,774.93,399,776,405.16,768.78Z" transform="translate(360.94 41.18)"/><g class="cls-17"><circle class="cls-7" cx="757.44" cy="807.68" r="2.5"/><circle class="cls-18" cx="757.94" cy="808.18" r="1"/></g><path class="cls-19" d="M360,764s-5-2-6-3-2,1-1,2a39.87,39.87,0,0,1,3,4l-2,4a7.74,7.74,0,0,0-1,3l7-4,3-3Z" transform="translate(360.94 41.18)"/><path class="cls-15" d="M394,764c-2-1-4-3-6-2s-5,0-7,1a18.54,18.54,0,0,1-7,2c-2,0-5,2-7,2s-8-1-8-1,10-4,12-4,4-2,4-2l-4-2,7-4,3,5,7,2,6,1,2,1Z" transform="translate(360.94 41.18)"/><path class="cls-20" d="M382.87,763.9a4.54,4.54,0,0,0-3.81-.81,12.43,12.43,0,0,0-3.54,1.64l.41,3.67a6,6,0,0,0,4.9-.55A4.36,4.36,0,0,0,382.87,763.9Z" transform="translate(360.94 41.18)"/><path class="cls-21" d="M281.41,500.77l-.18-12.14s3.59,2.75,4.87,2.75,8.11-.85,9-.85,5.12-6,5.12-6,6,4.26,6.4,4.26,15.36,2.56,16.64,3.42-.85,2.13-.85,2.13h1.28s-.43,3-1.28,3-16.22,2.13-17.5,1.7c0,0-3.84,4.27-4.26,4.27s-3.42-6-3.42-6-3.84,5.54-4.69,5.12-2.56-6-2.56-6S282.69,502.9,281.41,500.77Z" transform="translate(360.94 41.18)"/><g class="cls-17"><circle class="cls-7" cx="679.68" cy="534.48" r="1.07"/><circle class="cls-18" cx="679.9" cy="534.69" r="0.43"/></g><path class="cls-22" d="M286.71,499.12a32.67,32.67,0,0,1-.61-4.75c0-1.71,3.41-1.71,4.69-1.71s6.4.43,8.54.43h9.38a59.28,59.28,0,0,0,7.26-1.28,11.81,11.81,0,0,0-5.31-2.28,20.83,20.83,0,0,1-4.08-.71l-6.4-4.26-4.6,5.6-9.48,1.22-4.69-2.56v11.95S282.63,501.74,286.71,499.12Z" transform="translate(360.94 41.18)"/><path class="cls-23" d="M304.87,492.24v4.69s-6,.43-7.25-.85-.43-5.12-.43-5.12Z" transform="translate(360.94 41.18)"/><path class="cls-24" d="M220.05,785.51c-1.15-2.07,7.07-6,18.31-6,2.85,0,3.84.76,5.48,1.09,1.75-3.07,3.61-6.69,5.26-6.37s9.88,7.67,9.77,8.22-1.32.87-2.52,1.2-1.86.77-2.41.67c2.74.54,7.35,3.17,8.44,3.38s5.49-1.76,7.13-1.43a8.32,8.32,0,0,0,4.72-.77c.65-.44.88,4.16-.55,5.59s-3.83,2.09-3.39,2.75.66,2.41,1.1,3.07.11,2.3-.11,3.4-.43,2.19-1.53,2-7.9-6.13-8.23-7.34a7.61,7.61,0,0,0-2.64-1.09s-2.62,4.61-3.94,5.49-3.18,1.65-3.62,1-2.41-5-2.31-5.59-2.3.11-2.3.11l-1.42,4.28s-6.36.45-6.58-4.16C237,795.14,224.67,793.84,220.05,785.51Z" transform="translate(360.94 41.18)"/><g class="cls-17"><circle class="cls-7" cx="589.93" cy="826.15" r="2.5"/><circle class="cls-18" cx="589.34" cy="826.54" r="1"/></g><path class="cls-19" d="M265.28,789.63s5.29-1,6.47-1.77,1.76,1.37.59,2.16a38.62,38.62,0,0,0-3.72,3.33l1.18,4.32a7.62,7.62,0,0,1,.39,3.13l-6.08-5.28L261.75,792Z" transform="translate(360.94 41.18)"/><path class="cls-25" d="M231.93,783c2.16-.59,4.51-2.16,6.27-.79s4.91,1,6.67,2.35a18.59,18.59,0,0,0,6.48,3.32c2,.39,4.51,2.94,6.48,3.33s8,.58,8,.58-9-5.87-11-6.26-3.54-2.75-3.54-2.75l4.32-1.18-6.09-5.28-3.92,4.31-7.25.6-6.08-.19-2.16.59Z" transform="translate(360.94 41.18)"/><path class="cls-26" d="M242.86,785.08a4.51,4.51,0,0,1,3.9-.05,12.24,12.24,0,0,1,3.15,2.29l-1.12,3.53a6,6,0,0,1-4.7-1.5A4.39,4.39,0,0,1,242.86,785.08Z" transform="translate(360.94 41.18)"/><path class="cls-24" d="M334.79,386.33c-.53-1,3.3-2.81,8.54-2.82a8.7,8.7,0,0,1,2.55.51c.82-1.43,1.68-3.12,2.45-3s4.6,3.58,4.55,3.83-.61.41-1.17.57-.87.35-1.12.3c1.27.26,3.42,1.48,3.93,1.58s2.56-.82,3.32-.67a3.79,3.79,0,0,0,2.2-.36c.31-.2.41,1.95-.25,2.61s-1.79,1-1.58,1.28.3,1.12.51,1.43,0,1.07-.05,1.59-.2,1-.71.92a15.25,15.25,0,0,1-3.84-3.42,3.44,3.44,0,0,0-1.23-.51,12.25,12.25,0,0,1-1.84,2.55c-.61.41-1.48.77-1.68.47a12.05,12.05,0,0,1-1.08-2.61c0-.25-1.07.05-1.07.05l-.66,2s-3,.21-3.07-1.94C342.67,390.82,336.94,390.22,334.79,386.33Z" transform="translate(360.94 41.18)"/><g class="cls-17"><circle class="cls-7" cx="699.89" cy="427.26" r="1.17"/><circle class="cls-18" cx="699.62" cy="427.44" r="0.47"/></g><path class="cls-19" d="M355.87,388.25a15.74,15.74,0,0,0,3-.82c.54-.37.82.64.27,1a18.49,18.49,0,0,0-1.73,1.56l.55,2a3.65,3.65,0,0,1,.18,1.46L355.33,391l-1.1-1.65Z" transform="translate(360.94 41.18)"/><path class="cls-25" d="M340.33,385.17c1-.28,2.1-1,2.92-.37s2.29.45,3.11,1.09a8.69,8.69,0,0,0,3,1.55c.91.18,2.1,1.37,3,1.55s3.75.27,3.75.27-4.21-2.74-5.13-2.92a3.24,3.24,0,0,1-1.64-1.28l2-.55-2.84-2.46-1.82,2-3.39.28-2.83-.09-1,.28Z" transform="translate(360.94 41.18)"/><path class="cls-26" d="M345.42,386.13a2.11,2.11,0,0,1,1.82,0,5.66,5.66,0,0,1,1.47,1.07l-.52,1.64a2.77,2.77,0,0,1-2.19-.7A2.05,2.05,0,0,1,345.42,386.13Z" transform="translate(360.94 41.18)"/><path class="cls-24" d="M359.13,330c.63-.74-2.37-3-6.9-3.91a7.54,7.54,0,0,0-2.3,0c-.46-1.38-.92-3-1.61-3a17.22,17.22,0,0,0-4.6,2.53c0,.23.46.46.92.69s.69.46.92.46a36.09,36.09,0,0,0-3.68.69c-.46,0-2.07-1.15-2.76-1.15a3.43,3.43,0,0,1-1.84-.69c-.23-.23-.69,1.61-.23,2.3s1.38,1.15,1.15,1.38-.46.92-.69,1.15-.23.92-.23,1.38,0,.92.46.92a13.46,13.46,0,0,0,3.91-2.3,3.08,3.08,0,0,1,1.15-.23,11,11,0,0,0,1.15,2.53c.46.46,1.15.92,1.38.69a10.8,10.8,0,0,0,1.38-2.07c0-.23.92.23.92.23l.23,1.84s2.53.69,3-1.15C351.54,332.5,356.6,333,359.13,330Z" transform="translate(360.94 41.18)"/><g class="cls-17"><circle class="cls-7" cx="716.5" cy="370.22" r="1.03"/><circle class="cls-18" cx="716.71" cy="370.42" r="0.41"/></g><path class="cls-19" d="M340.55,328a13.5,13.5,0,0,1-2.47-1.23c-.41-.42-.82.41-.41.82a16.91,16.91,0,0,1,1.24,1.64l-.83,1.65a3.17,3.17,0,0,0-.41,1.23l2.88-1.64,1.24-1.24Z" transform="translate(360.94 41.18)"/><path class="cls-25" d="M354.54,328c-.83-.41-1.65-1.23-2.47-.82s-2.06,0-2.88.41a7.65,7.65,0,0,1-2.88.82c-.82,0-2.06.82-2.88.82s-3.29-.41-3.29-.41a34.14,34.14,0,0,1,4.94-1.64,2.85,2.85,0,0,0,1.64-.83l-1.64-.82L348,323.9l1.23,2.05,2.88.83,2.47.41.82.41Z" transform="translate(360.94 41.18)"/><path class="cls-26" d="M350,328a1.84,1.84,0,0,0-1.57-.33,5,5,0,0,0-1.45.67l.17,1.51a2.45,2.45,0,0,0,2-.22A1.82,1.82,0,0,0,350,328Z" transform="translate(360.94 41.18)"/><path class="cls-21" d="M320.21,293.38l0-3.84s1.13.87,1.54.87,2.56-.27,2.83-.27,1.62-1.89,1.62-1.89,1.89,1.35,2,1.35a45.68,45.68,0,0,1,5.26,1.08c.41.27-.27.68-.27.68h.41s-.14.94-.41.94-5.13.68-5.53.54a13.22,13.22,0,0,1-1.35,1.35,13,13,0,0,1-1.08-1.89s-1.22,1.76-1.49,1.62-.81-1.89-.81-1.89S320.62,294.06,320.21,293.38Z" transform="translate(360.94 41.18)"/><g class="cls-17"><circle class="cls-7" cx="692.96" cy="332.2" r="0.34"/><circle class="cls-18" cx="693.03" cy="332.26" r="0.13"/></g><path class="cls-22" d="M321.89,292.86a10.45,10.45,0,0,1-.19-1.5c0-.54,1.08-.54,1.48-.54s2,.13,2.7.13h3a19.08,19.08,0,0,0,2.3-.4,3.74,3.74,0,0,0-1.68-.73,6,6,0,0,1-1.29-.22l-2-1.35L324.7,290l-3,.38-1.49-.81v3.78S320.6,293.69,321.89,292.86Z" transform="translate(360.94 41.18)"/><path class="cls-23" d="M327.64,290.68v1.49s-1.89.13-2.3-.27-.13-1.62-.13-1.62Z" transform="translate(360.94 41.18)"/><g class="cls-27"><path class="cls-28" d="M781.33,411.22s-121.84-138.45-256-144.57" transform="translate(360.94 41.18)"/><path class="cls-28" d="M750.69,354.45a42.43,42.43,0,0,1-4.8-13.67,60.19,60.19,0,0,1-.88-13.49,59.53,59.53,0,0,1,2.08-13.35,41.88,41.88,0,0,1,6-13.17A41.89,41.89,0,0,1,758,314.43a61.65,61.65,0,0,1-1.24,26.84A42.42,42.42,0,0,1,750.69,354.45Z" transform="translate(360.94 41.18)"/><path class="cls-28" d="M712.59,322.65a64.94,64.94,0,0,1-7.08-17,100.41,100.41,0,0,1-3.08-17.34,98.6,98.6,0,0,1-.09-17.61,64.36,64.36,0,0,1,3.94-18,64.67,64.67,0,0,1,7.1,17,98.49,98.49,0,0,1,3.06,17.34,100.52,100.52,0,0,1,.07,17.61A65,65,0,0,1,712.59,322.65Z" transform="translate(360.94 41.18)"/><path class="cls-28" d="M666.37,295.23a33.47,33.47,0,0,1-3.17-3.85c-1-1.29-1.78-2.61-2.58-3.93a62,62,0,0,1-4-8.05,75.16,75.16,0,0,1-5.21-33.86,60.69,60.69,0,0,1,1.4-8.87c.37-1.5.77-3,1.29-4.53a33.32,33.32,0,0,1,1.89-4.62,31.65,31.65,0,0,1,3.19,3.84c.95,1.3,1.78,2.62,2.58,3.94a60.78,60.78,0,0,1,4,8,75.31,75.31,0,0,1,5.16,33.86,62.07,62.07,0,0,1-1.4,8.87c-.36,1.5-.76,3-1.28,4.53A32,32,0,0,1,666.37,295.23Z" transform="translate(360.94 41.18)"/><path class="cls-28" d="M613.92,265.94a29.25,29.25,0,0,1-3.27-3.34,42.31,42.31,0,0,1-2.68-3.46,51.9,51.9,0,0,1-4.2-7.15,61.68,61.68,0,0,1-5-15,60.66,60.66,0,0,1-1.14-15.75,53.21,53.21,0,0,1,1.14-8.22c.33-1.39.69-2.79,1.16-4.22a29.72,29.72,0,0,1,1.76-4.34,29.37,29.37,0,0,1,3.28,3.34c1,1.13,1.85,2.29,2.69,3.46a51.32,51.32,0,0,1,4.2,7.15,61.05,61.05,0,0,1,5,15A62.11,62.11,0,0,1,618,249.17a52.92,52.92,0,0,1-1.14,8.21c-.33,1.4-.68,2.8-1.15,4.22A29.11,29.11,0,0,1,613.92,265.94Z" transform="translate(360.94 41.18)"/><path class="cls-28" d="M558.05,259.44a24.49,24.49,0,0,1-3.11-2.42,33.63,33.63,0,0,1-2.52-2.56,34.82,34.82,0,0,1-3.88-5.33,37.62,37.62,0,0,1-4.89-23.56,34.94,34.94,0,0,1,1.46-6.44,33.35,33.35,0,0,1,1.31-3.34,24.1,24.1,0,0,1,1.91-3.46,24.62,24.62,0,0,1,3.12,2.42A33.7,33.7,0,0,1,554,217.3a35.47,35.47,0,0,1,3.89,5.34A36.67,36.67,0,0,1,562.21,234a37.21,37.21,0,0,1,.49,12.18,34.71,34.71,0,0,1-1.45,6.44,33.35,33.35,0,0,1-1.31,3.34A23.38,23.38,0,0,1,558.05,259.44Z" transform="translate(360.94 41.18)"/><path class="cls-28" d="M522.06,264a24.71,24.71,0,0,1-3.79,1.09,33.35,33.35,0,0,1-3.54.53,33.83,33.83,0,0,1-6.6,0,37.61,37.61,0,0,1-21.93-9.9,34.7,34.7,0,0,1-4.35-5,32.8,32.8,0,0,1-1.93-3,23.35,23.35,0,0,1-1.68-3.58A25.24,25.24,0,0,1,482,243c1.22-.26,2.39-.41,3.55-.54a34.63,34.63,0,0,1,6.6,0,37.62,37.62,0,0,1,21.9,9.94,34.81,34.81,0,0,1,6.29,8A24.15,24.15,0,0,1,522.06,264Z" transform="translate(360.94 41.18)"/><path class="cls-28" d="M727.72,392a42.29,42.29,0,0,1-7.44,12.43,61,61,0,0,1-9.81,9.29,59.53,59.53,0,0,1-11.61,6.93,41.82,41.82,0,0,1-14,3.76,41.94,41.94,0,0,1,7.43-12.44,59.4,59.4,0,0,1,9.83-9.28,60,60,0,0,1,11.61-6.91A42.08,42.08,0,0,1,727.72,392Z" transform="translate(360.94 41.18)"/><path class="cls-28" d="M679.94,378.55A65.22,65.22,0,0,1,667.35,392a100.46,100.46,0,0,1-14.55,9.92,98.77,98.77,0,0,1-16,7.29,64.41,64.41,0,0,1-18,3.77,64,64,0,0,1,12.58-13.43,98.31,98.31,0,0,1,14.56-9.9,99.7,99.7,0,0,1,16-7.28A65.06,65.06,0,0,1,679.94,378.55Z" transform="translate(360.94 41.18)"/><path class="cls-28" d="M631.17,356a34,34,0,0,1-2.74,4.16c-1,1.29-2,2.47-3,3.62A60.88,60.88,0,0,1,618.9,370a73.88,73.88,0,0,1-14.56,9.24,73.11,73.11,0,0,1-16.27,5.69,61.93,61.93,0,0,1-8.9,1.27c-1.54.08-3.09.14-4.7.09a32.43,32.43,0,0,1-5-.45,34.17,34.17,0,0,1,2.74-4.17c1-1.29,2-2.48,3-3.63a61,61,0,0,1,6.53-6.18,72.54,72.54,0,0,1,14.56-9.21,73.41,73.41,0,0,1,16.29-5.67,62,62,0,0,1,8.89-1.27c1.54-.09,3.1-.16,4.7-.11A33.44,33.44,0,0,1,631.17,356Z" transform="translate(360.94 41.18)"/><path class="cls-28" d="M577.33,329.34a28.6,28.6,0,0,1-2.6,3.89c-.9,1.2-1.86,2.28-2.83,3.34a52.25,52.25,0,0,1-6.12,5.59,61.77,61.77,0,0,1-13.61,8A60.92,60.92,0,0,1,537,354.55a52.07,52.07,0,0,1-8.28.59c-1.43,0-2.87-.08-4.37-.25a29.67,29.67,0,0,1-4.61-.82,29.42,29.42,0,0,1,2.58-3.91c.91-1.2,1.86-2.28,2.83-3.34a52.35,52.35,0,0,1,6.12-5.6,63.35,63.35,0,0,1,28.81-12.34,53.06,53.06,0,0,1,8.27-.59c1.43,0,2.88.08,4.37.25A28.6,28.6,0,0,1,577.33,329.34Z" transform="translate(360.94 41.18)"/><path class="cls-28" d="M540.33,287a24.21,24.21,0,0,1-1.78,3.53,33.33,33.33,0,0,1-2,3,34.89,34.89,0,0,1-4.48,4.85,37.76,37.76,0,0,1-22.16,9.36,35.08,35.08,0,0,1-6.6-.18,33.78,33.78,0,0,1-3.53-.64,24.35,24.35,0,0,1-3.77-1.2,24.34,24.34,0,0,1,1.78-3.54,31.44,31.44,0,0,1,2-3,34.33,34.33,0,0,1,4.48-4.85,36.68,36.68,0,0,1,10.32-6.47A37.33,37.33,0,0,1,526.44,285a35.08,35.08,0,0,1,6.6.18,31.67,31.67,0,0,1,3.53.63A25.19,25.19,0,0,1,540.33,287Z" transform="translate(360.94 41.18)"/></g><path class="cls-12" d="M23.52,529l10.78-9.29s1.28-8.55,2.14-8.76,2,2.67,2,2.67.75-3.84,1.07-4.59S42.31,511,42.31,511s1.82-3.2,2.25-4.16a14.48,14.48,0,0,1,2,2.67c.85-1.39,2.67-5.24,3.31-4.17A11.26,11.26,0,0,1,51,509c1.5-1.81,2.12-2.71,3.74-3.52.86-.43.54,2.88,1,2.77a13.49,13.49,0,0,1,3.53-3c.75,1.5.53,1.71.75,3.31a13.81,13.81,0,0,1,3.73-2.24c1,.86.11,2.14.11,3.85a13.5,13.5,0,0,1,4.49-1.93c.1,1.61-.32,1.82-.54,3.21a16.16,16.16,0,0,1,4.06-.86c.21,1.18-.53,2.14-.85,4.17,1.71,0,4.16-1.5,4.16-.11s-.43,1.5-.85,3a17.8,17.8,0,0,1,3,.64c.85.11-.11,1.61-1.07,2.67,2.35.86,2,1,3.31,1.07a11.61,11.61,0,0,1-2.78,3.42,17.44,17.44,0,0,0,2.89.75c-1,1.6-1.18,2.24-2.25,3,1,.85,1,1,1.93,1.92-1.61,1.71-1.5,2.14-2.78,2.35,1.6.85,1.82,2.14.43,2.46s-1.28.85-2.46,1.38c2.24,2,2.46,2.67,2.46,2.67s-4,2.57-6.84,2.57c1,1.6-.53,6.19-4.91,7.58s-9.93.11-4.17-3.42c-4.48.86-9.72,1.28-12.92-.42-.64,1.49-3.2,4.16-4.91,4.48s-6.2-.53-6.3-1.39,2-4.7,4.05-4.91c-2-.11-13.56-4.59-15.16-5.87a57.62,57.62,0,0,1-5.66-6A14.78,14.78,0,0,1,23.52,529Z" transform="translate(360.94 41.18)"/><g class="cls-17"><circle class="cls-7" cx="393.88" cy="567.78" r="2.55"/><circle class="cls-18" cx="394.39" cy="568.29" r="1.02"/></g><circle class="cls-3" cx="397.95" cy="576.77" r="2.92"/><path class="cls-18" d="M22.81,529.73l-.08,5.91-2.63-3S21.56,529.82,22.81,529.73Z" transform="translate(360.94 41.18)"/><path class="cls-18" d="M48.33,515.18a23.37,23.37,0,0,1-4.26,2.29v-.85c.78.35,1.55.72,2.3,1.14a16.35,16.35,0,0,1,2.18,1.39,17.36,17.36,0,0,1-2.49-.72c-.8-.28-1.59-.61-2.37-1l-1-.45,1-.4A23.39,23.39,0,0,1,48.33,515.18Z" transform="translate(360.94 41.18)"/><path class="cls-18" d="M58.82,522.65a23,23,0,0,1-4.25,2.29v-.85c.78.35,1.55.72,2.3,1.13a17.42,17.42,0,0,1,2.18,1.39,17.33,17.33,0,0,1-2.49-.71c-.8-.29-1.59-.61-2.37-1l-1-.44,1-.41A23.48,23.48,0,0,1,58.82,522.65Z" transform="translate(360.94 41.18)"/><path class="cls-18" d="M61.16,513.31a23.42,23.42,0,0,1-4.26,2.3l0-.85c.77.35,1.54.72,2.29,1.13a17.42,17.42,0,0,1,2.18,1.39,16.84,16.84,0,0,1-2.48-.71c-.81-.29-1.6-.62-2.38-1l-1-.44,1-.41A23.76,23.76,0,0,1,61.16,513.31Z" transform="translate(360.94 41.18)"/><path class="cls-18" d="M69.62,532.62a23.87,23.87,0,0,1-4.8-.58l.5-.69c.43.73.85,1.48,1.22,2.25a17.84,17.84,0,0,1,1,2.39,17.08,17.08,0,0,1-1.61-2c-.5-.7-1-1.43-1.38-2.16l-.54-.94,1,.25A24,24,0,0,1,69.62,532.62Z" transform="translate(360.94 41.18)"/><path class="cls-18" d="M71,522.54a23.44,23.44,0,0,1-4.22-2.36l.72-.45c.13.84.22,1.69.28,2.55a17.1,17.1,0,0,1,0,2.58,16.75,16.75,0,0,1-.73-2.48q-.28-1.25-.45-2.52l-.15-1.07.87.63A23.64,23.64,0,0,1,71,522.54Z" transform="translate(360.94 41.18)"/><path class="cls-18" d="M59.62,535.18a23,23,0,0,1-4.79.64l.31-.79c.61.6,1.2,1.22,1.75,1.87A16.66,16.66,0,0,1,58.44,539a17.64,17.64,0,0,1-2.07-1.54c-.66-.55-1.28-1.14-1.88-1.74l-.76-.77,1.07,0A23,23,0,0,1,59.62,535.18Z" transform="translate(360.94 41.18)"/><path class="cls-18" d="M51.13,528a23.13,23.13,0,0,1-4.81.51l.33-.78c.59.62,1.16,1.25,1.7,1.92a17,17,0,0,1,1.49,2.11,16.82,16.82,0,0,1-2-1.6c-.64-.57-1.24-1.17-1.83-1.79l-.74-.79h1.07A23.8,23.8,0,0,1,51.13,528Z" transform="translate(360.94 41.18)"/><path class="cls-18" d="M50,536.64a23.33,23.33,0,0,1-4.25,2.3v-.85c.78.34,1.54.72,2.29,1.13a16.72,16.72,0,0,1,2.18,1.39,16.84,16.84,0,0,1-2.48-.71c-.81-.29-1.6-.62-2.37-1l-1-.44,1-.41A23.76,23.76,0,0,1,50,536.64Z" transform="translate(360.94 41.18)"/><path class="cls-18" d="M64.42,537.81a23.28,23.28,0,0,1-4.25,2.29v-.85c.78.35,1.55.72,2.3,1.14a17.34,17.34,0,0,1,2.18,1.38,16.13,16.13,0,0,1-2.49-.71c-.81-.28-1.59-.61-2.37-1l-1-.45,1-.4A22.85,22.85,0,0,1,64.42,537.81Z" transform="translate(360.94 41.18)"/><path class="cls-12" d="M740.47,646.64l-10.79-9.29s-1.28-8.54-2.13-8.76-2,2.67-2,2.67-.75-3.84-1.07-4.59-2.78,1.92-2.78,1.92-1.81-3.2-2.24-4.16a14.7,14.7,0,0,0-2,2.67c-.85-1.39-2.67-5.23-3.31-4.17a11.24,11.24,0,0,0-1.07,3.64c-1.49-1.82-2.11-2.72-3.74-3.53-.85-.43-.53,2.88-1,2.78a13.08,13.08,0,0,0-3.52-3c-.75,1.49-.54,1.71-.75,3.31a13.63,13.63,0,0,0-3.74-2.24c-1,.85-.1,2.13-.1,3.84a13.5,13.5,0,0,0-4.49-1.92c-.11,1.6.32,1.81.53,3.2a15.65,15.65,0,0,0-4-.85c-.22,1.17.53,2.13.85,4.16-1.71,0-4.17-1.49-4.17-.1s.43,1.49.86,3a15.77,15.77,0,0,0-3,.64c-.86.1.11,1.6,1.07,2.67-2.35.85-2,1-3.31,1.07a11.67,11.67,0,0,0,2.77,3.41,15.77,15.77,0,0,1-2.88.75c1,1.6,1.17,2.24,2.24,3-1,.86-1,1-1.92,1.92,1.6,1.71,1.49,2.14,2.78,2.35-1.61.86-1.82,2.14-.43,2.46s1.28.85,2.46,1.39c-2.25,2-2.46,2.67-2.46,2.67s3.95,2.56,6.83,2.56c-1,1.6.54,6.2,4.92,7.58s9.93.11,4.16-3.41c4.49.85,9.72,1.28,12.93-.43.64,1.49,3.2,4.16,4.91,4.48s6.19-.53,6.3-1.38-2-4.7-4.06-4.92c2-.1,13.57-4.59,15.17-5.87a56.63,56.63,0,0,0,5.66-6A15.2,15.2,0,0,0,740.47,646.64Z" transform="translate(360.94 41.18)"/><g class="cls-17"><circle class="cls-7" cx="1091.97" cy="685.38" r="2.55"/><circle class="cls-18" cx="1091.46" cy="685.89" r="1.02"/></g><circle class="cls-3" cx="1087.91" cy="694.38" r="2.92"/><path class="cls-18" d="M741.18,647.34l.08,5.9,2.63-3S742.43,647.43,741.18,647.34Z" transform="translate(360.94 41.18)"/><path class="cls-18" d="M715.66,632.78a23.76,23.76,0,0,1,4.61,1.44l1,.41-1,.44c-.77.35-1.56.68-2.37,1a16.84,16.84,0,0,1-2.48.71,16.72,16.72,0,0,1,2.18-1.39c.75-.41,1.51-.79,2.29-1.13v.85A23.33,23.33,0,0,1,715.66,632.78Z" transform="translate(360.94 41.18)"/><path class="cls-18" d="M705.16,640.25a22.46,22.46,0,0,1,4.61,1.44l1,.4-1,.45c-.77.35-1.56.68-2.37,1a15.7,15.7,0,0,1-2.48.71,16.65,16.65,0,0,1,2.18-1.38c.75-.42,1.52-.79,2.29-1.14v.85A23.28,23.28,0,0,1,705.16,640.25Z" transform="translate(360.94 41.18)"/><path class="cls-18" d="M702.83,630.92a22.65,22.65,0,0,1,4.61,1.44l1,.4-1,.45c-.78.35-1.56.68-2.37,1a16.84,16.84,0,0,1-2.48.71,17.85,17.85,0,0,1,2.18-1.39c.74-.41,1.51-.78,2.29-1.13v.85A23.28,23.28,0,0,1,702.83,630.92Z" transform="translate(360.94 41.18)"/><path class="cls-18" d="M694.37,650.23a23.11,23.11,0,0,1,4.6-1.5l1-.24-.54.93q-.65,1.11-1.38,2.16a17.06,17.06,0,0,1-1.62,2,17.48,17.48,0,0,1,1-2.4c.37-.77.78-1.51,1.22-2.25l.5.69A23.26,23.26,0,0,1,694.37,650.23Z" transform="translate(360.94 41.18)"/><path class="cls-18" d="M693,640.14a22.76,22.76,0,0,1,3.69-3.12l.87-.62-.15,1.07c-.12.84-.26,1.68-.45,2.51a16.79,16.79,0,0,1-.74,2.48,18.51,18.51,0,0,1,0-2.58c0-.85.15-1.7.27-2.55l.73.45A23.18,23.18,0,0,1,693,640.14Z" transform="translate(360.94 41.18)"/><path class="cls-18" d="M704.36,652.78a23.79,23.79,0,0,1,4.83-.28l1.07,0-.76.76c-.61.6-1.23,1.19-1.88,1.74a17.72,17.72,0,0,1-2.07,1.55,16,16,0,0,1,1.55-2.07c.55-.66,1.14-1.28,1.74-1.88l.31.8A23.09,23.09,0,0,1,704.36,652.78Z" transform="translate(360.94 41.18)"/><path class="cls-18" d="M712.86,645.61a23.05,23.05,0,0,1,4.81-.41h1.08L718,646c-.59.62-1.19,1.22-1.83,1.79a17.64,17.64,0,0,1-2,1.6,17.42,17.42,0,0,1,1.49-2.11c.53-.67,1.1-1.3,1.69-1.92l.33.78A22.38,22.38,0,0,1,712.86,645.61Z" transform="translate(360.94 41.18)"/><path class="cls-18" d="M714,654.25a23.48,23.48,0,0,1,4.61,1.43l1,.41-1,.45c-.78.35-1.56.68-2.37,1a17.33,17.33,0,0,1-2.49.71,18.65,18.65,0,0,1,2.18-1.39c.75-.41,1.52-.78,2.3-1.13v.85A23.28,23.28,0,0,1,714,654.25Z" transform="translate(360.94 41.18)"/><path class="cls-18" d="M699.56,655.41a24.07,24.07,0,0,1,4.62,1.44l1,.41-1,.44c-.78.35-1.57.68-2.38,1a16.84,16.84,0,0,1-2.48.71,17.42,17.42,0,0,1,2.18-1.39c.75-.41,1.52-.79,2.29-1.13l0,.85A23.42,23.42,0,0,1,699.56,655.41Z" transform="translate(360.94 41.18)"/><path class="cls-29" d="M538.89,666.53s149.65,1.49,167.79,0,18.14-46.39-29.47-49.39-86.09-3-120.18,19.46C541.16,647.07,538.89,666.53,538.89,666.53Z" transform="translate(360.94 41.18)"/><g class="cls-27"><path class="cls-28" d="M652.87,670.75s12-51.87,45.22-71.83" transform="translate(360.94 41.18)"/><path class="cls-28" d="M652.87,652.13a12.27,12.27,0,0,1-3.34-2.52,17.58,17.58,0,0,1-2.36-3.11,16.76,16.76,0,0,1-1.63-3.54,12.09,12.09,0,0,1-.65-4.13,12,12,0,0,1,3.34,2.51,17.7,17.7,0,0,1,4,6.66A12.3,12.3,0,0,1,652.87,652.13Z" transform="translate(360.94 41.18)"/><path class="cls-28" d="M658.19,638.83a18.58,18.58,0,0,1-3.46-4,29.75,29.75,0,0,1-2.4-4.48,29.4,29.4,0,0,1-1.6-4.83,18.55,18.55,0,0,1-.52-5.28,18.3,18.3,0,0,1,3.46,4,29.55,29.55,0,0,1,4,9.31A19,19,0,0,1,658.19,638.83Z" transform="translate(360.94 41.18)"/><path class="cls-28" d="M666.17,625.53a15.43,15.43,0,0,1-3.63-4,21.74,21.74,0,0,1-2.2-4.46,21.15,21.15,0,0,1-1.13-4.85,15,15,0,0,1,.31-5.36,14.93,14.93,0,0,1,3.63,4,21.25,21.25,0,0,1,2.2,4.46,21.8,21.8,0,0,1,1.12,4.85A15.21,15.21,0,0,1,666.17,625.53Z" transform="translate(360.94 41.18)"/><path class="cls-28" d="M675.48,610.89a13,13,0,0,1-3.32-3.7,17.81,17.81,0,0,1-1.88-4.16,17.61,17.61,0,0,1-.79-4.49,13.13,13.13,0,0,1,.67-4.94,13.35,13.35,0,0,1,3.33,3.71,18.25,18.25,0,0,1,2.65,8.65A13.23,13.23,0,0,1,675.48,610.89Z" transform="translate(360.94 41.18)"/><path class="cls-28" d="M688.78,601.58a9.17,9.17,0,0,1-3-2.72,10.88,10.88,0,0,1-2-6.65,9.38,9.38,0,0,1,1-3.93,9.23,9.23,0,0,1,3,2.73,10.29,10.29,0,0,1,1.54,3.16,10.63,10.63,0,0,1,.45,3.49A9.28,9.28,0,0,1,688.78,601.58Z" transform="translate(360.94 41.18)"/><path class="cls-28" d="M698.54,597.8a9.31,9.31,0,0,1,.45-4,10.82,10.82,0,0,1,4.19-5.53,9.31,9.31,0,0,1,3.77-1.49,9.17,9.17,0,0,1-.44,4,10.35,10.35,0,0,1-1.65,3.1,10.75,10.75,0,0,1-2.56,2.42A9.41,9.41,0,0,1,698.54,597.8Z" transform="translate(360.94 41.18)"/><path class="cls-28" d="M663.84,658.51a12.33,12.33,0,0,1,4.07-1,17.72,17.72,0,0,1,7.67,1.17,12.23,12.23,0,0,1,3.59,2.14,12,12,0,0,1-4.07,1,17.72,17.72,0,0,1-7.66-1.19A12.36,12.36,0,0,1,663.84,658.51Z" transform="translate(360.94 41.18)"/><path class="cls-28" d="M674.15,648.55a18.55,18.55,0,0,1,5.09-1.5,29.38,29.38,0,0,1,10.13.16,18.65,18.65,0,0,1,5,1.69,18.68,18.68,0,0,1-5.09,1.51,28.82,28.82,0,0,1-5.07.35,30,30,0,0,1-5.06-.53A18.62,18.62,0,0,1,674.15,648.55Z" transform="translate(360.94 41.18)"/><path class="cls-28" d="M683.44,636.13a15.19,15.19,0,0,1,4.85-2.3,21.49,21.49,0,0,1,9.87-.45,15.23,15.23,0,0,1,5,1.87,15,15,0,0,1-4.85,2.31,21.39,21.39,0,0,1-4.91.79,22,22,0,0,1-5-.35A15.27,15.27,0,0,1,683.44,636.13Z" transform="translate(360.94 41.18)"/><path class="cls-28" d="M693.47,622a13.34,13.34,0,0,1,4.32-2.48,18.28,18.28,0,0,1,4.45-1,17.85,17.85,0,0,1,4.55.16,13.09,13.09,0,0,1,4.7,1.68,13.4,13.4,0,0,1-4.32,2.49,18.17,18.17,0,0,1-9,.8A13.24,13.24,0,0,1,693.47,622Z" transform="translate(360.94 41.18)"/><path class="cls-28" d="M697.06,606.15a9.23,9.23,0,0,1,3.25-2.41,10.72,10.72,0,0,1,6.91-.67,9.16,9.16,0,0,1,3.66,1.74,9.17,9.17,0,0,1-3.26,2.42,10.8,10.8,0,0,1-6.91.66A9.34,9.34,0,0,1,697.06,606.15Z" transform="translate(360.94 41.18)"/></g><g class="cls-27"><path class="cls-28" d="M499.5,777.33s79.94-38.46,100.19-99.81" transform="translate(360.94 41.18)"/><path class="cls-28" d="M529.77,770.51a20.32,20.32,0,0,1,7-.45,29.59,29.59,0,0,1,12.28,4,20.16,20.16,0,0,1,5.31,4.51,20.1,20.1,0,0,1-6.95.46,28.67,28.67,0,0,1-6.36-1.35,29.15,29.15,0,0,1-5.91-2.71A20.35,20.35,0,0,1,529.77,770.51Z" transform="translate(360.94 41.18)"/><path class="cls-28" d="M549.44,757a31,31,0,0,1,8.78-1.07,49.38,49.38,0,0,1,16.6,3.07,30.57,30.57,0,0,1,7.81,4.15,30.34,30.34,0,0,1-8.78,1.08,48.17,48.17,0,0,1-8.43-.82,48.93,48.93,0,0,1-8.16-2.26A31.44,31.44,0,0,1,549.44,757Z" transform="translate(360.94 41.18)"/><path class="cls-28" d="M568.14,739.15a25.13,25.13,0,0,1,8.6-2.45,35.91,35.91,0,0,1,16.35,2,25,25,0,0,1,7.75,4.46,24.72,24.72,0,0,1-8.6,2.46,36.11,36.11,0,0,1-16.35-2A25.08,25.08,0,0,1,568.14,739.15Z" transform="translate(360.94 41.18)"/><path class="cls-28" d="M588.51,718.66a21.9,21.9,0,0,1,7.78-2.89,29.43,29.43,0,0,1,7.59-.37,29,29,0,0,1,7.44,1.52,21.83,21.83,0,0,1,7.25,4.05,21.78,21.78,0,0,1-7.79,2.9,28.91,28.91,0,0,1-7.58.36,29.32,29.32,0,0,1-7.44-1.53A22.06,22.06,0,0,1,588.51,718.66Z" transform="translate(360.94 41.18)"/><path class="cls-28" d="M598.78,693.63a15.63,15.63,0,0,1,6-3.07,18.22,18.22,0,0,1,5.84-.55,17.68,17.68,0,0,1,5.7,1.35,15.49,15.49,0,0,1,5.53,3.88,15.63,15.63,0,0,1-6,3.08,17.9,17.9,0,0,1-5.83.54,18.23,18.23,0,0,1-5.71-1.36A15.72,15.72,0,0,1,598.78,693.63Z" transform="translate(360.94 41.18)"/><path class="cls-28" d="M601.35,676.38a15.7,15.7,0,0,1,1.06-6.67,17.88,17.88,0,0,1,3-5,17.69,17.69,0,0,1,4.44-3.83,15.41,15.41,0,0,1,6.4-2.18,15.56,15.56,0,0,1-1,6.67,18.07,18.07,0,0,1-7.45,8.85A15.7,15.7,0,0,1,601.35,676.38Z" transform="translate(360.94 41.18)"/><path class="cls-28" d="M515.38,755a19.94,19.94,0,0,1-4.78-5.06,29.3,29.3,0,0,1-3-5.75,28.76,28.76,0,0,1-1.71-6.27,20,20,0,0,1,.08-7,20,20,0,0,1,4.79,5.06,28.46,28.46,0,0,1,3,5.75,29.4,29.4,0,0,1,1.7,6.28A20.14,20.14,0,0,1,515.38,755Z" transform="translate(360.94 41.18)"/><path class="cls-28" d="M527.79,734.61a30.81,30.81,0,0,1-4.57-7.57,48.33,48.33,0,0,1-2.71-8,47.66,47.66,0,0,1-1.29-8.37,30.64,30.64,0,0,1,.59-8.82,30.55,30.55,0,0,1,4.58,7.57,47.58,47.58,0,0,1,2.7,8,48.87,48.87,0,0,1,1.28,8.38A31,31,0,0,1,527.79,734.61Z" transform="translate(360.94 41.18)"/><path class="cls-28" d="M544.57,715a25.39,25.39,0,0,1-4.87-7.5,36.18,36.18,0,0,1-2.91-16.21,25,25,0,0,1,2-8.73,24.85,24.85,0,0,1,4.88,7.5A34.51,34.51,0,0,1,546,698a35.11,35.11,0,0,1,.5,8.28A25.16,25.16,0,0,1,544.57,715Z" transform="translate(360.94 41.18)"/><path class="cls-28" d="M563.9,693.48a22.11,22.11,0,0,1-4.43-7,29.28,29.28,0,0,1-2-7.35,28.76,28.76,0,0,1,0-7.59,21.63,21.63,0,0,1,2.46-7.93,21.7,21.7,0,0,1,4.44,7,28.84,28.84,0,0,1,1.94,7.35,29.64,29.64,0,0,1,0,7.59A21.93,21.93,0,0,1,563.9,693.48Z" transform="translate(360.94 41.18)"/><path class="cls-28" d="M588.33,681.85a15.61,15.61,0,0,1-4.18-5.31,18.14,18.14,0,0,1-1.46-11.48,15.6,15.6,0,0,1,2.74-6.17,15.5,15.5,0,0,1,4.19,5.3,17.58,17.58,0,0,1,1.66,5.62,17.84,17.84,0,0,1-.23,5.86A15.58,15.58,0,0,1,588.33,681.85Z" transform="translate(360.94 41.18)"/></g></g></svg>