<svg id="Calque_1" data-name="Calque 1" xmlns="http://www.w3.org/2000/svg" viewBox="0 0 1366 768"><defs><style>.cls-1{fill:#3c98fc;}.cls-2{fill:#f4807d;}.cls-3{fill:#fae34b;}.cls-4,.cls-5{fill:#fff;}.cls-10,.cls-11,.cls-12,.cls-4,.cls-5,.cls-6,.cls-7,.cls-8,.cls-9{stroke:#000;}.cls-11,.cls-12,.cls-4,.cls-5,.cls-6,.cls-7,.cls-8,.cls-9{stroke-linecap:round;stroke-linejoin:round;}.cls-10,.cls-4,.cls-9{stroke-width:5px;}.cls-5{stroke-width:6px;}.cls-10,.cls-11,.cls-12,.cls-6,.cls-7,.cls-9{fill:none;}.cls-6{stroke-width:5.31px;}.cls-7{stroke-width:5.13px;}.cls-11,.cls-8{stroke-width:2.5px;}.cls-10{stroke-miterlimit:10;}.cls-12{stroke-width:3.34px;}.cls-13{fill:#fc7870;}</style></defs><title>gagne</title><rect class="cls-1" width="1366" height="768"/><path class="cls-2" d="M447.56,311.44l-24.14,248.3H377.9q-.52-15.16-1.12-28.53t-1.64-25.61q-1-12.24-2.33-24t-2.93-24q-1.63-12.24-3.71-25.43T361.69,404q-3.27,19.31-9.14,57.85T338.41,558l-47.76,2.41-17.25-248,43.46-1q-.18,10.69-.17,23.28-.18,10.86-.18,24.91v55.44q0,12.93.09,25.44t.17,24.05q.09,11.55.43,21l23.63-150.19h39.83l18.79,143.12q.35-12.76.78-27t.78-28.71q.35-14.49.6-28.62t.6-27.08Q402.9,337,403.42,307Z"/><path class="cls-2" d="M543.22,519.53q-6.9-.35-13.8-.52t-13.79-.17q-11.38,0-22.76.43t-22.76,1.29l.34-37.07c2.64.34,5.29.6,7.93.78s5.29.37,7.93.6q1-26.73,2-53.2t.95-53q0-17.76-.52-35.09t-1-34.92c-3,0-6,.06-9.14.17s-6.26.29-9.48.52l.35-36q13.27.87,26.55,1.29t26.73.44h9.65q4.83,0,9.83-.35l-1,34.32c-2.65,0-5.26-.06-7.85-.18s-5.2-.17-7.84-.17q-2.41,31-3.45,61.65t-1,61.64q0,27.07,1,54c3.68,0,7.44,0,11.29-.17s7.73-.28,11.64-.52Z"/><path class="cls-2" d="M691.3,246.45q-2.25,34.67-3.45,68.72t-1.21,68.37q0,26.73.78,52.76t2.67,52.42l-34.83-1q-6.9-22.41-13.53-44.58t-13.2-44.05q-6.56-21.9-13.36-43.63t-14-43.28q.51,45,1.63,89.75t4.06,89.24L567,490.79q2.07-55,2.07-110.53,0-34.14-.69-67.59t-2.07-67.25l48.29,1q8.79,37.94,18.79,77.08t21.21,77.25q-1.2-39-3.53-78T646,246.11Z"/><path class="cls-2" d="M829.39,331.21q-2.24,34.65-3.45,68.71t-1.2,68.37q0,26.73.77,52.77t2.68,52.42l-34.84-1q-6.89-22.41-13.53-44.57t-13.19-44.06q-6.55-21.9-13.37-43.62t-14-43.28q.51,45,1.64,89.75t4,89.23l-39.83-.34q2.07-55,2.07-110.53,0-34.14-.69-67.6t-2.07-67.25l48.28,1q8.79,37.94,18.8,77.08t21.2,77.25q-1.2-39-3.53-78T784,330.86Z"/><path class="cls-2" d="M916.89,528.57q-5.34-.35-10.86-.52t-11-.17c-2.07,0-4.22.06-6.47.17s-4.45.18-6.63.18l-.69,61.56q14.13-.35,27.5-1.38t28.37-3.28v36q-9.66-.34-18.71-.52t-18-.17q-13.46,0-26.56.43t-27.07,1.29q1.54-32.07,2.5-63.54t.95-63.54q0-30.69-.78-61t-2.67-61q20.34,1.55,38.8,1.55,11.72,0,23.36-.6t24.92-1.64v39.66q-10.69-1.9-21.12-2.93t-20.78-1h-6.73q-1.73,21.56-2.32,42.94t-1,42.93c3,.24,6,.35,9.05.35h17.5c2.76,0,5.58-.11,8.45-.35Z"/><path class="cls-2" d="M1063.93,423.76a126.86,126.86,0,0,1-2.16,23.19,98.19,98.19,0,0,1-7,22.42,92,92,0,0,1-12.41,20.17,80.26,80.26,0,0,1-18.63,16.64,513.52,513.52,0,0,0,21.3,47.33,413.23,413.23,0,0,0,26,43.72l-43.11,2.41-29.31-83.29q.69,21,1.72,41.73t2.59,40.87H960.81q2.76-39.13,4.06-78.28t1.29-78.81q0-22.92-.35-45.78T964.44,350A93.88,93.88,0,0,1,983,346.33q9.4-.85,15.95-.86a82.3,82.3,0,0,1,11.3.95,59.77,59.77,0,0,1,13.88,3.88,65.1,65.1,0,0,1,14.4,8.28,53.28,53.28,0,0,1,12.76,14.05,78.68,78.68,0,0,1,9.13,21.21Q1063.93,406.35,1063.93,423.76Zm-65.7,64.66a32.85,32.85,0,0,0,10.61-5.09,42.63,42.63,0,0,0,8-7.67,48.08,48.08,0,0,0,5.77-9.14,74.94,74.94,0,0,0,3.88-9.66,95.85,95.85,0,0,0,4-24.48q0-.35-.09-4.23a81.35,81.35,0,0,0-1-9.74q-.86-5.85-2.5-12.76a66,66,0,0,0-4.74-13.36,43.56,43.56,0,0,0-7.93-11.47,26.69,26.69,0,0,0-11.73-7.07q-2.07,27.08-3.19,53.89t-1.12,54.06Z"/><path class="cls-3" d="M432.48,296.31,408.34,544.62H362.82q-.51-15.17-1.12-28.54t-1.64-25.6q-1-12.25-2.33-24t-2.93-24q-1.64-12.24-3.7-25.44t-4.49-28.19q-3.27,19.32-9.14,57.85T323.33,542.9l-47.76,2.41-17.24-248,43.45-1q-.18,10.69-.17,23.28-.18,10.86-.18,24.92V400q0,12.93.09,25.43t.17,24.06q.09,11.55.43,21l23.63-150.19h39.83l18.8,143.12q.33-12.75.77-27t.78-28.71q.35-14.49.6-28.63t.6-27.07q.69-30.18,1.21-60.18Z"/><path class="cls-3" d="M528.14,504.4q-6.9-.34-13.8-.51t-13.79-.18q-11.39,0-22.76.43T455,505.44l.34-37.08c2.64.35,5.29.61,7.93.78s5.29.38,7.94.6q1-26.72,2-53.19t.95-53q0-17.75-.52-35.09t-1-34.91q-4.49,0-9.13.17c-3.11.11-6.27.29-9.49.52l.35-36q13.28.85,26.55,1.29t26.73.43h9.66c3.21,0,6.49-.11,9.82-.34l-1,34.31c-2.65,0-5.26-.06-7.85-.17s-5.2-.17-7.84-.17q-2.42,31-3.45,61.64t-1,61.65q0,27.07,1,54,5.52,0,11.29-.17t11.64-.52Z"/><path class="cls-3" d="M676.22,231.33Q674,266,672.77,300t-1.21,68.37q0,26.73.78,52.77T675,473.6l-34.83-1q-6.9-22.41-13.53-44.57t-13.2-44.06q-6.56-21.9-13.36-43.62T586,297q.51,45,1.64,89.75T591.73,476l-39.84-.34q2.07-55,2.07-110.53,0-34.14-.69-67.6t-2.06-67.25l48.28,1q8.79,37.93,18.79,77.08t21.21,77.25q-1.2-39-3.53-78T630.87,231Z"/><path class="cls-3" d="M814.31,316.08q-2.23,34.67-3.44,68.72t-1.21,68.37q0,26.73.77,52.76t2.68,52.42l-34.83-1q-6.9-22.41-13.54-44.58t-13.19-44.05q-6.56-21.9-13.36-43.63t-14.06-43.28q.52,45,1.64,89.75t4.05,89.24L690,560.42q2.07-55,2.07-110.53,0-34.14-.69-67.59t-2.07-67.25l48.28,1q8.79,37.94,18.8,77.08t21.21,77.25q-1.22-39-3.54-78T769,315.74Z"/><path class="cls-3" d="M901.81,513.45c-3.56-.23-7.18-.41-10.86-.52s-7.36-.17-11-.17q-3.1,0-6.46.17c-2.24.11-4.46.17-6.64.17l-.69,61.56q14.13-.35,27.5-1.38T922,570v36q-9.66-.35-18.71-.51t-18-.18q-13.46,0-26.56.43t-27.07,1.3q1.56-32.07,2.5-63.54t1-63.55q0-30.69-.78-60.95t-2.67-61q20.34,1.56,38.8,1.55,11.72,0,23.36-.6t24.92-1.64v39.66q-10.69-1.89-21.12-2.93t-20.78-1h-6.73q-1.73,21.56-2.32,42.93t-1,42.94c3,.23,6,.34,9.05.34h17.5q4.14,0,8.45-.34Z"/><path class="cls-3" d="M1048.85,408.63a126.89,126.89,0,0,1-2.16,23.2,98.11,98.11,0,0,1-7,22.41,92.05,92.05,0,0,1-12.41,20.18,80.48,80.48,0,0,1-18.63,16.64,514.73,514.73,0,0,0,21.3,47.33,412.09,412.09,0,0,0,26,43.71l-43.11,2.42L983.5,501.23q.69,21,1.72,41.73t2.59,40.87H945.74q2.75-39.15,4-78.29t1.29-78.8q0-22.94-.34-45.78t-1.38-46.13a93.86,93.86,0,0,1,18.53-3.62q9.4-.85,16-.86a82.3,82.3,0,0,1,11.3.95,59.28,59.28,0,0,1,13.88,3.88,64.65,64.65,0,0,1,14.4,8.27,53.33,53.33,0,0,1,12.76,14.06,78.72,78.72,0,0,1,9.14,21.21Q1048.85,391.22,1048.85,408.63Zm-65.7,64.67a33.06,33.06,0,0,0,10.61-5.09,42.64,42.64,0,0,0,8-7.67,48.39,48.39,0,0,0,5.77-9.14,74.94,74.94,0,0,0,3.88-9.66,95.86,95.86,0,0,0,4-24.49c0-.22,0-1.63-.09-4.22a81.16,81.16,0,0,0-.95-9.74q-.86-5.87-2.5-12.76a65.91,65.91,0,0,0-4.74-13.37,43.34,43.34,0,0,0-7.93-11.46,26.6,26.6,0,0,0-11.73-7.07q-2.07,27.08-3.19,53.88t-1.12,54.06Z"/><path class="cls-4" d="M784.59,254.86C759,283.72,717,243.59,724.28,230.14s57.33-49.06,57.33-49.06Z"/><path class="cls-4" d="M1012.2,255.8c25.61,28.86,67.56-11.26,60.31-24.72S1015.18,182,1015.18,182Z"/><path class="cls-5" d="M962.43,307.08c27.27-12.47,120.5-96.74,4.48-172.69C921.94,104.94,840,119,807.5,146.9c-73.93,63.45-10.74,148.2,31.64,162.62C878.77,323,924,324.66,962.43,307.08Z"/><path class="cls-6" d="M842.42,129s54.87-4.91,47.81,91.77"/><path class="cls-7" d="M953,128s-52.69-3.79-45.91,90"/><path class="cls-8" d="M865.05,247.44c-3.49,12.16,54.28,14.24,67.54,1.6,6.88-6.57-24-33.9-34.22-34.14S868.14,236.64,865.05,247.44Z"/><path class="cls-9" d="M935,272.75c-11,30.43-58.25,34.87-71.4,1.94Z"/><line class="cls-10" x1="899.19" y1="257.85" x2="899.19" y2="274.16"/><path class="cls-11" d="M1001.57,163.56"/><path d="M933.81,201.4a63.3,63.3,0,0,0,17,3.4,36.79,36.79,0,0,0,16.16-2.56,33.71,33.71,0,0,0,7.11-4,40,40,0,0,0,3.22-2.62l1.66-1.48.89-.78,1-.72a15.19,15.19,0,0,1,4.36-2.32,15,15,0,0,1,4.77-.68,15.68,15.68,0,0,0,4.17-.34,13.63,13.63,0,0,0,3.87-1.9,11.07,11.07,0,0,1-3.32,3.17,15.16,15.16,0,0,1-4.44,1.51,13.7,13.7,0,0,0-3.8,1.28,14.1,14.1,0,0,0-3.13,2.32l-.72.69-.69.77-1.5,1.62a21.41,21.41,0,0,1-1.64,1.66c-.59.52-1.13,1.09-1.76,1.56a31.81,31.81,0,0,1-8.11,4.89,33.22,33.22,0,0,1-18.53,1.84,39.14,39.14,0,0,1-8.76-2.67A33.86,33.86,0,0,1,933.81,201.4Z"/><path d="M803.84,187.39a13.63,13.63,0,0,0,3.87,1.9,14.9,14.9,0,0,0,4.17.34,14.7,14.7,0,0,1,4.77.69,15.55,15.55,0,0,1,4.36,2.31l1,.73.89.78,1.66,1.47a34.76,34.76,0,0,0,3.22,2.62,33.28,33.28,0,0,0,7.11,4A37.1,37.1,0,0,0,851,204.8a64.08,64.08,0,0,0,17-3.4,33.44,33.44,0,0,1-7.74,4.63,38.86,38.86,0,0,1-8.77,2.67A33.13,33.13,0,0,1,833,206.86a32,32,0,0,1-8.1-4.89,32.61,32.61,0,0,1-3.41-3.23l-1.5-1.62-.68-.76-.73-.69a13.46,13.46,0,0,0-3.12-2.32,14.11,14.11,0,0,0-3.81-1.29,15.13,15.13,0,0,1-4.44-1.5A11.07,11.07,0,0,1,803.84,187.39Z"/><path d="M774.72,225a22.83,22.83,0,0,1-3.94,7.54,31.16,31.16,0,0,1-6.06,6,27.14,27.14,0,0,1-7.65,4,17.52,17.52,0,0,1-8.59.59c2.52-1.5,4.77-2.74,6.95-4.16s4.25-2.88,6.32-4.41l6.25-4.71C770.13,228.14,772.28,226.53,774.72,225Z"/><path d="M1023.46,225c2.44,1.57,4.6,3.18,6.73,4.78l6.24,4.71c2.08,1.53,4.17,3,6.33,4.41s4.43,2.66,7,4.16a17.57,17.57,0,0,1-8.6-.59,27.14,27.14,0,0,1-7.65-4,31.11,31.11,0,0,1-6-6A22.86,22.86,0,0,1,1023.46,225Z"/><path class="cls-12" d="M829.18,152.32"/><path d="M1019.08,84.42a68.06,68.06,0,0,0-22.59,9.85,86.06,86.06,0,0,0-9.63,7.58,107.4,107.4,0,0,0-8.5,8.83,114,114,0,0,0-7.47,9.73c-2.35,3.35-4.56,6.81-6.6,10.37-1,1.78-2,3.58-3,5.4s-1.9,3.64-2.8,5.49c-1.77,3.68-3.45,7.5-4.81,11.24l-4.06-2.34c4.48-4.9,9.07-9.56,13.81-14.14s9.67-8.94,14.79-13.1A128,128,0,0,1,994.47,112a54.58,54.58,0,0,1,9-4.24,20.72,20.72,0,0,1,9.74-1.36,21.43,21.43,0,0,0-9.33,2.37,62.8,62.8,0,0,0-8.34,4.9,148.33,148.33,0,0,0-15.1,12.23c-4.81,4.34-9.45,8.89-14,13.57s-9,9.42-13.2,14.29h0a2.39,2.39,0,0,1-4.06-2.35,126.51,126.51,0,0,1,4.89-11.83q1.35-2.88,2.83-5.7T960,128.3c2.16-3.65,4.48-7.22,7-10.66a116,116,0,0,1,8.12-9.85A88.61,88.61,0,0,1,984.44,99,73.43,73.43,0,0,1,995,91.85,57.89,57.89,0,0,1,1019.08,84.42Z"/><path d="M992.07,138.07c-3.46,1.16-6.9,2.23-10.34,3.28-1.71.55-3.43,1.05-5.14,1.61-.85.29-1.71.53-2.56.8l-2.55.85c-1.7.56-3.4,1.11-5.08,1.73-.84.3-1.69.58-2.53.89s-1.66.64-2.5,1c-3.33,1.3-6.61,2.69-9.89,4.3a41.06,41.06,0,0,1,9.09-6.09,74.81,74.81,0,0,1,10.13-4.15,92,92,0,0,1,10.55-2.77A69,69,0,0,1,992.07,138.07Z"/><path d="M762.36,95.56a50.23,50.23,0,0,1,25.5,2.53c2,.76,4,1.62,6,2.58s3.84,2.08,5.69,3.24a74.21,74.21,0,0,1,10.36,8,101.38,101.38,0,0,1,9,9.42,124.66,124.66,0,0,1,7.73,10.45c1.19,1.81,2.35,3.64,3.46,5.49s2.13,3.76,3.14,5.68a124,124,0,0,1,5.49,11.83,2.39,2.39,0,0,1-4.11,2.34l0,0c-4-5.14-8.28-10.19-12.72-15A195,195,0,0,0,808,128a92.2,92.2,0,0,0-15.65-11.79,35.4,35.4,0,0,0-9-3.71,15.48,15.48,0,0,0-9.62.55,15.44,15.44,0,0,1,9.82-1.63,33.64,33.64,0,0,1,9.69,3,86,86,0,0,1,16.91,11A185.23,185.23,0,0,1,825,139.11c4.66,4.83,9.12,9.77,13.41,15l-4.12,2.33a118.6,118.6,0,0,0-5.37-11.23c-1-1.84-2-3.65-3.1-5.45s-2.14-3.58-3.28-5.33a119.29,119.29,0,0,0-7.3-10.13,96.26,96.26,0,0,0-8.3-9.28,83.11,83.11,0,0,0-9.45-8,65.9,65.9,0,0,0-10.7-6.28A56.84,56.84,0,0,0,762.36,95.56Z"/><path d="M799.17,145.81a49.13,49.13,0,0,1,9.85-.17,67.24,67.24,0,0,1,9.76,1.47,55.81,55.81,0,0,1,9.4,3.15,33.59,33.59,0,0,1,8.33,5.33c-3-1.33-6-2.49-9-3.51-1.55-.42-3-1-4.61-1.34s-3.09-.82-4.65-1.2c-3.12-.74-6.27-1.35-9.44-2Z"/><path d="M842.42,236.24c-16.46,4.22-32.69,9.08-48.74,14.41-8,2.73-16,5.46-23.88,8.51s-15.73,6.13-23.46,9.51a406.54,406.54,0,0,0-45.13,22.78l-5.4,3.29c-1.82,1.07-3.54,2.28-5.33,3.4-3.59,2.22-7,4.71-10.48,7.1-6.87,4.92-13.46,10.22-19.91,15.77a184.62,184.62,0,0,1,18.41-17.72,243.12,243.12,0,0,1,20.65-15.15c3.61-2.29,7.19-4.64,10.91-6.73,1.86-1.06,3.68-2.17,5.56-3.19l5.63-3.07q11.37-5.92,23.1-11.07c7.86-3.33,15.79-6.48,23.82-9.36s16.16-5.47,24.36-7.78A343.82,343.82,0,0,1,842.42,236.24Z"/><path d="M826.28,253.93q-23.87,10.47-47.2,21.83c-7.76,3.83-15.51,7.65-23.16,11.69s-15.3,8-22.79,12.34-15,8.57-22.31,13.16-14.56,9.25-21.64,14.19a299.25,299.25,0,0,0-40,32.91C660,346.39,673,334.55,686.88,324L692.1,320l5.34-3.78c1.77-1.28,3.6-2.46,5.4-3.69s3.61-2.45,5.45-3.62c7.31-4.76,14.82-9.18,22.39-13.51q22.8-12.78,46.77-23.21A448.81,448.81,0,0,1,826.28,253.93Z"/><path d="M831.45,266c-8.92,5-17.62,10.31-26.21,15.8s-17,11.18-25.38,17C763.2,310.52,747,322.88,731.47,336s-30.53,26.87-44.87,41.31S658.75,407,645.71,422.75a399.76,399.76,0,0,1,38.06-48.15L689,369c1.74-1.89,3.58-3.67,5.37-5.51,3.57-3.68,7.27-7.23,10.94-10.8,7.47-7,15.09-13.9,22.94-20.5s15.92-12.94,24.15-19.05,16.65-12,25.27-17.51,17.37-10.88,26.31-15.89A306.71,306.71,0,0,1,831.45,266Z"/><path d="M952.53,236.24a344,344,0,0,1,49.9,10.7c8.2,2.31,16.3,5,24.35,7.78s16,6,23.82,9.36,15.53,7.12,23.1,11.07l5.63,3.07c1.88,1,3.71,2.13,5.56,3.19,3.73,2.09,7.31,4.44,10.91,6.73a241.54,241.54,0,0,1,20.65,15.15A184.62,184.62,0,0,1,1134.86,321c-6.45-5.55-13-10.85-19.91-15.77-3.48-2.39-6.89-4.88-10.48-7.1-1.79-1.12-3.51-2.33-5.33-3.4l-5.4-3.29a407.27,407.27,0,0,0-45.12-22.78c-7.73-3.38-15.57-6.52-23.47-9.51s-15.87-5.78-23.88-8.51C985.22,245.32,969,240.46,952.53,236.24Z"/><path d="M968.68,253.93a448.65,448.65,0,0,1,48.82,18.3q23.93,10.42,46.78,23.21c7.56,4.33,15.07,8.75,22.38,13.51,1.84,1.17,3.65,2.39,5.45,3.62s3.63,2.41,5.4,3.69l5.34,3.78,5.23,3.95c13.86,10.56,26.91,22.4,37.69,36.06a299.25,299.25,0,0,0-40-32.91q-10.61-7.41-21.64-14.19c-7.31-4.59-14.77-8.94-22.3-13.16s-15.13-8.35-22.8-12.34-15.4-7.86-23.16-11.69Q992.53,264.4,968.68,253.93Z"/><path d="M963.5,266c9.42,4,18.49,8.78,27.47,13.7s17.71,10.29,26.3,15.89,17,11.46,25.27,17.51,16.26,12.5,24.15,19.05,15.47,13.47,22.94,20.5c3.67,3.57,7.37,7.12,10.94,10.8,1.79,1.84,3.63,3.62,5.37,5.51l5.24,5.63a397.78,397.78,0,0,1,38.06,48.15c-13-15.75-26.58-31-40.88-45.46S1079.09,349,1063.48,336s-31.73-25.46-48.38-37.16c-8.35-5.83-16.79-11.54-25.38-17S972.42,271,963.5,266Z"/><circle class="cls-13" cx="971.07" cy="244.39" r="23.6"/><circle class="cls-13" cx="829.18" cy="244.39" r="23.6"/></svg>