<?xml version="1.0" encoding="utf-8"?>
<!-- Generator: Adobe Illustrator 22.1.0, SVG Export Plug-In . SVG Version: 6.00 Build 0)  -->
<svg version="1.1" id="Calque_1" xmlns="http://www.w3.org/2000/svg" xmlns:xlink="http://www.w3.org/1999/xlink" x="0px" y="0px"
	 viewBox="0 0 3000 1080" style="enable-background:new 0 0 3000 1080;" xml:space="preserve">
<style type="text/css">
	.st0{fill:#FE8781;}
	.st1{fill:#FFFFFF;stroke:#000000;stroke-width:1.9242;stroke-linecap:round;stroke-linejoin:round;}
	.st2{fill:#FFFFFF;stroke:#000000;stroke-width:2.3091;stroke-linecap:round;stroke-linejoin:round;}
	.st3{fill:none;stroke:#000000;stroke-width:2.0435;stroke-linecap:round;stroke-linejoin:round;}
	.st4{fill:none;stroke:#000000;stroke-width:1.9743;stroke-linecap:round;stroke-linejoin:round;}
	.st5{stroke:#000000;stroke-width:0.9621;stroke-linecap:round;stroke-linejoin:round;}
	.st6{fill:none;stroke:#000000;stroke-width:1.9242;stroke-linecap:round;stroke-linejoin:round;}
	.st7{fill:none;stroke:#000000;stroke-width:1.9242;stroke-miterlimit:10;}
	.st8{fill:none;stroke:#000000;stroke-width:0.9621;stroke-linecap:round;stroke-linejoin:round;}
	.st9{fill:none;stroke:#000000;stroke-width:1.2854;stroke-linecap:round;stroke-linejoin:round;}
	.st10{fill:#FC7870;}
</style>
<rect x="0" class="st0" width="3000" height="164"/>
<path class="st1" d="M1431.1,83.1c-9.8,11.1-26-4.3-23.2-9.5c2.8-5.2,22.1-18.9,22.1-18.9L1431.1,83.1z"/>
<path class="st1" d="M1518.7,83.4c9.9,11.1,26-4.3,23.2-9.5c-2.8-5.2-22.1-18.9-22.1-18.9L1518.7,83.4z"/>
<path class="st2" d="M1499.5,103.2c10.5-4.8,46.4-37.2,1.7-66.5c-17.3-11.3-48.8-5.9-61.3,4.8c-28.5,24.4-4.1,57,12.2,62.6
	C1467.4,109.3,1484.8,109.9,1499.5,103.2z"/>
<path class="st3" d="M1453.4,34.6c0,0,21.1-1.9,18.4,35.3"/>
<path class="st4" d="M1495.9,34.2c0,0-20.3-1.5-17.7,34.6"/>
<path class="st5" d="M1462.1,80.2c-1.3,4.7,20.9,5.5,26,0.6c2.6-2.5-9.2-13-13.2-13.1C1471,67.6,1463.3,76.1,1462.1,80.2z"/>
<path class="st6" d="M1489,90c-4.2,11.7-22.4,13.4-27.5,0.7L1489,90z"/>
<line class="st7" x1="1475.2" y1="84.2" x2="1475.2" y2="90.5"/>
<path class="st8" d="M1514.6,47.9"/>
<path d="M1488.5,62.5c2.1,0.7,4.3,1.2,6.5,1.3c2.1,0.1,4.2-0.2,6.2-1c1-0.4,1.9-0.9,2.7-1.5c0.4-0.3,0.8-0.7,1.2-1l0.6-0.6l0.3-0.3
	l0.4-0.3c0.5-0.4,1.1-0.7,1.7-0.9c0.6-0.2,1.2-0.3,1.8-0.3c0.5,0,1.1,0,1.6-0.1c0.5-0.2,1-0.4,1.5-0.7c-0.3,0.5-0.8,0.9-1.3,1.2
	c-0.5,0.3-1.1,0.5-1.7,0.6c-0.5,0.1-1,0.3-1.5,0.5c-0.4,0.2-0.8,0.5-1.2,0.9l-0.3,0.3l-0.3,0.3l-0.6,0.6c-0.2,0.2-0.4,0.4-0.6,0.6
	c-0.2,0.2-0.4,0.4-0.7,0.6c-0.9,0.8-2,1.4-3.1,1.9c-2.3,0.9-4.7,1.2-7.1,0.7c-1.2-0.2-2.3-0.6-3.4-1
	C1490.5,63.8,1489.4,63.2,1488.5,62.5z"/>
<path d="M1438.5,57.1c0.5,0.3,1,0.6,1.5,0.7c0.5,0.1,1.1,0.2,1.6,0.1c0.6,0,1.2,0.1,1.8,0.3c0.6,0.2,1.2,0.5,1.7,0.9l0.4,0.3
	l0.3,0.3l0.6,0.6c0.4,0.4,0.8,0.7,1.2,1c0.8,0.6,1.8,1.1,2.7,1.5c2,0.8,4.1,1.1,6.2,1c2.2-0.1,4.4-0.6,6.5-1.3
	c-0.9,0.7-1.9,1.3-3,1.8c-1.1,0.5-2.2,0.8-3.4,1c-2.4,0.4-4.9,0.2-7.1-0.7c-1.1-0.5-2.2-1.1-3.1-1.9c-0.5-0.4-0.9-0.8-1.3-1.2
	l-0.6-0.6l-0.3-0.3l-0.3-0.3c-0.4-0.4-0.8-0.7-1.2-0.9c-0.5-0.2-1-0.4-1.5-0.5c-0.6-0.1-1.2-0.3-1.7-0.6
	C1439.3,58,1438.9,57.6,1438.5,57.1z"/>
<path d="M1427.3,71.6c-0.3,1.1-0.8,2-1.5,2.9c-0.7,0.9-1.5,1.6-2.3,2.3c-0.9,0.7-1.9,1.2-2.9,1.5c-1.1,0.3-2.2,0.4-3.3,0.2
	c1-0.6,1.8-1.1,2.7-1.6c0.8-0.5,1.6-1.1,2.4-1.7l2.4-1.8C1425.5,72.8,1426.4,72.2,1427.3,71.6z"/>
<path d="M1523,71.6c0.9,0.6,1.8,1.2,2.6,1.8l2.4,1.8c0.8,0.6,1.6,1.2,2.4,1.7c0.8,0.5,1.7,1,2.7,1.6c-1.1,0.2-2.2,0.1-3.3-0.2
	c-1.1-0.4-2.1-0.9-2.9-1.5c-0.9-0.7-1.6-1.4-2.3-2.3C1523.9,73.6,1523.4,72.6,1523,71.6z"/>
<path class="st9" d="M1448.3,43.6"/>
<path d="M1521.3,17.5c-3.1,0.7-6.1,2-8.7,3.8c-1.3,0.9-2.5,1.9-3.7,2.9c-1.2,1.1-2.2,2.2-3.3,3.4c-1,1.2-2,2.4-2.9,3.7
	c-0.9,1.3-1.8,2.6-2.5,4c-0.4,0.7-0.8,1.4-1.2,2.1c-0.4,0.7-0.7,1.4-1.1,2.1c-0.7,1.4-1.3,2.9-1.9,4.3l-1.6-0.9
	c1.7-1.9,3.5-3.7,5.3-5.4c1.8-1.8,3.7-3.4,5.7-5c2-1.6,4.1-3.1,6.3-4.4c1.1-0.6,2.3-1.2,3.5-1.6c1.2-0.5,2.5-0.7,3.7-0.5
	c-1.3,0-2.5,0.3-3.6,0.9c-1.1,0.5-2.2,1.2-3.2,1.9c-2,1.4-4,3-5.8,4.7c-1.9,1.7-3.6,3.4-5.4,5.2c-1.8,1.8-3.5,3.6-5.1,5.5l0,0
	c-0.3,0.4-0.9,0.4-1.3,0.1c-0.3-0.2-0.4-0.6-0.3-1c0.6-1.5,1.2-3.1,1.9-4.6c0.3-0.7,0.7-1.5,1.1-2.2c0.4-0.7,0.8-1.4,1.2-2.1
	c0.8-1.4,1.7-2.8,2.7-4.1c1-1.3,2-2.6,3.1-3.8c1.1-1.2,2.3-2.3,3.6-3.4c1.3-1,2.6-2,4.1-2.8C1514.9,18.7,1518.1,17.7,1521.3,17.5z"
	/>
<path d="M1511,38.1c-1.3,0.4-2.7,0.9-4,1.3c-0.7,0.2-1.3,0.4-2,0.6c-0.3,0.1-0.7,0.2-1,0.3l-1,0.3c-0.7,0.2-1.3,0.4-2,0.7
	c-0.3,0.1-0.7,0.2-1,0.3c-0.3,0.1-0.6,0.2-1,0.4c-1.3,0.5-2.5,1-3.8,1.7c1.1-0.9,2.2-1.7,3.5-2.3c1.3-0.6,2.6-1.2,3.9-1.6
	c1.3-0.4,2.7-0.8,4.1-1.1C1508.2,38.4,1509.6,38.2,1511,38.1z"/>
<path d="M1422.6,21.8c3.3-0.5,6.7-0.2,9.8,1c0.8,0.3,1.5,0.6,2.3,1c0.8,0.4,1.5,0.8,2.2,1.2c1.4,0.9,2.8,1.9,4,3.1
	c1.2,1.1,2.4,2.3,3.5,3.6c1.1,1.3,2.1,2.6,3,4c0.5,0.7,0.9,1.4,1.3,2.1c0.4,0.7,0.8,1.4,1.2,2.2c0.8,1.5,1.5,3,2.1,4.6
	c0.2,0.5,0,1-0.5,1.2c-0.4,0.1-0.8,0-1.1-0.3l0,0c-1.5-2-3.2-3.9-4.9-5.8c-1.7-1.9-3.5-3.7-5.3-5.4c-1.8-1.7-3.9-3.2-6-4.5
	c-1.1-0.6-2.2-1.1-3.5-1.4c-1.2-0.3-2.5-0.3-3.7,0.2c1.2-0.6,2.5-0.8,3.8-0.6c1.3,0.2,2.6,0.6,3.7,1.2c2.3,1.2,4.5,2.6,6.5,4.2
	c2,1.7,3.9,3.4,5.7,5.3c1.8,1.9,3.5,3.8,5.2,5.8l-1.6,0.9c-0.6-1.5-1.3-2.9-2.1-4.3c-0.4-0.7-0.8-1.4-1.2-2.1
	c-0.4-0.7-0.8-1.4-1.3-2.1c-0.9-1.3-1.8-2.6-2.8-3.9c-1-1.3-2.1-2.5-3.2-3.6c-1.1-1.1-2.3-2.1-3.6-3.1c-1.3-0.9-2.7-1.7-4.1-2.4
	C1429,22.4,1425.8,21.7,1422.6,21.8z"/>
<path d="M1436.7,41.1c1.3-0.1,2.5-0.2,3.8-0.1c1.3,0.1,2.5,0.3,3.8,0.6c1.2,0.3,2.5,0.7,3.6,1.2c1.2,0.5,2.2,1.2,3.2,2.1
	c-1.2-0.5-2.3-1-3.5-1.4c-0.6-0.2-1.2-0.4-1.8-0.5c-0.6-0.1-1.2-0.3-1.8-0.5c-1.2-0.3-2.4-0.5-3.6-0.8L1436.7,41.1z"/>
<path d="M1453.4,75.9c-6.3,1.6-12.6,3.5-18.8,5.5c-3.1,1.1-6.2,2.1-9.2,3.3s-6.1,2.4-9,3.7c-6,2.6-11.8,5.5-17.4,8.8l-2.1,1.3
	c-0.7,0.4-1.4,0.9-2.1,1.3c-1.4,0.9-2.7,1.8-4,2.7c-2.6,1.9-5.2,3.9-7.7,6.1c2.2-2.4,4.6-4.7,7.1-6.8c2.5-2.1,5.2-4,7.9-5.8
	c1.4-0.9,2.8-1.8,4.2-2.6c0.7-0.4,1.4-0.8,2.1-1.2l2.2-1.2c2.9-1.5,5.9-2.9,8.9-4.3c3-1.3,6.1-2.5,9.2-3.6c3.1-1.1,6.2-2.1,9.4-3
	C1440.5,78.2,1446.9,76.8,1453.4,75.9z"/>
<path d="M1447.2,82.7c-6.1,2.7-12.2,5.5-18.2,8.4c-3,1.5-6,2.9-8.9,4.5c-2.9,1.6-5.9,3.1-8.8,4.7c-2.9,1.7-5.8,3.3-8.6,5.1
	s-5.6,3.6-8.3,5.5c-5.5,3.8-10.6,8-15.4,12.7c4.2-5.3,9.2-9.8,14.5-13.9l2-1.5l2.1-1.5c0.7-0.5,1.4-0.9,2.1-1.4s1.4-0.9,2.1-1.4
	c2.8-1.8,5.7-3.5,8.6-5.2c5.8-3.3,11.8-6.3,18-8.9C1434.5,87,1440.8,84.7,1447.2,82.7z"/>
<path d="M1449.1,87.4c-3.4,1.9-6.8,4-10.1,6.1s-6.5,4.3-9.8,6.5c-6.4,4.5-12.6,9.3-18.6,14.3s-11.7,10.3-17.3,15.9
	c-5.5,5.6-10.7,11.4-15.7,17.5c4.4-6.5,9.3-12.7,14.6-18.5l2-2.2c0.7-0.7,1.4-1.4,2.1-2.1c1.4-1.4,2.8-2.8,4.2-4.2
	c2.9-2.7,5.8-5.3,8.8-7.9c3-2.5,6.1-5,9.3-7.3c3.2-2.4,6.4-4.6,9.7-6.7c3.3-2.1,6.7-4.2,10.1-6.1C1442,90.7,1445.5,88.9,1449.1,87.4
	z"/>
<path d="M1495.7,75.9c6.5,0.9,12.9,2.3,19.2,4.1c3.2,0.9,6.3,1.9,9.4,3c3.1,1.1,6.2,2.3,9.2,3.6c3,1.3,6,2.7,8.9,4.3l2.2,1.2
	c0.7,0.4,1.4,0.8,2.1,1.2c1.4,0.8,2.8,1.7,4.2,2.6c2.8,1.8,5.4,3.7,7.9,5.8c2.5,2.1,4.9,4.4,7.1,6.8c-2.5-2.1-5-4.2-7.7-6.1
	c-1.3-0.9-2.7-1.9-4-2.7c-0.7-0.4-1.4-0.9-2.1-1.3l-2.1-1.3c-5.6-3.3-11.4-6.2-17.4-8.8c-3-1.3-6-2.5-9-3.7s-6.1-2.2-9.2-3.3
	C1508.3,79.4,1502.1,77.5,1495.7,75.9z"/>
<path d="M1502,82.7c6.4,2,12.7,4.3,18.8,7c6.1,2.7,12.1,5.7,18,8.9c2.9,1.7,5.8,3.4,8.6,5.2c0.7,0.5,1.4,0.9,2.1,1.4
	c0.7,0.5,1.4,0.9,2.1,1.4l2.1,1.5l2,1.5c5.3,4.1,10.4,8.6,14.5,13.9c-4.8-4.7-9.9-8.9-15.4-12.7c-2.7-1.9-5.5-3.7-8.3-5.5
	c-2.8-1.8-5.7-3.4-8.6-5.1c-2.9-1.6-5.8-3.2-8.8-4.7s-5.9-3-8.9-4.5C1514.1,88.2,1508.1,85.4,1502,82.7z"/>
<path d="M1500,87.4c3.6,1.5,7.1,3.4,10.6,5.3c3.5,1.9,6.8,4,10.1,6.1c3.3,2.2,6.5,4.4,9.7,6.7c3.2,2.3,6.3,4.8,9.3,7.3
	s6,5.2,8.8,7.9c1.4,1.4,2.8,2.7,4.2,4.2c0.7,0.7,1.4,1.4,2.1,2.1l2,2.2c5.4,5.8,10.2,12,14.6,18.5c-5-6.1-10.2-11.9-15.7-17.5
	c-5.5-5.6-11.3-10.9-17.3-15.9s-12.2-9.8-18.6-14.3c-3.2-2.2-6.5-4.4-9.8-6.5C1506.7,91.4,1503.4,89.3,1500,87.4z"/>
<circle class="st10" cx="1502.9" cy="79" r="9.1"/>
<circle class="st10" cx="1448.3" cy="79" r="9.1"/>
</svg>
