<?xml version="1.0" encoding="utf-8"?>
<!-- Generator: Adobe Illustrator 22.1.0, SVG Export Plug-In . SVG Version: 6.00 Build 0)  -->
<svg version="1.1" id="Calque_1" xmlns="http://www.w3.org/2000/svg" xmlns:xlink="http://www.w3.org/1999/xlink" x="0px" y="0px"
	 viewBox="0 0 841.9 595.3" style="enable-background:new 0 0 841.9 595.3;" xml:space="preserve">
<style type="text/css">
	.st0{fill:#FFFFFF;}
	.st1{fill:#3C98FC;}
	.st2{fill:#F4807D;}
</style>
<g>
	<path d="M435.2,527.2c-4,2.1-7.8,4.2-11.7,6.2c-18.9,9.4-38.9,15.6-59.8,18.8c-15.4,2.4-31,3.2-46.6,2.3
		c-38.9-2.4-74.9-13.5-107.3-35.7c-3.2-2.2-6.3-4.6-9.4-7c-1.1-0.9-2.1-1.1-3.4-0.5c-9.3,3.7-18.8,6.5-28.7,8.3
		c-26.6,4.9-52.1,1.6-76.7-9.6c-19-8.7-35.6-20.6-48.8-37c-13-16.1-21.1-34.5-25.4-54.6c-1-4.6-1.7-9.3-2.5-13.9
		c-0.2-1.1-0.3-2.2-0.3-3.3c0.1-7.5,0.1-15,0.3-22.5c0.1-2.8,0.9-5.5,1.5-8.2c2.5-11.6,5.8-22.9,11.1-33.6
		c18-35.9,46.7-58.7,85.4-68.8c15.5-4.1,31.3-5,47.3-3.5c0.8,0.1,1.6,0.1,2.6,0.1c0.3-0.8,0.6-1.6,0.8-2.4
		c6.5-19.5,15.9-37.5,29-53.4c17.6-21.5,39.7-36.8,65.3-47.2c20.8-8.5,42.4-12.2,64.8-11.4c14.8,0.5,29.4,3.1,43.6,7.2
		c0.8,0.2,1.5,0.4,2.5,0.7c0.4-0.8,0.8-1.5,1.2-2.3c8.3-16.6,18.1-32.1,30.1-46.3c26.2-31,59.2-50.9,98.7-60.1
		c14.1-3.3,28.4-5,43-4.8c6.9,0.1,13.7,1.2,20.4,2.5c22.5,4.3,43.8,12,63.8,23.3c36.3,20.4,62.4,50,79.1,88
		c6.5,14.7,11.2,29.9,14.7,45.5c1.3,5.6,0.4,4.8,6,6.1c21.8,5,41.4,14.4,58.3,29.2c14.2,12.4,25.1,27.4,33.6,44.2
		c8.2,16.2,14,33.3,16.6,51.3c5.8,40.1-1.1,77.8-22.4,112.5c-8.8,14.3-19.9,26.8-33.4,36.9c-12.8,9.5-27.1,15.4-42.9,18
		c-13.8,2.3-27.7,2.2-41.6,1.6c-12.6-0.5-25.2-1-37.8-1.6c-1.7-0.1-2.8,0.5-3.9,1.7c-5.9,6.5-11.6,13.3-17.9,19.3
		c-21.9,21.1-47.8,34.5-77.9,39.3c-44.3,7-83.7-4.5-118.3-32.7c-0.8-0.7-1.6-1.3-2.4-2C435.6,527.4,435.4,527.4,435.2,527.2z
		 M176.7,286c-3.9-0.5-7.5-0.9-11.1-1.5c-16.7-2.4-33.3-1.9-49.6,2.6c-32.2,8.9-56.2,28.1-71.2,58.1c-4.7,9.5-7.6,19.6-9.8,30
		c-0.4,1.9-0.9,3.9-0.9,5.9c-0.2,6.2-0.2,12.5-0.2,18.7c0,1.3,0,2.6,0.3,3.8c0.9,4.7,1.7,9.4,2.8,14.1c4.2,17.5,11.7,33.2,23.7,46.7
		c11.6,13,25.7,22.4,41.6,29.3c19.5,8.4,39.8,10.8,60.7,7.3c9.6-1.6,18.8-4.4,27.8-7.9c1.9-0.7,3.9-1.4,6-1.7
		c5.2-0.9,9.7,0.8,13.9,3.9c4.9,3.7,9.8,7.5,14.9,10.8c28.7,18.4,60.4,27.5,94.3,29.2c13.8,0.7,27.6,0,41.3-2.2
		c22.3-3.6,43.4-10.6,63-21.9c1.5-0.9,3.1-1.7,4.7-2.4c5.6-2.3,10.9-1.8,16,1.4c1.5,0.9,2.8,2.1,4.2,3.2c3.5,2.7,6.9,5.7,10.6,8.2
		c29.8,20.4,62.5,27.7,98,20.8c26-5.1,48.2-17.5,66.6-36.5c6.4-6.6,12.4-13.5,18.5-20.5c2.6-3,5.6-4.2,9.5-3.8
		c6.4,0.6,12.7,1.1,19.1,1.5c8.7,0.5,17.4,0.8,26.1,1.2c10.9,0.5,21.9,0.4,32.8-1.1c13.7-1.9,26.2-6.8,37.3-15.2
		c11.9-9.1,21.6-20.2,29.2-33c17.5-29.3,23.2-61,19-94.7c-2.5-20.1-9.3-38.9-19.5-56.4c-16-27.5-39.2-45.9-70.1-54.1
		c-3.4-0.9-6.8-1.6-10.2-2.7c-6.6-2.1-11.1-6.5-13.2-13.1c-0.5-1.6-1-3.2-1.3-4.8c-3.2-14.5-7.5-28.7-13.5-42.4
		c-14.6-33.6-37.3-60-69.1-78.4c-18.5-10.8-38.3-18.2-59.4-22.2c-6.4-1.2-12.9-2.4-19.5-2.4c-13,0-25.8,1.7-38.4,4.8
		c-31.9,7.7-59.2,23.4-81.5,47.5c-13.8,15-24.7,31.9-33.6,50.2c-2.4,4.8-5,9.4-7.6,14.1c-0.2,0.3-0.5,0.6-0.8,1
		c-1.9-0.7-3.8-1.3-5.7-1.9c-16.6-5.8-33.6-9.5-51.3-10c-19.2-0.6-37.7,2.7-55.5,9.9c-23.3,9.4-43.4,23.4-59.2,43.1
		c-12.2,15.2-20.5,32.5-26.1,51.1C179,277.5,177.9,281.6,176.7,286z"/>
	<path class="st0" d="M176.7,286c1.2-4.3,2.3-8.4,3.5-12.5c5.6-18.6,13.9-35.8,26.1-51.1c15.8-19.8,35.8-33.7,59.2-43.1
		c17.8-7.2,36.3-10.5,55.5-9.9c17.6,0.5,34.7,4.2,51.3,10c1.9,0.7,3.8,1.3,5.7,1.9c0.3-0.4,0.6-0.7,0.8-1c2.5-4.7,5.2-9.3,7.6-14.1
		c9-18.2,19.8-35.2,33.6-50.2c22.3-24.2,49.6-39.8,81.5-47.5c12.6-3,25.4-4.7,38.4-4.8c6.6,0,13,1.2,19.5,2.4
		c21,4.1,40.8,11.5,59.4,22.2c31.8,18.4,54.5,44.9,69.1,78.4c5.9,13.7,10.3,27.8,13.5,42.4c0.4,1.6,0.8,3.3,1.3,4.8
		c2.2,6.6,6.6,11,13.2,13.1c3.3,1.1,6.8,1.8,10.2,2.7c31,8.2,54.1,26.6,70.1,54.1c10.2,17.5,17,36.3,19.5,56.4
		c4.2,33.6-1.6,65.4-19,94.7c-7.6,12.8-17.3,23.9-29.2,33c-11.1,8.4-23.6,13.2-37.3,15.2c-10.9,1.5-21.8,1.6-32.8,1.1
		c-8.7-0.4-17.4-0.7-26.1-1.2c-6.4-0.4-12.7-0.9-19.1-1.5c-3.9-0.4-6.9,0.9-9.5,3.8c-6.1,6.9-12.1,13.9-18.5,20.5
		c-18.4,19-40.6,31.4-66.6,36.5c-35.5,7-68.2-0.3-98-20.8c-3.7-2.5-7.1-5.5-10.6-8.2c-1.4-1.1-2.7-2.2-4.2-3.2
		c-5.1-3.2-10.5-3.7-16-1.4c-1.6,0.7-3.2,1.5-4.7,2.4c-19.6,11.3-40.7,18.3-63,21.9c-13.7,2.2-27.5,2.9-41.3,2.2
		c-33.9-1.7-65.6-10.8-94.3-29.2c-5.2-3.3-10-7.1-14.9-10.8c-4.1-3.2-8.7-4.8-13.9-3.9c-2,0.3-4,1-6,1.7c-9,3.5-18.2,6.3-27.8,7.9
		c-21,3.5-41.2,1-60.7-7.3c-15.9-6.8-30-16.2-41.6-29.3c-12-13.5-19.5-29.3-23.7-46.7c-1.1-4.7-1.9-9.4-2.8-14.1
		c-0.2-1.2-0.3-2.5-0.3-3.8c0-6.2,0-12.5,0.2-18.7c0.1-2,0.5-3.9,0.9-5.9c2.2-10.3,5-20.5,9.8-30c15-30.1,38.9-49.3,71.2-58.1
		c16.3-4.5,32.9-5,49.6-2.6C169.2,285,172.8,285.5,176.7,286z"/>
</g>
<g>
	<path class="st1" d="M322.2,317.5c0,4.4-0.4,8.9-1.2,13.3c-0.8,4.5-2.2,8.7-4,12.9c-1.8,4.1-4.2,8-7.1,11.6
		c-2.9,3.6-6.5,6.8-10.7,9.5c3.7,9.4,7.8,18.5,12.2,27.2c4.5,8.7,9.4,17,14.9,25.1l-24.7,1.4l-16.8-47.8c0.3,8.1,0.6,16,1,24
		c0.4,7.9,0.9,15.7,1.5,23.5H263c1.1-15,1.8-30,2.3-44.9c0.5-15,0.7-30.1,0.7-45.2c0-8.8-0.1-17.5-0.2-26.3
		c-0.1-8.7-0.4-17.6-0.8-26.5c3.5-1.1,7-1.7,10.6-2.1c3.6-0.3,6.6-0.5,9.2-0.5c1.8,0,3.9,0.2,6.5,0.5c2.5,0.4,5.2,1.1,8,2.2
		c2.8,1.1,5.5,2.7,8.3,4.8c2.7,2,5.2,4.7,7.3,8.1c2.1,3.3,3.9,7.4,5.2,12.2C321.5,305.1,322.2,310.9,322.2,317.5z M284.5,354.6
		c2.3-0.7,4.3-1.6,6.1-2.9c1.7-1.3,3.3-2.8,4.6-4.4c1.3-1.6,2.4-3.4,3.3-5.2c0.9-1.8,1.6-3.7,2.2-5.5c1.3-4.3,2.1-9,2.3-14.1
		c0-0.1,0-0.9,0-2.4c0-1.5-0.2-3.3-0.5-5.6c-0.3-2.2-0.8-4.7-1.4-7.3c-0.6-2.6-1.5-5.2-2.7-7.7c-1.2-2.5-2.7-4.7-4.6-6.6
		c-1.8-1.9-4.1-3.3-6.7-4.1c-0.8,10.4-1.4,20.7-1.8,30.9c-0.4,10.3-0.6,20.6-0.6,31V354.6z"/>
	<path class="st1" d="M373,364.3c-2-0.1-4.1-0.2-6.2-0.3c-2.1-0.1-4.2-0.1-6.3-0.1c-1.2,0-2.4,0-3.7,0.1c-1.3,0.1-2.6,0.1-3.8,0.1
		l-0.4,35.3c5.4-0.1,10.7-0.4,15.8-0.8c5.1-0.4,10.5-1,16.3-1.9v20.7c-3.7-0.1-7.3-0.2-10.7-0.3c-3.5-0.1-6.9-0.1-10.3-0.1
		c-5.1,0-10.2,0.1-15.2,0.2c-5,0.2-10.2,0.4-15.5,0.7c0.6-12.3,1.1-24.4,1.4-36.5c0.4-12,0.5-24.2,0.5-36.5c0-11.7-0.1-23.4-0.4-35
		c-0.3-11.6-0.8-23.2-1.5-35c7.8,0.6,15.2,0.9,22.3,0.9c4.5,0,9-0.1,13.4-0.3c4.5-0.2,9.2-0.5,14.3-0.9v22.8
		c-4.1-0.7-8.1-1.3-12.1-1.7c-4-0.4-8-0.6-11.9-0.6h-3.9c-0.7,8.2-1.1,16.5-1.3,24.6c-0.2,8.2-0.4,16.4-0.5,24.6
		c1.7,0.1,3.4,0.2,5.2,0.2c1.7,0,3.5,0,5.4,0c1.5,0,3.1,0,4.7,0s3.2-0.1,4.8-0.2V364.3z"/>
	<path class="st1" d="M442.9,295.8c-2.1-0.1-4.5-0.2-7.3-0.3c-2.7-0.1-5.7-0.1-8.8-0.1c-0.5,6.1-0.8,12.5-1.1,19.1
		c-0.3,6.6-0.5,13.2-0.7,20c-0.2,6.8-0.3,13.6-0.4,20.4c-0.1,6.8-0.1,13.6-0.1,20.2c0,7.6,0,14.9,0.1,22c0.1,7.1,0.3,13.9,0.6,20.5
		h-21.1c0.6-11.2,1.1-23.2,1.4-35.8c0.3-12.7,0.5-25.4,0.5-38.3c0-8.4-0.1-16.6-0.3-24.5c-0.2-8-0.4-15.8-0.6-23.4
		c-3.2,0-6.2,0-9,0.1c-2.8,0.1-5.4,0.2-7.6,0.3l0.2-20.7c2.4,0.2,5,0.3,8,0.4s6.1,0.2,9.4,0.2c3.3,0.1,6.6,0.1,10,0.1
		c3.4,0,6.8,0,10.1,0c3.3,0,6.4,0,9.4,0c2.9,0,5.6-0.1,7.9-0.2L442.9,295.8z"/>
	<path class="st1" d="M507.4,274c1.5,13.5,2.6,27.1,3.2,40.8c0.6,13.8,0.9,28.1,0.9,43.1c0,5.1-0.2,10.1-0.6,15.1
		c-0.4,5-1.2,9.7-2.2,14.3c-1,4.5-2.4,8.7-4.1,12.6s-3.8,7.2-6.3,10c-2.5,2.8-5.5,5-8.9,6.6c-3.4,1.6-7.4,2.4-11.8,2.4
		c-4,0-7.4-0.7-10.4-2.2c-3-1.5-5.5-3.5-7.6-6.1c-2.1-2.6-3.9-5.7-5.3-9.2c-1.4-3.5-2.5-7.4-3.3-11.5c-0.8-4.1-1.4-8.4-1.7-12.9
		c-0.3-4.5-0.5-9-0.5-13.6c0-13.7,0.6-27.6,1.7-41.7c1.1-14.1,2.4-28.7,4-43.8l20.7,0.4c-1.2,14.2-2.3,28.5-3.3,43
		c-1,14.5-1.5,29.3-1.5,44.6c0,4.4,0.1,8.6,0.4,12.6c0.3,4,0.7,7.4,1.4,10.4c0.7,3,1.5,5.4,2.5,7.2c1,1.8,2.3,2.7,3.8,2.7
		c1.8,0,3.4-1.4,4.9-4.2c1.5-2.8,2.7-6.5,3.8-11.1c1-4.6,1.8-9.8,2.4-15.7c0.6-5.9,0.9-11.8,0.9-17.9c0-5.8,0-11.6-0.1-17.5
		c-0.1-5.9-0.2-11.8-0.4-17.9c-0.2-6-0.5-12.2-0.8-18.5c-0.3-6.3-0.8-12.8-1.3-19.6L507.4,274z"/>
	<path class="st1" d="M582.4,317.5c0,4.4-0.4,8.9-1.2,13.3s-2.2,8.7-4,12.9c-1.8,4.1-4.2,8-7.1,11.6c-2.9,3.6-6.5,6.8-10.7,9.5
		c3.7,9.4,7.8,18.5,12.2,27.2c4.5,8.7,9.4,17,14.9,25.1l-24.7,1.4l-16.8-47.8c0.3,8.1,0.6,16,1,24c0.4,7.9,0.9,15.7,1.5,23.5h-24.1
		c1.1-15,1.8-30,2.3-44.9c0.5-15,0.7-30.1,0.7-45.2c0-8.8-0.1-17.5-0.2-26.3c-0.1-8.7-0.4-17.6-0.8-26.5c3.5-1.1,7-1.7,10.6-2.1
		c3.6-0.3,6.6-0.5,9.2-0.5c1.8,0,3.9,0.2,6.5,0.5c2.5,0.4,5.2,1.1,8,2.2c2.8,1.1,5.5,2.7,8.3,4.8c2.7,2,5.2,4.7,7.3,8.1
		c2.1,3.3,3.9,7.4,5.2,12.2C581.7,305.1,582.4,310.9,582.4,317.5z M544.7,354.6c2.3-0.7,4.3-1.6,6.1-2.9s3.3-2.8,4.6-4.4
		c1.3-1.6,2.4-3.4,3.3-5.2c0.9-1.8,1.6-3.7,2.2-5.5c1.3-4.3,2.1-9,2.3-14.1c0-0.1,0-0.9,0-2.4c0-1.5-0.2-3.3-0.5-5.6
		c-0.3-2.2-0.8-4.7-1.4-7.3c-0.6-2.6-1.5-5.2-2.7-7.7c-1.2-2.5-2.7-4.7-4.6-6.6c-1.8-1.9-4.1-3.3-6.7-4.1
		c-0.8,10.4-1.4,20.7-1.8,30.9c-0.4,10.3-0.6,20.6-0.6,31V354.6z"/>
	<path class="st1" d="M664.7,274.6c-0.9,13.3-1.5,26.4-2,39.4c-0.5,13-0.7,26.1-0.7,39.2c0,10.2,0.1,20.3,0.4,30.3
		c0.3,10,0.8,20,1.5,30.1l-20-0.6c-2.6-8.6-5.2-17.1-7.8-25.6c-2.5-8.5-5.1-16.9-7.6-25.3c-2.5-8.4-5.1-16.7-7.7-25
		s-5.3-16.6-8.1-24.8c0.2,17.2,0.5,34.4,0.9,51.5c0.4,17.1,1.2,34.2,2.3,51.2l-22.9-0.2c0.8-21,1.2-42.2,1.2-63.4
		c0-13.1-0.1-26-0.4-38.8c-0.3-12.8-0.7-25.7-1.2-38.6l27.7,0.6c3.4,14.5,7,29.3,10.8,44.2c3.8,15,7.9,29.8,12.2,44.3
		c-0.5-14.9-1.1-29.8-2-44.8c-0.9-14.9-1.9-29.6-2.9-44L664.7,274.6z"/>
</g>
<g>
	<path class="st2" d="M311.7,307.8c0,4.4-0.4,8.9-1.2,13.3c-0.8,4.5-2.2,8.7-4,12.9c-1.8,4.1-4.2,8-7.1,11.6
		c-2.9,3.6-6.5,6.8-10.7,9.5c3.7,9.4,7.8,18.5,12.2,27.2c4.5,8.7,9.4,17,14.9,25.1l-24.7,1.4l-16.8-47.8c0.3,8.1,0.6,16,1,24
		c0.4,7.9,0.9,15.7,1.5,23.5h-24.1c1.1-15,1.8-30,2.3-44.9c0.5-15,0.7-30.1,0.7-45.2c0-8.8-0.1-17.5-0.2-26.3
		c-0.1-8.7-0.4-17.6-0.8-26.5c3.5-1.1,7-1.7,10.6-2.1c3.6-0.3,6.6-0.5,9.2-0.5c1.8,0,3.9,0.2,6.5,0.5c2.5,0.4,5.2,1.1,8,2.2
		c2.8,1.1,5.5,2.7,8.3,4.8c2.7,2,5.2,4.7,7.3,8.1c2.1,3.3,3.9,7.4,5.2,12.2C311,295.4,311.7,301.1,311.7,307.8z M274,344.9
		c2.3-0.7,4.3-1.6,6.1-2.9c1.7-1.3,3.3-2.8,4.6-4.4c1.3-1.6,2.4-3.4,3.3-5.2c0.9-1.8,1.6-3.7,2.2-5.5c1.3-4.3,2.1-9,2.3-14.1
		c0-0.1,0-0.9,0-2.4c0-1.5-0.2-3.3-0.5-5.6c-0.3-2.2-0.8-4.7-1.4-7.3c-0.6-2.6-1.5-5.2-2.7-7.7c-1.2-2.5-2.7-4.7-4.6-6.6
		c-1.8-1.9-4.1-3.3-6.7-4.1c-0.8,10.4-1.4,20.7-1.8,30.9c-0.4,10.3-0.6,20.6-0.6,31V344.9z"/>
	<path class="st2" d="M362.6,354.6c-2-0.1-4.1-0.2-6.2-0.3c-2.1-0.1-4.2-0.1-6.3-0.1c-1.2,0-2.4,0-3.7,0.1c-1.3,0.1-2.6,0.1-3.8,0.1
		l-0.4,35.3c5.4-0.1,10.7-0.4,15.8-0.8c5.1-0.4,10.5-1,16.3-1.9v20.7c-3.7-0.1-7.3-0.2-10.7-0.3c-3.5-0.1-6.9-0.1-10.3-0.1
		c-5.1,0-10.2,0.1-15.2,0.2c-5,0.2-10.2,0.4-15.5,0.7c0.6-12.3,1.1-24.4,1.4-36.5c0.4-12,0.5-24.2,0.5-36.5c0-11.7-0.1-23.4-0.4-35
		c-0.3-11.6-0.8-23.2-1.5-35c7.8,0.6,15.2,0.9,22.3,0.9c4.5,0,9-0.1,13.4-0.3c4.5-0.2,9.2-0.5,14.3-0.9v22.8
		c-4.1-0.7-8.1-1.3-12.1-1.7c-4-0.4-8-0.6-11.9-0.6h-3.9c-0.7,8.2-1.1,16.5-1.3,24.6c-0.2,8.2-0.4,16.4-0.5,24.6
		c1.7,0.1,3.4,0.2,5.2,0.2c1.7,0,3.5,0,5.4,0c1.5,0,3.1,0,4.7,0s3.2-0.1,4.8-0.2V354.6z"/>
	<path class="st2" d="M432.5,286.1c-2.1-0.1-4.5-0.2-7.3-0.3c-2.7-0.1-5.7-0.1-8.8-0.1c-0.5,6.1-0.8,12.5-1.1,19.1
		c-0.3,6.6-0.5,13.2-0.7,20c-0.2,6.8-0.3,13.6-0.4,20.4c-0.1,6.8-0.1,13.6-0.1,20.2c0,7.6,0,14.9,0.1,22c0.1,7.1,0.3,13.9,0.6,20.5
		h-21.1c0.6-11.2,1.1-23.2,1.4-35.8c0.3-12.7,0.5-25.4,0.5-38.3c0-8.4-0.1-16.6-0.3-24.5c-0.2-8-0.4-15.8-0.6-23.4
		c-3.2,0-6.2,0-9,0.1c-2.8,0.1-5.4,0.2-7.6,0.3l0.2-20.7c2.4,0.2,5,0.3,8,0.4c3,0.1,6.1,0.2,9.4,0.2c3.3,0.1,6.6,0.1,10,0.1
		c3.4,0,6.8,0,10.1,0c3.3,0,6.4,0,9.4,0c2.9,0,5.6-0.1,7.9-0.2L432.5,286.1z"/>
	<path class="st2" d="M497,264.2c1.5,13.5,2.6,27.1,3.2,40.8c0.6,13.8,0.9,28.1,0.9,43.1c0,5.1-0.2,10.1-0.6,15.1
		c-0.4,5-1.2,9.7-2.2,14.3c-1,4.5-2.4,8.7-4.1,12.6s-3.8,7.2-6.3,10c-2.5,2.8-5.5,5-8.9,6.6c-3.4,1.6-7.4,2.4-11.8,2.4
		c-4,0-7.4-0.7-10.4-2.2c-3-1.5-5.5-3.5-7.6-6.1c-2.1-2.6-3.9-5.7-5.3-9.2c-1.4-3.5-2.5-7.4-3.3-11.5c-0.8-4.1-1.4-8.4-1.7-12.9
		c-0.3-4.5-0.5-9-0.5-13.6c0-13.7,0.6-27.6,1.7-41.7c1.1-14.1,2.4-28.7,4-43.8l20.7,0.4c-1.2,14.2-2.3,28.5-3.3,43
		c-1,14.5-1.5,29.3-1.5,44.6c0,4.4,0.1,8.6,0.4,12.6c0.3,4,0.7,7.4,1.4,10.4c0.7,3,1.5,5.4,2.5,7.2c1,1.8,2.3,2.7,3.8,2.7
		c1.8,0,3.4-1.4,4.9-4.2c1.5-2.8,2.7-6.5,3.8-11.1c1-4.6,1.8-9.8,2.4-15.7c0.6-5.9,0.9-11.8,0.9-17.9c0-5.8,0-11.6-0.1-17.5
		c-0.1-5.9-0.2-11.8-0.4-17.9c-0.2-6-0.5-12.2-0.8-18.5c-0.3-6.3-0.8-12.8-1.3-19.6L497,264.2z"/>
	<path class="st2" d="M571.9,307.8c0,4.4-0.4,8.9-1.2,13.3s-2.2,8.7-4,12.9c-1.8,4.1-4.2,8-7.1,11.6c-2.9,3.6-6.5,6.8-10.7,9.5
		c3.7,9.4,7.8,18.5,12.2,27.2c4.5,8.7,9.4,17,14.9,25.1l-24.7,1.4l-16.8-47.8c0.3,8.1,0.6,16,1,24c0.4,7.9,0.9,15.7,1.5,23.5h-24.1
		c1.1-15,1.8-30,2.3-44.9c0.5-15,0.7-30.1,0.7-45.2c0-8.8-0.1-17.5-0.2-26.3c-0.1-8.7-0.4-17.6-0.8-26.5c3.5-1.1,7-1.7,10.6-2.1
		c3.6-0.3,6.6-0.5,9.2-0.5c1.8,0,3.9,0.2,6.5,0.5c2.5,0.4,5.2,1.1,8,2.2c2.8,1.1,5.5,2.7,8.3,4.8c2.7,2,5.2,4.7,7.3,8.1
		c2.1,3.3,3.9,7.4,5.2,12.2S571.9,301.1,571.9,307.8z M534.2,344.9c2.3-0.7,4.3-1.6,6.1-2.9c1.7-1.3,3.3-2.8,4.6-4.4
		c1.3-1.6,2.4-3.4,3.3-5.2c0.9-1.8,1.6-3.7,2.2-5.5c1.3-4.3,2.1-9,2.3-14.1c0-0.1,0-0.9,0-2.4c0-1.5-0.2-3.3-0.5-5.6
		c-0.3-2.2-0.8-4.7-1.4-7.3c-0.6-2.6-1.5-5.2-2.7-7.7c-1.2-2.5-2.7-4.7-4.6-6.6c-1.8-1.9-4.1-3.3-6.7-4.1
		c-0.8,10.4-1.4,20.7-1.8,30.9c-0.4,10.3-0.6,20.6-0.6,31V344.9z"/>
	<path class="st2" d="M654.3,264.8c-0.9,13.3-1.5,26.4-2,39.4c-0.5,13-0.7,26.1-0.7,39.2c0,10.2,0.1,20.3,0.4,30.3
		c0.3,10,0.8,20,1.5,30.1l-20-0.6c-2.6-8.6-5.2-17.1-7.8-25.6c-2.5-8.5-5.1-16.9-7.6-25.3c-2.5-8.4-5.1-16.7-7.7-25
		c-2.6-8.3-5.3-16.6-8.1-24.8c0.2,17.2,0.5,34.4,0.9,51.5s1.2,34.2,2.3,51.2l-22.9-0.2c0.8-21,1.2-42.2,1.2-63.4
		c0-13.1-0.1-26-0.4-38.8c-0.3-12.8-0.7-25.7-1.2-38.6l27.7,0.6c3.4,14.5,7,29.3,10.8,44.2c3.8,15,7.9,29.8,12.2,44.3
		c-0.5-14.9-1.1-29.8-2-44.8c-0.9-14.9-1.9-29.6-2.9-44L654.3,264.8z"/>
</g>
</svg>
