<?xml version="1.0" encoding="utf-8"?>
<!-- Generator: Adobe Illustrator 22.1.0, SVG Export Plug-In . SVG Version: 6.00 Build 0)  -->
<svg version="1.1" id="Calque_1" xmlns="http://www.w3.org/2000/svg" xmlns:xlink="http://www.w3.org/1999/xlink" x="0px" y="0px"
	 viewBox="0 0 841.9 595.3" style="enable-background:new 0 0 841.9 595.3;" xml:space="preserve">
<style type="text/css">
	.st0{fill:#FFFFFF;}
	.st1{fill:#3C98FC;}
	.st2{fill:#F4807D;}
</style>
<g>
	<path d="M435.2,527.2c-4,2.1-7.8,4.2-11.7,6.2c-18.9,9.4-38.9,15.6-59.8,18.8c-15.4,2.4-31,3.2-46.6,2.3
		c-38.9-2.4-74.9-13.5-107.3-35.7c-3.2-2.2-6.3-4.6-9.4-7c-1.1-0.9-2.1-1.1-3.4-0.5c-9.3,3.7-18.8,6.5-28.7,8.3
		c-26.6,4.9-52.1,1.6-76.7-9.6c-19-8.7-35.6-20.6-48.8-37c-13-16.1-21.1-34.5-25.4-54.6c-1-4.6-1.7-9.3-2.5-13.9
		c-0.2-1.1-0.3-2.2-0.3-3.3c0.1-7.5,0.1-15,0.3-22.5c0.1-2.8,0.9-5.5,1.5-8.2c2.5-11.6,5.8-22.9,11.1-33.6
		c18-35.9,46.7-58.7,85.4-68.8c15.5-4.1,31.3-5,47.3-3.5c0.8,0.1,1.6,0.1,2.6,0.1c0.3-0.8,0.6-1.6,0.8-2.4
		c6.5-19.5,15.9-37.5,29-53.4c17.6-21.5,39.7-36.8,65.3-47.2c20.8-8.5,42.4-12.2,64.8-11.4c14.8,0.5,29.4,3.1,43.6,7.2
		c0.8,0.2,1.5,0.4,2.5,0.7c0.4-0.8,0.8-1.5,1.2-2.3c8.3-16.6,18.1-32.1,30.1-46.3c26.2-31,59.2-50.9,98.7-60.1
		c14.1-3.3,28.4-5,43-4.8c6.9,0.1,13.7,1.2,20.4,2.5c22.5,4.3,43.8,12,63.8,23.3c36.3,20.4,62.4,50,79.1,88
		c6.5,14.7,11.2,29.9,14.7,45.5c1.3,5.6,0.4,4.8,6,6.1c21.8,5,41.4,14.4,58.3,29.2c14.2,12.4,25.1,27.4,33.6,44.2
		c8.2,16.2,14,33.3,16.6,51.3c5.8,40.1-1.1,77.8-22.4,112.5c-8.8,14.3-19.9,26.8-33.4,36.9c-12.8,9.5-27.1,15.4-42.9,18
		c-13.8,2.3-27.7,2.2-41.6,1.6c-12.6-0.5-25.2-1-37.8-1.6c-1.7-0.1-2.8,0.5-3.9,1.7c-5.9,6.5-11.6,13.3-17.9,19.3
		c-21.9,21.1-47.8,34.5-77.9,39.3c-44.3,7-83.7-4.5-118.3-32.7c-0.8-0.7-1.6-1.3-2.4-2C435.6,527.4,435.4,527.4,435.2,527.2z
		 M176.7,286c-3.9-0.5-7.5-0.9-11.1-1.5c-16.7-2.4-33.3-1.9-49.6,2.6c-32.2,8.9-56.2,28.1-71.2,58.1c-4.7,9.5-7.6,19.6-9.8,30
		c-0.4,1.9-0.9,3.9-0.9,5.9c-0.2,6.2-0.2,12.5-0.2,18.7c0,1.3,0,2.6,0.3,3.8c0.9,4.7,1.7,9.4,2.8,14.1c4.2,17.5,11.7,33.2,23.7,46.7
		c11.6,13,25.7,22.4,41.6,29.3c19.5,8.4,39.8,10.8,60.7,7.3c9.6-1.6,18.8-4.4,27.8-7.9c1.9-0.7,3.9-1.4,6-1.7
		c5.2-0.9,9.7,0.8,13.9,3.9c4.9,3.7,9.8,7.5,14.9,10.8c28.7,18.4,60.4,27.5,94.3,29.2c13.8,0.7,27.6,0,41.3-2.2
		c22.3-3.6,43.4-10.6,63-21.9c1.5-0.9,3.1-1.7,4.7-2.4c5.6-2.3,10.9-1.8,16,1.4c1.5,0.9,2.8,2.1,4.2,3.2c3.5,2.7,6.9,5.7,10.6,8.2
		c29.8,20.4,62.5,27.7,98,20.8c26-5.1,48.2-17.5,66.6-36.5c6.4-6.6,12.4-13.5,18.5-20.5c2.6-3,5.6-4.2,9.5-3.8
		c6.4,0.6,12.7,1.1,19.1,1.5c8.7,0.5,17.4,0.8,26.1,1.2c10.9,0.5,21.9,0.4,32.8-1.1c13.7-1.9,26.2-6.8,37.3-15.2
		c11.9-9.1,21.6-20.2,29.2-33c17.5-29.3,23.2-61,19-94.7c-2.5-20.1-9.3-38.9-19.5-56.4c-16-27.5-39.2-45.9-70.1-54.1
		c-3.4-0.9-6.8-1.6-10.2-2.7c-6.6-2.1-11.1-6.5-13.2-13.1c-0.5-1.6-1-3.2-1.3-4.8c-3.2-14.5-7.5-28.7-13.5-42.4
		c-14.6-33.6-37.3-60-69.1-78.4c-18.5-10.8-38.3-18.2-59.4-22.2c-6.4-1.2-12.9-2.4-19.5-2.4c-13,0-25.8,1.7-38.4,4.8
		c-31.9,7.7-59.2,23.4-81.5,47.5c-13.8,15-24.7,31.9-33.6,50.2c-2.4,4.8-5,9.4-7.6,14.1c-0.2,0.3-0.5,0.6-0.8,1
		c-1.9-0.7-3.8-1.3-5.7-1.9c-16.6-5.8-33.6-9.5-51.3-10c-19.2-0.6-37.7,2.7-55.5,9.9c-23.3,9.4-43.4,23.4-59.2,43.1
		c-12.2,15.2-20.5,32.5-26.1,51.1C179,277.5,177.9,281.6,176.7,286z"/>
	<path class="st0" d="M176.7,286c1.2-4.3,2.3-8.4,3.5-12.5c5.6-18.6,13.9-35.8,26.1-51.1c15.8-19.8,35.8-33.7,59.2-43.1
		c17.8-7.2,36.3-10.5,55.5-9.9c17.6,0.5,34.7,4.2,51.3,10c1.9,0.7,3.8,1.3,5.7,1.9c0.3-0.4,0.6-0.7,0.8-1c2.5-4.7,5.2-9.3,7.6-14.1
		c9-18.2,19.8-35.2,33.6-50.2c22.3-24.2,49.6-39.8,81.5-47.5c12.6-3,25.4-4.7,38.4-4.8c6.6,0,13,1.2,19.5,2.4
		c21,4.1,40.8,11.5,59.4,22.2c31.8,18.4,54.5,44.9,69.1,78.4c5.9,13.7,10.3,27.8,13.5,42.4c0.4,1.6,0.8,3.3,1.3,4.8
		c2.2,6.6,6.6,11,13.2,13.1c3.3,1.1,6.8,1.8,10.2,2.7c31,8.2,54.1,26.6,70.1,54.1c10.2,17.5,17,36.3,19.5,56.4
		c4.2,33.6-1.6,65.4-19,94.7c-7.6,12.8-17.3,23.9-29.2,33c-11.1,8.4-23.6,13.2-37.3,15.2c-10.9,1.5-21.8,1.6-32.8,1.1
		c-8.7-0.4-17.4-0.7-26.1-1.2c-6.4-0.4-12.7-0.9-19.1-1.5c-3.9-0.4-6.9,0.9-9.5,3.8c-6.1,6.9-12.1,13.9-18.5,20.5
		c-18.4,19-40.6,31.4-66.6,36.5c-35.5,7-68.2-0.3-98-20.8c-3.7-2.5-7.1-5.5-10.6-8.2c-1.4-1.1-2.7-2.2-4.2-3.2
		c-5.1-3.2-10.5-3.7-16-1.4c-1.6,0.7-3.2,1.5-4.7,2.4c-19.6,11.3-40.7,18.3-63,21.9c-13.7,2.2-27.5,2.9-41.3,2.2
		c-33.9-1.7-65.6-10.8-94.3-29.2c-5.2-3.3-10-7.1-14.9-10.8c-4.1-3.2-8.7-4.8-13.9-3.9c-2,0.3-4,1-6,1.7c-9,3.5-18.2,6.3-27.8,7.9
		c-21,3.5-41.2,1-60.7-7.3c-15.9-6.8-30-16.2-41.6-29.3c-12-13.5-19.5-29.3-23.7-46.7c-1.1-4.7-1.9-9.4-2.8-14.1
		c-0.2-1.2-0.3-2.5-0.3-3.8c0-6.2,0-12.5,0.2-18.7c0.1-2,0.5-3.9,0.9-5.9c2.2-10.3,5-20.5,9.8-30c15-30.1,38.9-49.3,71.2-58.1
		c16.3-4.5,32.9-5,49.6-2.6C169.2,285,172.8,285.5,176.7,286z"/>
</g>
<g>
	<path class="st1" d="M243.1,369c0,8.7-0.6,16.1-1.9,22.4c-1.3,6.3-2.9,11.6-5,16c-2.1,4.4-4.4,8-7,10.7s-5.2,4.9-7.9,6.4
		c-2.7,1.5-5.3,2.5-7.8,3.1s-4.7,0.8-6.6,0.8l-17.2-1.4c0.7-11.4,1.3-22.9,1.7-34.4c0.4-11.5,0.6-23.2,0.6-34.9
		c0-8.9-0.1-17.7-0.3-26.4c-0.2-8.7-0.6-17.4-1-26.1c1.3-0.1,2.7-0.2,3.9-0.3s2.5-0.1,3.8-0.1c9.3,0,16.8,1.6,22.6,4.7
		c5.8,3.2,10.3,7.6,13.6,13.2c3.3,5.7,5.5,12.4,6.7,20.3C242.5,351,243.1,359.6,243.1,369z M226,366.8c0-2.7-0.1-5.7-0.2-8.8
		s-0.3-6.2-0.7-9.3c-0.4-3.1-0.9-6.1-1.6-9c-0.7-2.9-1.7-5.6-2.8-8s-2.6-4.5-4.3-6.2c-1.7-1.7-3.8-3-6.2-3.7
		c-0.3,6.1-0.6,12.1-0.9,18c-0.3,5.8-0.5,11.6-0.6,17.3s-0.3,11.4-0.4,17s-0.1,11.2-0.1,16.9c0,3.7,0,7.4,0,11.2
		c0,3.8,0.1,7.6,0.2,11.5c2.6-0.3,4.8-1.3,6.7-2.9c1.9-1.7,3.5-3.8,4.8-6.3s2.4-5.4,3.2-8.6c0.8-3.2,1.4-6.5,1.9-9.9
		c0.4-3.4,0.7-6.7,0.9-10S226,369.6,226,366.8z"/>
	<path class="st1" d="M308.8,367.4c0,11.2-0.8,20.7-2.3,28.6c-1.5,7.8-3.6,14.2-6.2,19.1s-5.7,8.4-9.3,10.6
		c-3.6,2.2-7.4,3.3-11.5,3.3c-4.1,0-7.9-1-11.5-3.1c-3.6-2.1-6.7-5.5-9.4-10.3s-4.8-11.1-6.3-19c-1.5-7.9-2.3-17.6-2.3-29.1
		c0-11.6,0.8-21.4,2.3-29.4c1.5-8.1,3.6-14.6,6.3-19.7s5.8-8.7,9.4-11c3.6-2.3,7.4-3.4,11.5-3.4c4.1,0,7.9,1.1,11.5,3.3
		c3.6,2.2,6.7,5.8,9.3,10.8c2.6,5,4.7,11.6,6.2,19.6C308,345.7,308.8,355.6,308.8,367.4z M290.1,367.4c0-8.8-0.3-16.2-0.8-22.2
		c-0.6-6-1.3-10.9-2.3-14.7c-1-3.8-2.1-6.5-3.4-8.2c-1.3-1.7-2.7-2.5-4.1-2.5c-1.5,0-2.9,0.9-4.2,2.6c-1.3,1.7-2.5,4.4-3.4,8.2
		c-1,3.8-1.7,8.7-2.3,14.7s-0.8,13.4-0.8,22.1c0,8.6,0.3,15.8,0.8,21.7c0.6,5.8,1.3,10.5,2.3,14.1c1,3.5,2.1,6.1,3.4,7.6
		c1.3,1.5,2.7,2.3,4.2,2.3c1.5,0,2.8-0.8,4.1-2.4c1.3-1.6,2.4-4.2,3.4-7.8c1-3.6,1.7-8.3,2.3-14.1
		C289.8,382.8,290.1,375.7,290.1,367.4z"/>
	<path class="st1" d="M379.3,424.8c-2.2-0.1-4.5-0.2-6.7-0.3c-2.2-0.1-4.5-0.1-6.7-0.1c-3.7,0-7.4,0.1-11.1,0.2s-7.4,0.3-11.1,0.6
		l0.2-18c1.3,0.2,2.6,0.3,3.9,0.4c1.3,0.1,2.6,0.2,3.9,0.3c0.3-8.7,0.7-17.3,1-25.8s0.5-17.2,0.5-25.8c0-5.8-0.1-11.4-0.3-17
		s-0.3-11.3-0.5-17c-1.5,0-2.9,0-4.4,0.1c-1.5,0.1-3,0.1-4.6,0.3l0.2-17.5c4.3,0.3,8.6,0.5,12.9,0.6c4.3,0.1,8.6,0.2,13,0.2
		c1.6,0,3.1,0,4.7,0c1.6,0,3.2-0.1,4.8-0.2l-0.5,16.7c-1.3,0-2.6,0-3.8-0.1c-1.3-0.1-2.5-0.1-3.8-0.1c-0.8,10.1-1.3,20-1.7,29.9
		c-0.3,9.9-0.5,19.9-0.5,29.9c0,8.8,0.2,17.5,0.5,26.2c1.8,0,3.6,0,5.5-0.1s3.8-0.1,5.7-0.3L379.3,424.8z"/>
	<path class="st1" d="M429.6,323.2c-1.8-0.1-3.8-0.2-6.2-0.3s-4.8-0.1-7.4-0.1c-0.4,5.2-0.7,10.6-1,16.1s-0.5,11.2-0.6,16.9
		s-0.3,11.5-0.3,17.3c-0.1,5.8-0.1,11.5-0.1,17.1c0,6.4,0,12.6,0.1,18.6s0.3,11.8,0.5,17.4h-17.8c0.5-9.5,0.9-19.6,1.2-30.3
		s0.4-21.5,0.4-32.4c0-7.1-0.1-14-0.3-20.8c-0.2-6.8-0.3-13.3-0.5-19.8c-2.7,0-5.2,0-7.6,0.1s-4.6,0.1-6.5,0.3l0.2-17.5
		c2,0.2,4.3,0.3,6.8,0.4c2.5,0.1,5.2,0.2,7.9,0.2s5.6,0.1,8.5,0.1c2.9,0,5.8,0,8.5,0s5.4,0,7.9,0s4.7-0.1,6.7-0.2L429.6,323.2z"/>
	<path class="st1" d="M497,426.7c-0.3-3.9-0.5-7.7-0.8-11.6c-0.3-3.9-0.5-7.8-0.9-11.8c-2.5-0.2-4.8-0.3-7.1-0.5s-4.6-0.3-7-0.3
		h-1.1c-0.3,4-0.5,8-0.8,11.9c-0.2,3.9-0.4,7.8-0.6,11.6l-20.9-0.3c3.5-19.9,6.6-39.8,9.4-59.6c2.8-19.8,5.2-39.8,7.1-60l25.2,0.4
		c2.1,19.9,4.7,39.7,7.7,59.4c3,19.7,6.5,39.5,10.5,59.4L497,426.7z M487.2,327.1c-1.1,10.3-2.2,20.5-3.2,30.7
		c-1,10.2-1.9,20.5-2.8,30.9c1.2,0.1,2.4,0.2,3.6,0.2c1.2,0,2.5,0,3.8,0h5.4c-0.9-10.4-2-20.7-3.2-30.9
		C489.8,347.8,488.5,337.5,487.2,327.1z"/>
	<path class="st1" d="M570.1,365.9c-0.3,2-0.6,4.3-0.9,6.9c-0.3,2.6-0.6,5.3-0.8,8.3c-0.2,2.9-0.4,6-0.5,9.2s-0.2,6.4-0.2,9.7
		c0,0.7,0,1.8,0.1,3.1c0.1,1.4,0.2,2.9,0.3,4.5c0.1,1.6,0.2,3.4,0.4,5.1c0.1,1.8,0.3,3.4,0.4,4.9c0.1,1.5,0.3,2.9,0.4,4
		s0.2,1.9,0.3,2.3c-2.2,1-4.3,1.8-6.5,2.3c-2.1,0.5-4,0.9-5.7,1.2c-2,0.3-3.9,0.4-5.7,0.5c-2,0-4.2-0.4-6.5-1.1s-4.6-2-7-3.7
		c-2.3-1.8-4.6-4.2-6.8-7.2c-2.2-3-4.1-6.9-5.8-11.5s-3-10.1-4-16.5c-1-6.4-1.5-13.9-1.5-22.5s0.6-16,1.8-22.4
		c1.2-6.4,2.8-11.8,4.7-16.4s4.1-8.3,6.5-11.2c2.4-2.9,4.9-5.2,7.4-7c2.5-1.7,5-2.9,7.3-3.5s4.4-1,6.2-1c1.6,0.1,3.2,0.2,4.8,0.5
		c1.3,0.3,2.8,0.7,4.2,1.3c1.5,0.6,2.8,1.3,3.9,2.3l-1.7,16.8c-1.6-0.8-3-1.4-4.4-1.7s-2.7-0.5-3.9-0.5c-2.3,0-4.4,0.6-6.2,1.9
		c-1.8,1.3-3.4,2.9-4.7,5c-1.3,2.1-2.4,4.4-3.4,7c-0.9,2.6-1.7,5.3-2.2,8c-1.4,6.4-2.2,13.7-2.3,21.9c0.2,7.1,0.8,13.6,1.9,19.5
		c0.5,2.5,1.1,5,1.9,7.5c0.8,2.5,1.7,4.8,2.8,7c1.1,2.2,2.4,4,3.9,5.6c1.5,1.6,3.2,2.7,5.2,3.3c-0.1-7.3-0.5-14.5-1-21.6
		c-0.6-7.1-1.4-14.4-2.6-21.6L570.1,365.9z"/>
	<path class="st1" d="M612.8,426.7c-0.3-3.9-0.5-7.7-0.8-11.6c-0.3-3.9-0.5-7.8-0.9-11.8c-2.5-0.2-4.8-0.3-7.1-0.5s-4.6-0.3-7-0.3
		H596c-0.3,4-0.5,8-0.8,11.9c-0.2,3.9-0.4,7.8-0.6,11.6l-20.9-0.3c3.5-19.9,6.6-39.8,9.4-59.6c2.8-19.8,5.2-39.8,7.1-60l25.2,0.4
		c2.1,19.9,4.7,39.7,7.7,59.4c3,19.7,6.5,39.5,10.5,59.4L612.8,426.7z M603,327.1c-1.1,10.3-2.2,20.5-3.2,30.7s-1.9,20.5-2.8,30.9
		c1.2,0.1,2.4,0.2,3.6,0.2c1.2,0,2.5,0,3.8,0h5.4c-0.9-10.4-2-20.7-3.2-30.9C605.5,347.8,604.3,337.5,603,327.1z"/>
	<path class="st1" d="M672.2,424.8c-2.2-0.1-4.5-0.2-6.7-0.3c-2.2-0.1-4.5-0.1-6.7-0.1c-3.7,0-7.4,0.1-11.1,0.2s-7.4,0.3-11.1,0.6
		l0.2-18c1.3,0.2,2.6,0.3,3.9,0.4s2.6,0.2,3.9,0.3c0.3-8.7,0.7-17.3,1-25.8s0.5-17.2,0.5-25.8c0-5.8-0.1-11.4-0.3-17
		s-0.3-11.3-0.5-17c-1.5,0-2.9,0-4.4,0.1c-1.5,0.1-3,0.1-4.6,0.3l0.2-17.5c4.3,0.3,8.6,0.5,12.9,0.6c4.3,0.1,8.6,0.2,13,0.2
		c1.6,0,3.1,0,4.7,0s3.2-0.1,4.8-0.2l-0.5,16.7c-1.3,0-2.6,0-3.8-0.1c-1.3-0.1-2.5-0.1-3.8-0.1c-0.8,10.1-1.3,20-1.7,29.9
		c-0.3,9.9-0.5,19.9-0.5,29.9c0,8.8,0.2,17.5,0.5,26.2c1.8,0,3.6,0,5.5-0.1c1.9-0.1,3.8-0.1,5.7-0.3L672.2,424.8z"/>
	<path class="st1" d="M741.4,305.2c-0.7,11.2-1.3,22.4-1.7,33.4c-0.4,11-0.6,22.1-0.6,33.2c0,8.7,0.1,17.2,0.4,25.6
		c0.3,8.4,0.7,16.9,1.3,25.5l-16.9-0.5c-2.2-7.3-4.4-14.5-6.6-21.7c-2.2-7.2-4.3-14.3-6.4-21.4c-2.1-7.1-4.3-14.2-6.5-21.2
		c-2.2-7-4.5-14-6.8-21c0.2,14.6,0.4,29.1,0.8,43.6c0.4,14.5,1,28.9,2,43.4l-19.4-0.2c0.7-17.8,1-35.7,1-53.7
		c0-11.1-0.1-22-0.3-32.8s-0.6-21.7-1-32.7l23.5,0.5c2.8,12.3,5.9,24.8,9.1,37.4c3.2,12.7,6.7,25.2,10.3,37.5
		c-0.4-12.6-1-25.3-1.7-37.9c-0.8-12.6-1.6-25.1-2.5-37.2L741.4,305.2z"/>
</g>
<g>
	<path class="st2" d="M235.5,359.8c0,8.7-0.6,16.1-1.9,22.4s-2.9,11.6-5,16c-2.1,4.4-4.4,8-7,10.7s-5.2,4.9-7.9,6.4
		c-2.7,1.5-5.3,2.5-7.8,3.1c-2.5,0.5-4.7,0.8-6.6,0.8l-17.2-1.4c0.7-11.4,1.3-22.9,1.7-34.4c0.4-11.5,0.6-23.2,0.6-34.9
		c0-8.9-0.1-17.7-0.3-26.4s-0.6-17.4-1-26.1c1.3-0.1,2.7-0.2,3.9-0.3s2.5-0.1,3.8-0.1c9.3,0,16.8,1.6,22.6,4.7
		c5.8,3.2,10.3,7.6,13.6,13.2c3.3,5.7,5.5,12.4,6.7,20.3S235.5,350.4,235.5,359.8z M218.4,357.6c0-2.7-0.1-5.7-0.2-8.8
		c-0.1-3.1-0.3-6.2-0.7-9.3c-0.4-3.1-0.9-6.1-1.6-9c-0.7-2.9-1.7-5.6-2.8-8s-2.6-4.5-4.3-6.2c-1.7-1.7-3.8-3-6.2-3.7
		c-0.3,6.1-0.6,12.1-0.9,18c-0.3,5.8-0.5,11.6-0.6,17.3c-0.2,5.7-0.3,11.4-0.4,17s-0.1,11.2-0.1,16.9c0,3.7,0,7.4,0,11.2
		c0,3.8,0.1,7.6,0.2,11.5c2.6-0.3,4.8-1.3,6.7-2.9c1.9-1.7,3.5-3.8,4.8-6.3s2.4-5.4,3.2-8.6c0.8-3.2,1.4-6.5,1.9-9.9
		c0.4-3.4,0.7-6.7,0.9-10C218.3,363.4,218.4,360.4,218.4,357.6z"/>
	<path class="st2" d="M301.1,358.2c0,11.2-0.8,20.7-2.3,28.6c-1.5,7.8-3.6,14.2-6.2,19.1c-2.6,4.9-5.7,8.4-9.3,10.6
		c-3.6,2.2-7.4,3.3-11.5,3.3c-4.1,0-7.9-1-11.5-3.1c-3.6-2.1-6.7-5.5-9.4-10.3c-2.7-4.8-4.8-11.1-6.3-19s-2.3-17.6-2.3-29.1
		c0-11.6,0.8-21.4,2.3-29.4s3.6-14.6,6.3-19.7c2.7-5.1,5.8-8.7,9.4-11c3.6-2.3,7.4-3.4,11.5-3.4c4.1,0,7.9,1.1,11.5,3.3
		c3.6,2.2,6.7,5.8,9.3,10.8s4.7,11.6,6.2,19.6C300.4,336.5,301.1,346.4,301.1,358.2z M282.5,358.2c0-8.8-0.3-16.2-0.8-22.2
		s-1.3-10.9-2.3-14.7c-1-3.8-2.1-6.5-3.4-8.2c-1.3-1.7-2.7-2.5-4.1-2.5c-1.5,0-2.9,0.9-4.2,2.6c-1.3,1.7-2.5,4.4-3.4,8.2
		c-1,3.8-1.7,8.7-2.3,14.7c-0.6,6.1-0.8,13.4-0.8,22.1c0,8.6,0.3,15.8,0.8,21.7s1.3,10.5,2.3,14.1c1,3.5,2.1,6.1,3.4,7.6
		c1.3,1.5,2.7,2.3,4.2,2.3c1.5,0,2.8-0.8,4.1-2.4c1.3-1.6,2.4-4.2,3.4-7.8s1.7-8.3,2.3-14.1S282.5,366.5,282.5,358.2z"/>
	<path class="st2" d="M371.7,415.6c-2.2-0.1-4.5-0.2-6.7-0.3s-4.5-0.1-6.7-0.1c-3.7,0-7.4,0.1-11.1,0.2c-3.7,0.1-7.4,0.3-11.1,0.6
		l0.2-18c1.3,0.2,2.6,0.3,3.9,0.4c1.3,0.1,2.6,0.2,3.9,0.3c0.3-8.7,0.7-17.3,1-25.8c0.3-8.6,0.5-17.2,0.5-25.8
		c0-5.8-0.1-11.4-0.3-17c-0.2-5.6-0.3-11.3-0.5-17c-1.5,0-2.9,0-4.4,0.1c-1.5,0.1-3,0.1-4.6,0.3l0.2-17.5c4.3,0.3,8.6,0.5,12.9,0.6
		c4.3,0.1,8.6,0.2,13,0.2c1.6,0,3.1,0,4.7,0c1.6,0,3.2-0.1,4.8-0.2l-0.5,16.7c-1.3,0-2.6,0-3.8-0.1c-1.3-0.1-2.5-0.1-3.8-0.1
		c-0.8,10.1-1.3,20-1.7,29.9c-0.3,9.9-0.5,19.9-0.5,29.9c0,8.8,0.2,17.5,0.5,26.2c1.8,0,3.6,0,5.5-0.1c1.9-0.1,3.8-0.1,5.7-0.3
		L371.7,415.6z"/>
	<path class="st2" d="M421.9,314c-1.8-0.1-3.8-0.2-6.2-0.3s-4.8-0.1-7.4-0.1c-0.4,5.2-0.7,10.6-1,16.1s-0.5,11.2-0.6,16.9
		c-0.2,5.7-0.3,11.5-0.3,17.3s-0.1,11.5-0.1,17.1c0,6.4,0,12.6,0.1,18.6c0.1,6,0.3,11.8,0.5,17.4h-17.8c0.5-9.5,0.9-19.6,1.2-30.3
		s0.4-21.5,0.4-32.4c0-7.1-0.1-14-0.3-20.8c-0.2-6.8-0.3-13.3-0.5-19.8c-2.7,0-5.2,0-7.6,0.1s-4.6,0.1-6.5,0.3l0.2-17.5
		c2,0.2,4.3,0.3,6.8,0.4s5.2,0.2,7.9,0.2s5.6,0.1,8.5,0.1s5.8,0,8.5,0s5.4,0,7.9,0s4.7-0.1,6.7-0.2L421.9,314z"/>
	<path class="st2" d="M489.4,417.5c-0.3-3.9-0.5-7.7-0.8-11.6c-0.3-3.9-0.5-7.8-0.9-11.8c-2.5-0.2-4.8-0.3-7.1-0.5
		c-2.3-0.2-4.6-0.3-7-0.3h-1.1c-0.3,4-0.5,8-0.8,11.9c-0.2,3.9-0.4,7.8-0.6,11.6l-20.9-0.3c3.5-19.9,6.6-39.8,9.4-59.6
		c2.8-19.8,5.2-39.8,7.1-60l25.2,0.4c2.1,19.9,4.7,39.7,7.7,59.4c3,19.7,6.5,39.5,10.5,59.4L489.4,417.5z M479.6,318
		c-1.1,10.3-2.2,20.5-3.2,30.7c-1,10.2-1.9,20.5-2.8,30.9c1.2,0.1,2.4,0.2,3.6,0.2c1.2,0,2.5,0,3.8,0h5.4c-0.9-10.4-2-20.7-3.2-30.9
		C482.1,338.6,480.9,328.3,479.6,318z"/>
	<path class="st2" d="M562.4,356.7c-0.3,2-0.6,4.3-0.9,6.9c-0.3,2.6-0.6,5.3-0.8,8.3s-0.4,6-0.5,9.2c-0.1,3.2-0.2,6.4-0.2,9.7
		c0,0.7,0,1.8,0.1,3.1c0.1,1.4,0.2,2.9,0.3,4.5c0.1,1.6,0.2,3.4,0.4,5.1c0.1,1.8,0.3,3.4,0.4,4.9c0.1,1.5,0.3,2.9,0.4,4
		c0.1,1.1,0.2,1.9,0.3,2.3c-2.2,1-4.3,1.8-6.5,2.3c-2.1,0.5-4,0.9-5.7,1.2c-2,0.3-3.9,0.4-5.7,0.5c-2,0-4.2-0.4-6.5-1.1
		c-2.3-0.7-4.6-2-7-3.7c-2.3-1.8-4.6-4.2-6.8-7.2c-2.2-3-4.1-6.9-5.8-11.5c-1.7-4.6-3-10.1-4-16.5c-1-6.4-1.5-13.9-1.5-22.5
		c0-8.5,0.6-16,1.8-22.4c1.2-6.4,2.8-11.8,4.7-16.4c1.9-4.6,4.1-8.3,6.5-11.2c2.4-2.9,4.9-5.2,7.4-7c2.5-1.7,5-2.9,7.3-3.5
		c2.4-0.6,4.4-1,6.2-1c1.6,0.1,3.2,0.2,4.8,0.5c1.3,0.3,2.8,0.7,4.2,1.3c1.5,0.6,2.8,1.3,3.9,2.3l-1.7,16.8c-1.6-0.8-3-1.4-4.4-1.7
		c-1.4-0.4-2.7-0.5-3.9-0.5c-2.3,0-4.4,0.6-6.2,1.9c-1.8,1.3-3.4,2.9-4.7,5c-1.3,2.1-2.4,4.4-3.4,7c-0.9,2.6-1.7,5.3-2.2,8
		c-1.4,6.4-2.2,13.7-2.3,21.9c0.2,7.1,0.8,13.6,1.9,19.5c0.5,2.5,1.1,5,1.9,7.5s1.7,4.8,2.8,7s2.4,4,3.9,5.6
		c1.5,1.6,3.2,2.7,5.2,3.3c-0.1-7.3-0.5-14.5-1-21.6s-1.4-14.4-2.6-21.6L562.4,356.7z"/>
	<path class="st2" d="M605.1,417.5c-0.3-3.9-0.5-7.7-0.8-11.6c-0.3-3.9-0.5-7.8-0.9-11.8c-2.5-0.2-4.8-0.3-7.1-0.5
		c-2.3-0.2-4.6-0.3-7-0.3h-1.1c-0.3,4-0.5,8-0.8,11.9c-0.2,3.9-0.4,7.8-0.6,11.6l-20.9-0.3c3.5-19.9,6.6-39.8,9.4-59.6
		c2.8-19.8,5.2-39.8,7.1-60l25.2,0.4c2.1,19.9,4.7,39.7,7.7,59.4c3,19.7,6.5,39.5,10.5,59.4L605.1,417.5z M595.3,318
		c-1.1,10.3-2.2,20.5-3.2,30.7c-1,10.2-1.9,20.5-2.8,30.9c1.2,0.1,2.4,0.2,3.6,0.2c1.2,0,2.5,0,3.8,0h5.4c-0.9-10.4-2-20.7-3.2-30.9
		S596.6,328.3,595.3,318z"/>
	<path class="st2" d="M664.5,415.6c-2.2-0.1-4.5-0.2-6.7-0.3c-2.2-0.1-4.5-0.1-6.7-0.1c-3.7,0-7.4,0.1-11.1,0.2
		c-3.7,0.1-7.4,0.3-11.1,0.6l0.2-18c1.3,0.2,2.6,0.3,3.9,0.4s2.6,0.2,3.9,0.3c0.3-8.7,0.7-17.3,1-25.8c0.3-8.6,0.5-17.2,0.5-25.8
		c0-5.8-0.1-11.4-0.3-17c-0.2-5.6-0.3-11.3-0.5-17c-1.5,0-2.9,0-4.4,0.1c-1.5,0.1-3,0.1-4.6,0.3l0.2-17.5c4.3,0.3,8.6,0.5,12.9,0.6
		s8.6,0.2,13,0.2c1.6,0,3.1,0,4.7,0c1.6,0,3.2-0.1,4.8-0.2l-0.5,16.7c-1.3,0-2.6,0-3.8-0.1s-2.5-0.1-3.8-0.1
		c-0.8,10.1-1.3,20-1.7,29.9c-0.3,9.9-0.5,19.9-0.5,29.9c0,8.8,0.2,17.5,0.5,26.2c1.8,0,3.6,0,5.5-0.1s3.8-0.1,5.7-0.3L664.5,415.6z
		"/>
	<path class="st2" d="M733.7,296c-0.7,11.2-1.3,22.4-1.7,33.4s-0.6,22.1-0.6,33.2c0,8.7,0.1,17.2,0.4,25.6
		c0.3,8.4,0.7,16.9,1.3,25.5l-16.9-0.5c-2.2-7.3-4.4-14.5-6.6-21.7c-2.2-7.2-4.3-14.3-6.4-21.4c-2.1-7.1-4.3-14.2-6.5-21.2
		s-4.5-14-6.8-21c0.2,14.6,0.4,29.1,0.8,43.6c0.4,14.5,1,28.9,2,43.4l-19.4-0.2c0.7-17.8,1-35.7,1-53.7c0-11.1-0.1-22-0.3-32.8
		s-0.6-21.7-1-32.7l23.5,0.5c2.8,12.3,5.9,24.8,9.1,37.4c3.2,12.7,6.7,25.2,10.3,37.5c-0.4-12.6-1-25.3-1.7-37.9
		c-0.8-12.6-1.6-25.1-2.5-37.2L733.7,296z"/>
</g>
</svg>
