<svg id="Calque_1" data-name="Calque 1" xmlns="http://www.w3.org/2000/svg" viewBox="0 0 1366 768"><defs><style>.cls-1{fill:#fae34b;}.cls-2{fill:#3c98fc;}.cls-3{fill:#f4807d;}.cls-4,.cls-5{fill:#fff;}.cls-10,.cls-11,.cls-12,.cls-4,.cls-5,.cls-6,.cls-7,.cls-8,.cls-9{stroke:#000;}.cls-11,.cls-12,.cls-4,.cls-5,.cls-6,.cls-7,.cls-8,.cls-9{stroke-linecap:round;stroke-linejoin:round;}.cls-10,.cls-4,.cls-9{stroke-width:4.55px;}.cls-5{stroke-width:5.46px;}.cls-10,.cls-11,.cls-12,.cls-6,.cls-7,.cls-9{fill:none;}.cls-6{stroke-width:4.83px;}.cls-7{stroke-width:4.66px;}.cls-11,.cls-8{stroke-width:2.28px;}.cls-10{stroke-miterlimit:10;}.cls-12{stroke-width:3.04px;}</style></defs><title>perdu</title><rect class="cls-1" width="1366" height="768"/><path class="cls-2" d="M276.77,318.08q-5.32-.33-12.21-.5t-14.69-.16q-1.17,15.43-1.91,32t-1.25,33.54q-.5,17-.66,34.21t-.17,34q0,19.1.25,37t1.08,34.45H211.84q1.5-28.22,2.32-60.11t.83-64.26q0-21.09-.49-41.18t-1-39.19q-8,0-15.11.16t-12.79.5l.33-34.7q6,.5,13.45.74t15.7.42q8.22.17,16.85.25t16.94.08h15.69q7.4,0,13.2-.33Z"/><path class="cls-2" d="M399.24,304.11a121.9,121.9,0,0,1-2.08,22.34A94.72,94.72,0,0,1,390.44,348a88.21,88.21,0,0,1-12,19.42,77.27,77.27,0,0,1-17.93,16,492.28,492.28,0,0,0,20.51,45.58,396.89,396.89,0,0,0,25,42.1l-41.52,2.32-28.23-80.2q.68,20.25,1.66,40.18t2.5,39.36H299.94q2.65-37.69,3.9-75.39t1.25-75.89q0-22.08-.34-44.09T303.42,233a90.7,90.7,0,0,1,17.86-3.49q9-.83,15.36-.83a78.67,78.67,0,0,1,10.87.92,57.54,57.54,0,0,1,13.37,3.73,62.9,62.9,0,0,1,13.87,8A51.31,51.31,0,0,1,387,254.88a75.34,75.34,0,0,1,8.8,20.42Q399.24,287.34,399.24,304.11ZM336,366.38a31.86,31.86,0,0,0,10.22-4.89,41.36,41.36,0,0,0,7.72-7.39,46.66,46.66,0,0,0,5.56-8.8,73.74,73.74,0,0,0,3.74-9.3A92.33,92.33,0,0,0,367,312.42c0-.22,0-1.58-.08-4.07A78.15,78.15,0,0,0,366,299q-.84-5.66-2.41-12.29a63.05,63.05,0,0,0-4.57-12.87,42,42,0,0,0-7.63-11,25.75,25.75,0,0,0-11.3-6.81q-2,26.07-3.07,51.89T336,359.91Z"/><path class="cls-2" d="M535.62,263.51q-13.29,42.18-24.83,85.11T489,431.56v10.3q0,8.31.24,15.69t.59,14.61q.33,7.23.91,14.78c.39,5,.85,10.38,1.41,16H452.26q1.32-10.31,2.32-19.18t1.58-17.52q.58-8.64.91-17.77t.33-19.93q-4.65-19.1-9.71-39.68t-10.38-41.35q-5.31-20.76-10.63-41.27t-10.46-39.6l41.52-3.49Q458.4,276.8,460,292t3.73,31q2.16,15.78,4.82,31.89T474,386.4q3.15-15.78,6.23-32.14T486,322q2.65-15.95,4.9-31.06t3.9-28.39Z"/><path class="cls-2" d="M656.26,557.17q-.84-11.46-1.58-23.08t-1.75-23.42q-7.3-.5-14.11-1t-13.78-.5h-2.16q-.84,12-1.5,23.58t-1.16,23.08l-41.51-.67q10.29-59.28,18.6-118.23t14.11-118.89l50,.83q6.32,59.28,15.2,117.81t20.84,117.82ZM636.83,359.89q-3.33,30.56-6.31,60.95T625,482.11q3.48.33,7.14.33h18.26q-2.82-30.88-6.31-61.27T636.83,359.89Z"/><path class="cls-2" d="M802.42,494.14q-.84,6-1.75,13.62t-1.57,16.35q-.68,8.73-1.08,18.27t-.42,19.18q0,2.16.25,6.23t.58,9q.33,4.9.75,10.13c.28,3.49.55,6.76.83,9.8s.52,5.68.75,7.89a30.8,30.8,0,0,0,.66,4.48,72.62,72.62,0,0,1-12.79,4.57q-6.3,1.57-11.29,2.41a102.21,102.21,0,0,1-11.29,1,43.18,43.18,0,0,1-12.87-2.16,46.41,46.41,0,0,1-13.86-7.39,64.18,64.18,0,0,1-13.45-14.28,94.35,94.35,0,0,1-11.46-22.75,176.67,176.67,0,0,1-8-32.79,290.31,290.31,0,0,1-3-44.51q0-25.39,3.57-44.33a160,160,0,0,1,9.3-32.47q5.73-13.53,12.95-22.25A71.76,71.76,0,0,1,744,380.31a48.74,48.74,0,0,1,14.52-7,47.55,47.55,0,0,1,12.21-1.91,67.38,67.38,0,0,1,9.47,1,58.18,58.18,0,0,1,8.38,2.49,24.27,24.27,0,0,1,7.72,4.65L793,412.94a46.14,46.14,0,0,0-8.71-3.4,30.2,30.2,0,0,0-7.73-1.08,21.21,21.21,0,0,0-12.37,3.73,34,34,0,0,0-9.3,9.88A68.27,68.27,0,0,0,748.2,436,120.14,120.14,0,0,0,743.8,452a227.57,227.57,0,0,0-4.65,43.51A238.8,238.8,0,0,0,743,534.16q1.5,7.47,3.74,15A84.39,84.39,0,0,0,752.18,563a46.46,46.46,0,0,0,7.64,11A23.73,23.73,0,0,0,770,580.49q-.35-21.59-2.08-42.84t-5.06-42.84Z"/><path class="cls-2" d="M891.19,543.56q-.84-11.44-1.58-23.08t-1.74-23.41q-7.32-.49-14.12-1t-13.78-.5h-2.16q-.84,12-1.49,23.58t-1.17,23.09l-41.51-.67q10.29-59.28,18.6-118.23t14.11-118.9l50,.83q6.3,59.28,15.19,117.82t20.84,117.82ZM871.76,346.29q-3.33,30.56-6.31,60.94T860,468.51q3.48.33,7.14.33h18.27q-2.83-30.88-6.31-61.28T871.76,346.29Z"/><path class="cls-2" d="M1014.36,580.72q-6.65-.33-13.28-.5t-13.29-.16q-10.95,0-21.92.41T944,581.72l.34-35.7q3.81.5,7.64.74c2.54.17,5.09.36,7.63.58q1-25.73,1.91-51.22t.92-51.07q0-17.1-.5-33.79t-1-33.63q-4.32,0-8.8.17t-9.13.5l.33-34.71q12.78.84,25.57,1.25t25.74.41h9.3c3.1,0,6.25-.11,9.47-.33l-1,33.05q-3.82,0-7.56-.17t-7.55-.17q-2.32,29.89-3.32,59.37t-1,59.36q0,26.08,1,52c3.54,0,7.16-.05,10.87-.17s7.45-.27,11.21-.49Z"/><path class="cls-2" d="M1158.33,399.37q-2.16,33.38-3.32,66.17t-1.17,65.84q0,25.74.75,50.81t2.57,50.49l-33.54-1q-6.64-21.58-13-42.93t-12.71-42.42q-6.32-21.09-12.87-42t-13.53-41.68q.49,43.35,1.58,86.44T1077,635l-38.36-.33q2-53,2-106.44,0-32.88-.66-65.1t-2-64.76l46.49,1q8.47,36.53,18.1,74.22T1123,548q-1.17-37.53-3.41-75.14t-4.9-73.82Z"/><path class="cls-3" d="M263.16,306.38q-5.31-.33-12.2-.5t-14.7-.16q-1.15,15.43-1.91,32t-1.24,33.55q-.5,17-.67,34.2t-.16,34q0,19.1.25,36.95t1.08,34.46H198.24q1.48-28.23,2.32-60.12t.83-64.26q0-21.09-.5-41.18t-1-39.19q-8,0-15.11.16t-12.79.5l.33-34.7q6,.5,13.45.74t15.7.42q8.21.16,16.85.25t16.94.08H251c4.93,0,9.32-.11,13.2-.33Z"/><path class="cls-3" d="M385.64,292.41a121.9,121.9,0,0,1-2.08,22.34,95.22,95.22,0,0,1-6.72,21.59,88.51,88.51,0,0,1-12,19.43,77.47,77.47,0,0,1-17.93,16,492.23,492.23,0,0,0,20.5,45.58,398.67,398.67,0,0,0,25,42.1l-41.52,2.32-28.23-80.2q.66,20.25,1.66,40.18t2.49,39.36H286.34q2.66-37.69,3.9-75.39t1.24-75.89q0-22.08-.33-44.09t-1.33-44.42a90,90,0,0,1,17.85-3.48Q316.73,217,323,217a78.8,78.8,0,0,1,10.88.92,57.54,57.54,0,0,1,13.37,3.73,62.67,62.67,0,0,1,13.86,8,51.13,51.13,0,0,1,12.29,13.53,75.65,75.65,0,0,1,8.8,20.42Q385.64,275.65,385.64,292.41Zm-63.27,62.28a31.82,31.82,0,0,0,10.21-4.9,40.74,40.74,0,0,0,7.72-7.39,46.21,46.21,0,0,0,5.57-8.8,72.19,72.19,0,0,0,3.73-9.3,91.89,91.89,0,0,0,3.82-23.58c0-.22,0-1.58-.08-4.07a80.28,80.28,0,0,0-.91-9.38q-.84-5.65-2.41-12.29a63.66,63.66,0,0,0-4.57-12.87,41.77,41.77,0,0,0-7.64-11,25.66,25.66,0,0,0-11.29-6.81q-2,26.07-3.07,51.89t-1.08,52.06Z"/><path class="cls-3" d="M522,251.82q-13.28,42.18-24.82,85.1t-21.84,82.94v10.3q0,8.31.25,15.69t.58,14.61q.33,7.23.92,14.78t1.41,16H438.65Q440,481,441,472.09t1.58-17.52q.57-8.64.91-17.77t.33-19.92q-4.65-19.1-9.71-39.69t-10.38-41.35q-5.31-20.76-10.63-41.27T402.62,255l41.51-3.49q.67,13.62,2.25,28.81t3.73,31q2.16,15.78,4.82,31.89t5.48,31.55q3.15-15.78,6.23-32.14t5.72-32.29q2.65-15.94,4.9-31.06t3.9-28.39Z"/><path class="cls-3" d="M642.65,545.47q-.82-11.46-1.57-23.08T639.33,499q-7.3-.5-14.11-1t-13.78-.5h-2.16q-.84,12-1.5,23.58t-1.16,23.08l-41.51-.66q10.29-59.3,18.59-118.24t14.12-118.89l50,.83Q654.12,366.46,663,425t20.84,117.82ZM623.23,348.19q-3.33,30.56-6.31,60.95t-5.48,61.27q3.48.33,7.14.33h18.26q-2.82-30.89-6.31-61.27T623.23,348.19Z"/><path class="cls-3" d="M788.82,482.44q-.84,6-1.75,13.62t-1.58,16.36q-.66,8.72-1.08,18.26T784,549.86q0,2.16.25,6.23c.16,2.71.36,5.7.58,9s.47,6.64.75,10.12.55,6.76.83,9.8.52,5.68.74,7.89a31.59,31.59,0,0,0,.67,4.48A71.82,71.82,0,0,1,775,601.92q-6.31,1.58-11.29,2.41a102.42,102.42,0,0,1-11.29,1,43.42,43.42,0,0,1-12.87-2.15,46.91,46.91,0,0,1-13.87-7.39,64.7,64.7,0,0,1-13.45-14.29,94.72,94.72,0,0,1-11.45-22.75,176.62,176.62,0,0,1-8-32.79,291.65,291.65,0,0,1-3-44.5q0-25.41,3.57-44.34a160.65,160.65,0,0,1,9.29-32.47,89.7,89.7,0,0,1,13-22.25,71.72,71.72,0,0,1,14.69-13.78,48.9,48.9,0,0,1,14.53-7,47.55,47.55,0,0,1,12.21-1.91,67.24,67.24,0,0,1,9.46,1,57.92,57.92,0,0,1,8.39,2.49,24.27,24.27,0,0,1,7.72,4.65l-3.32,33.38a46.22,46.22,0,0,0-8.72-3.4,30.13,30.13,0,0,0-7.72-1.08,21.21,21.21,0,0,0-12.37,3.73,34,34,0,0,0-9.3,9.88,68.27,68.27,0,0,0-6.64,13.95,120.14,120.14,0,0,0-4.4,15.94,227.66,227.66,0,0,0-4.65,43.51,238.8,238.8,0,0,0,3.82,38.69q1.49,7.47,3.73,14.95a85.31,85.31,0,0,0,5.48,13.86,46.52,46.52,0,0,0,7.64,11.05,23.68,23.68,0,0,0,10.21,6.47q-.33-21.59-2.07-42.84t-5.07-42.84Z"/><path class="cls-3" d="M877.59,531.87q-.84-11.46-1.58-23.09t-1.75-23.41q-7.31-.5-14.11-1t-13.78-.5h-2.16q-.84,12-1.5,23.58t-1.16,23.09L800,529.87q10.29-59.28,18.6-118.23t14.11-118.9l50,.83q6.32,59.3,15.2,117.82t20.84,117.82ZM858.16,334.59q-3.33,30.56-6.31,60.94t-5.48,61.28q3.48.33,7.14.33h18.26q-2.82-30.88-6.31-61.28T858.16,334.59Z"/><path class="cls-3" d="M1000.76,569q-6.64-.33-13.28-.5t-13.29-.16q-11,0-21.92.41T930.35,570l.33-35.7q3.83.49,7.64.74c2.55.17,5.09.36,7.64.58q1-25.72,1.91-51.22t.91-51.07q0-17.1-.49-33.79t-1-33.63q-4.32,0-8.8.17c-3,.11-6,.28-9.13.5l.33-34.71q12.78.84,25.57,1.25t25.74.41h9.3c3.1,0,6.25-.1,9.46-.33l-1,33q-3.82,0-7.56-.17t-7.55-.17q-2.32,29.9-3.32,59.37t-1,59.37q0,26.07,1,52c3.54,0,7.16,0,10.87-.17s7.45-.27,11.21-.49Z"/><path class="cls-3" d="M1144.72,387.67q-2.16,33.38-3.32,66.17t-1.16,65.84q0,25.74.75,50.82t2.57,50.48L1110,620q-6.64-21.59-13-42.93l-12.7-42.42q-6.32-21.09-12.87-42t-13.53-41.68q.49,43.35,1.58,86.44t3.9,85.93L1025,623q2-53,2-106.44,0-32.88-.66-65.1t-2-64.76l46.5,1q8.48,36.52,18.1,74.22t20.42,74.4q-1.15-37.53-3.4-75.14t-4.9-73.82Z"/><path class="cls-4" d="M639.07,257.24C615.77,283.5,577.6,247,584.2,234.75s52.16-44.64,52.16-44.64Z"/><path class="cls-4" d="M846.15,258.1c23.31,26.26,61.47-10.24,54.88-22.49S848.87,191,848.87,191Z"/><path class="cls-5" d="M800.88,304.76c24.81-11.35,109.63-88,4.07-157.13-40.91-26.78-115.44-14-145,11.39-67.27,57.73-9.77,134.84,28.78,148C724.76,319.25,765.92,320.75,800.88,304.76Z"/><path class="cls-6" d="M691.69,142.72s49.92-4.48,43.49,83.49"/><path class="cls-7" d="M792.26,141.86s-47.94-3.45-41.77,81.84"/><path class="cls-8" d="M712.27,250.5c-3.17,11.06,49.39,12.95,61.45,1.45,6.27-6-21.82-30.84-31.13-31.07S715.09,240.67,712.27,250.5Z"/><path class="cls-9" d="M758.9,285.18c-5.3-14.85-26.39-13.66-31.77-.31"/><line class="cls-10" x1="743.34" y1="259.97" x2="743.34" y2="274.81"/><path class="cls-11" d="M836.49,174.18"/><path d="M775,208.41c2.72.54,5.28,1.12,7.81,1.66l3.78.76c1.26.21,2.5.48,3.75.76a26,26,0,0,0,7.71,1.17,15.7,15.7,0,0,0,7.37-2.44c.56-.33,1.09-.72,1.62-1.07s1-.78,1.53-1.14c1-.79,2-1.54,2.93-2.38.49-.39.9-.88,1.36-1.3a16.7,16.7,0,0,0,1.3-1.36c.22-.23.42-.46.64-.68l.76-.77a14,14,0,0,1,1.66-1.49,13.61,13.61,0,0,1,4.1-2.27,12.79,12.79,0,0,1,4.54-.63,17.33,17.33,0,0,0,3.66-.14A13.9,13.9,0,0,0,833,195.7h0a.22.22,0,0,1,.31.1.22.22,0,0,1,0,.22,9,9,0,0,1-3,3.21,13,13,0,0,1-4.17,1.56A12.76,12.76,0,0,0,823,202a14.14,14.14,0,0,0-2.71,1.94c-.21.2-.44.38-.66.57s-.43.44-.65.64l-.68.64c-.26.25-.53.48-.8.72a29.74,29.74,0,0,1-3.36,2.66,24.07,24.07,0,0,1-3.72,2.14,25.59,25.59,0,0,1-4,1.36c-2.76.68-5.45,1.1-8.15,1.59a44.1,44.1,0,0,1-8.33,1.15,22.49,22.49,0,0,1-8.17-1.91,20.7,20.7,0,0,1-7-4.65.23.23,0,0,1,0-.33.26.26,0,0,1,.21-.06Z"/><path d="M656.75,195.7a15.54,15.54,0,0,0,3.58,1.34,20.81,20.81,0,0,0,3.64.21,12.55,12.55,0,0,1,4.47.78,10.51,10.51,0,0,1,3.84,2.51c.26.26.51.53.76.8l.65.87c.45.6.82,1.13,1.19,1.66a15.31,15.31,0,0,0,2.59,3,15.68,15.68,0,0,0,6.94,3.48c.64.13,1.26.29,1.9.38s1.26.22,1.89.28c1.26.14,2.5.33,3.75.37a52.13,52.13,0,0,0,7.49-.29,105.19,105.19,0,0,0,15.39-2.65h0a.24.24,0,0,1,.28.18.22.22,0,0,1-.06.21,24.58,24.58,0,0,1-7,4.67,29.45,29.45,0,0,1-8.11,2.42,26.75,26.75,0,0,1-8.56-.27,21.37,21.37,0,0,1-4.15-1.11,24.78,24.78,0,0,1-3.83-1.89c-2.43-1.46-4.64-3.06-6.89-4.62s-4.72-3.25-6.69-4.52a25.63,25.63,0,0,0-3-1.71,14.87,14.87,0,0,0-3.33-1,12.42,12.42,0,0,1-4.19-1.48,8.51,8.51,0,0,1-3-3.27.23.23,0,0,1,.09-.32.28.28,0,0,1,.22,0Z"/><path d="M630.09,230a20.74,20.74,0,0,1-3.59,6.86,28.4,28.4,0,0,1-5.51,5.44,24.59,24.59,0,0,1-7,3.59,15.86,15.86,0,0,1-7.82.54c2.29-1.36,4.35-2.49,6.33-3.78s3.86-2.62,5.75-4l5.68-4.29C625.91,232.93,627.87,231.47,630.09,230Z"/><path d="M856.41,230c2.21,1.43,4.18,2.89,6.11,4.35l5.69,4.29c1.88,1.39,3.79,2.7,5.75,4s4,2.42,6.32,3.78a15.87,15.87,0,0,1-7.82-.54,24.59,24.59,0,0,1-7-3.59,28.07,28.07,0,0,1-5.5-5.44A20.56,20.56,0,0,1,856.41,230Z"/><path class="cls-12" d="M679.64,164"/><path d="M858,135.73a59.13,59.13,0,0,0-21.73.54,55.6,55.6,0,0,0-10.18,3.41,61.5,61.5,0,0,0-9.31,5.29,66.49,66.49,0,0,0-8.32,6.77,80.39,80.39,0,0,0-7.37,7.84c-1.14,1.39-2.25,2.81-3.31,4.27s-2.12,2.91-3.12,4.41a82.67,82.67,0,0,0-5.37,9.27L785.91,175a163.72,163.72,0,0,1,14.1-9.8,123.37,123.37,0,0,1,15.19-8,56.87,56.87,0,0,1,16.59-4.62,24.69,24.69,0,0,1,8.65.57,15.45,15.45,0,0,1,7.36,4.26,15.83,15.83,0,0,0-7.57-3.29,25.65,25.65,0,0,0-8.2.24,59,59,0,0,0-15.56,5.6,126.94,126.94,0,0,0-14.38,8.48,161.15,161.15,0,0,0-13.41,9.91l0,0a2.17,2.17,0,0,1-3.35-2.6,86.17,86.17,0,0,1,5.59-9.93,85.11,85.11,0,0,1,6.74-9.09,86.83,86.83,0,0,1,7.87-8.18,71.45,71.45,0,0,1,9.09-6.86,53,53,0,0,1,21.2-7.93A50,50,0,0,1,858,135.73Z"/><path d="M822.05,172l-8.86.59c-2.93.23-5.84.46-8.74.81s-5.77.8-8.64,1.33-5.66,1.35-8.53,2.24a30.35,30.35,0,0,1,8.08-4,51.28,51.28,0,0,1,8.82-1.87,61.29,61.29,0,0,1,9-.32A44.4,44.4,0,0,1,822.05,172Z"/><path d="M604.48,134.92a40.58,40.58,0,0,1,10.72-4.79,37.44,37.44,0,0,1,11.85-1.3,42.38,42.38,0,0,1,11.78,2.37,54.43,54.43,0,0,1,10.82,5.2,78.91,78.91,0,0,1,9.63,7.07,109.22,109.22,0,0,1,16,17.49,113.75,113.75,0,0,1,6.57,9.93,2.17,2.17,0,0,1-3.24,2.78h0c-4.32-3.52-8.89-6.9-13.53-10.07a158,158,0,0,0-14.32-8.9,67.45,67.45,0,0,0-15.42-6.45,22.8,22.8,0,0,0-8.21-.69,11.13,11.13,0,0,0-7.22,3.81,11.32,11.32,0,0,1,7-4.79,22.36,22.36,0,0,1,8.74-.09,63.78,63.78,0,0,1,16.44,5.5,149.76,149.76,0,0,1,15.08,8.39c4.84,3.11,9.53,6.36,14.13,9.91l-3.26,2.77a109.8,109.8,0,0,0-6.39-9.41q-1.73-2.28-3.54-4.49t-3.7-4.35a103.77,103.77,0,0,0-8-8.07,75.57,75.57,0,0,0-8.89-7,58.45,58.45,0,0,0-9.89-5.37,44,44,0,0,0-10.81-3,38.94,38.94,0,0,0-11.3.2A46.57,46.57,0,0,0,604.48,134.92Z"/><path d="M645.32,166.23a43.81,43.81,0,0,1,8.91-1,61.18,61.18,0,0,1,9,.51,50.93,50.93,0,0,1,8.78,2.07,30.33,30.33,0,0,1,8,4.14c-2.84-1-5.64-1.76-8.48-2.43s-5.71-1.13-8.6-1.52-5.8-.71-8.72-1Z"/><path d="M691.69,240.31c-15,3.84-29.75,8.26-44.35,13.11s-29,10.27-43.07,16.39a369.65,369.65,0,0,0-41.06,20.73c-3.28,2-6.56,4-9.76,6.08s-6.37,4.29-9.54,6.46c-6.25,4.48-12.25,9.3-18.12,14.35a169,169,0,0,1,16.75-16.12,222.62,222.62,0,0,1,18.79-13.79c6.52-4.25,13.26-8.14,20.11-11.81s13.91-6.95,21-10.07,14.36-5.9,21.67-8.52,14.7-5,22.16-7.08A313.35,313.35,0,0,1,691.69,240.31Z"/><path d="M677,256.4q-21.72,9.53-42.94,19.86c-7.06,3.49-14.12,7-21.08,10.64s-13.92,7.32-20.73,11.23-13.65,7.8-20.3,12S558.7,318.52,552.26,323A272.24,272.24,0,0,0,515.87,353c9.81-12.42,21.68-23.2,34.3-32.81l4.75-3.59,4.86-3.44c1.61-1.16,3.27-2.24,4.91-3.36s3.28-2.23,5-3.29c6.65-4.33,13.49-8.36,20.37-12.29q20.75-11.62,42.55-21.12A410.81,410.81,0,0,1,677,256.4Z"/><path d="M681.71,267.39c-16.2,9.15-31.76,19.24-46.93,29.87l-5.65,4c-1.88,1.36-3.81,2.64-5.64,4.05l-11.11,8.32-10.91,8.59-2.72,2.15-2.66,2.23-5.31,4.46-5.34,4.43c-1.75,1.5-3.46,3.07-5.19,4.6-3.45,3.08-6.93,6.13-10.35,9.25C563.22,355.77,556.37,362,550,368.7c-13.19,13-25.18,27.15-37.27,41.3,10.57-15.28,21.9-30.18,34.7-43.74l4.72-5.18c.77-.87,1.58-1.71,2.42-2.52l2.48-2.47,9.93-9.86c3.38-3.21,6.9-6.28,10.34-9.43,1.74-1.56,3.44-3.15,5.2-4.68l5.36-4.5,5.39-4.46,2.7-2.23,2.76-2.15,11.08-8.54,11.39-8.12c3.8-2.71,7.74-5.21,11.62-7.8C648.43,284.19,664.65,274.86,681.71,267.39Z"/><path d="M791.87,240.31A313.51,313.51,0,0,1,837.26,250c7.47,2.1,14.84,4.52,22.16,7.08s14.53,5.49,21.68,8.52,14.12,6.48,21,10.07,13.59,7.56,20.1,11.81A221,221,0,0,1,941,301.31a167.88,167.88,0,0,1,16.75,16.12c-5.87-5.05-11.87-9.87-18.11-14.35-3.18-2.17-6.28-4.43-9.54-6.46s-6.49-4.09-9.76-6.08a370.52,370.52,0,0,0-41.06-20.73c-14.08-6.12-28.48-11.51-43.07-16.39S806.85,244.15,791.87,240.31Z"/><path d="M806.56,256.4A409.87,409.87,0,0,1,851,273.05q21.76,9.49,42.56,21.12c6.88,3.93,13.72,8,20.37,12.29,1.67,1.06,3.31,2.18,5,3.29s3.3,2.2,4.91,3.36l4.85,3.44,4.76,3.59c12.61,9.61,24.48,20.39,34.3,32.81A271.7,271.7,0,0,0,931.29,323q-9.64-6.74-19.69-12.91c-6.65-4.17-13.44-8.13-20.29-12s-13.76-7.6-20.74-11.23-14-7.15-21.07-10.64Q828.26,265.93,806.56,256.4Z"/><path d="M801.85,267.39c17,7.47,33.27,16.8,48.91,26.93,3.88,2.59,7.81,5.09,11.61,7.8l11.39,8.12,11.09,8.54,2.76,2.15,2.69,2.23,5.39,4.46,5.36,4.5c1.76,1.53,3.47,3.12,5.21,4.68,3.44,3.15,7,6.22,10.34,9.43l9.93,9.86,2.48,2.47c.84.81,1.64,1.65,2.42,2.52l4.71,5.18c12.81,13.56,24.14,28.46,34.7,43.74-12.09-14.15-24.07-28.28-37.27-41.3-6.39-6.7-13.24-12.93-19.92-19.32-3.42-3.12-6.9-6.17-10.34-9.25-1.74-1.53-3.44-3.1-5.2-4.6l-5.34-4.43-5.31-4.46-2.65-2.23-2.73-2.15-10.9-8.59-11.12-8.32c-1.83-1.41-3.76-2.69-5.63-4.05l-5.65-4C833.61,286.63,818,276.54,801.85,267.39Z"/><circle class="cls-3" cx="808.73" cy="247.72" r="21.47"/><circle class="cls-3" cx="679.64" cy="247.72" r="21.47"/></svg>