<?xml version="1.0" encoding="utf-8"?>
<!-- Generator: Adobe Illustrator 22.1.0, SVG Export Plug-In . SVG Version: 6.00 Build 0)  -->
<svg version="1.1" id="Calque_1" xmlns="http://www.w3.org/2000/svg" xmlns:xlink="http://www.w3.org/1999/xlink" x="0px" y="0px"
	 viewBox="0 0 841.9 595.3" style="enable-background:new 0 0 841.9 595.3;" xml:space="preserve">
<style type="text/css">
	.st0{fill:#FFFFFF;}
</style>
<path class="st0" d="M463.9,371.4c9.2,0.5,7.8-21.9,25.4-17.3c17.7,4.5,38.7-0.8,45.1-10.5c6.6-9.8,36.8-14.7,34.1,0
	c-2.7,14.7,22.3,10.7,22.3,10.7s-14.4-8.8,1.9-15.6c16.4-6.8,9.8,8.4,34.1,12c24.3,3.6,39.3-11.1,39.3-11.1
	c44.9-25.4,67.4-10.6,67.4,1.4s12,20.5,32.2,15.6c-10.7-2.3-10.7-22.8,7.1-16.8c17.8,6,39.4-4.9,29.9-20.5
	c-5.5-8.8-1.1-30.1,13.2-21.6c14.4,8.4,33.4-9.6,17.8-22.8c-3.6,12-21.5,6-13.2-4.9c8.4-10.7-7.1-32.4-14.4-21.6
	c-7.1,10.7-32.2-8.4-22.6-16.8c9.5-8.4,7.1-32.4-6-30.1c10.7,12-22.6,37.2-38.2,9.6s-45.4-12-45.4-6c0,6-16.7,16.8-28.6,6.8
	c-14.2-12,4.3-12.9,4.3-12.9c-0.9-11.3-29.4-15-27.6,11.8c1.8,26.7-27.6,29-39.3,16c-11.7-13.2-28.5-3.5-28.5-3.5
	c19.2-1.7,12.6,17.6,0,16c-38-5.1-62.1-21.1-85.1-1.2c-23,19.9-34.5,14.6-50-3.7c-8.1-9.5-30.1-9.3-36.9,0
	c-14.1,19.3-27,23.7-50,3.7s-47.1-4.1-85.1,1.2c-12.6,1.7-19.2-17.6,0-16c0,0-16.8-9.7-28.5,3.5c-11.7,13.2-41.1,10.7-39.3-16
	c1.7-26.7-26.8-23-27.6-11.8c0,0,18.7,0.9,4.3,12.9c-12,10.1-28.6-0.8-28.6-6.8c0-6-29.9-21.6-45.4,6s-49.1,2.3-38.2-9.6
	c-13.2-2.3-15.5,21.6-6,30.1c9.5,8.4-15.5,27.6-22.6,16.8c-7.1-10.7-22.6,10.7-14.4,21.6c8.3,10.7-9.5,16.8-13.2,4.9
	c-15.5,13.3,3.6,31.2,17.8,22.8c14.4-8.4,18.6,12.8,13.2,21.6c-9.5,15.6,12,26.5,29.9,20.5c17.8-6,17.8,14.4,7.1,16.8
	c20.3,4.9,32.2-3.6,32.2-15.6s22.4-26.9,67.4-1.4c0,0,15.1,14.7,39.3,11.1c24.3-3.6,17.7-18.7,34.1-12c16.4,6.8,1.9,15.6,1.9,15.6
	s24.9,4.1,22.3-10.7c-2.7-14.7,27.6-9.8,34.1,0c6.6,9.8,27.6,15,45.1,10.5c17.6-4.5,16.3,17.1,25.4,17.3
	c20.9,0.4,21.6-12.3,36.2,2.9c5.5,5.6,8.1,3.2,10.9-0.9C436.5,357,450,370.6,463.9,371.4z"/>
<path class="st0" d="M813.6,199.5c0,0-0.9,11.1,8.6,15c0,0-8.2,1.9-7.7,14.2c0,0-0.5-12.5-8.7-13.3
	C806,215.5,812.1,212.9,813.6,199.5z"/>
<path class="st0" d="M15.6,346.6c0,0-0.9,11.1,8.6,15c0,0-8.2,1.9-7.7,14.2c0,0-0.5-12.5-8.7-13.3C7.8,362.4,14.2,359.7,15.6,346.6z
	"/>
</svg>
