<?xml version="1.0" encoding="utf-8"?>
<!-- Generator: Adobe Illustrator 22.1.0, SVG Export Plug-In . SVG Version: 6.00 Build 0)  -->
<svg version="1.1" id="Calque_1" xmlns="http://www.w3.org/2000/svg" xmlns:xlink="http://www.w3.org/1999/xlink" x="0px" y="0px"
	 viewBox="0 0 841.9 595.3" style="enable-background:new 0 0 841.9 595.3;" xml:space="preserve">
<style type="text/css">
	.st0{fill:#FFFFFF;}
	.st1{fill:#3C98FC;}
	.st2{fill:#F4807D;}
</style>
<g>
	<path d="M435.2,527.2c-4,2.1-7.8,4.2-11.7,6.2c-18.9,9.4-38.9,15.6-59.8,18.8c-15.4,2.4-31,3.2-46.6,2.3
		c-38.9-2.4-74.9-13.5-107.3-35.7c-3.2-2.2-6.3-4.6-9.4-7c-1.1-0.9-2.1-1.1-3.4-0.5c-9.3,3.7-18.8,6.5-28.7,8.3
		c-26.6,4.9-52.1,1.6-76.7-9.6c-19-8.7-35.6-20.6-48.8-37c-13-16.1-21.1-34.5-25.4-54.6c-1-4.6-1.7-9.3-2.5-13.9
		c-0.2-1.1-0.3-2.2-0.3-3.3c0.1-7.5,0.1-15,0.3-22.5c0.1-2.8,0.9-5.5,1.5-8.2c2.5-11.6,5.8-22.9,11.1-33.6
		c18-35.9,46.7-58.7,85.4-68.8c15.5-4.1,31.3-5,47.3-3.5c0.8,0.1,1.6,0.1,2.6,0.1c0.3-0.8,0.6-1.6,0.8-2.4
		c6.5-19.5,15.9-37.5,29-53.4c17.6-21.5,39.7-36.8,65.3-47.2c20.8-8.5,42.4-12.2,64.8-11.4c14.8,0.5,29.4,3.1,43.6,7.2
		c0.8,0.2,1.5,0.4,2.5,0.7c0.4-0.8,0.8-1.5,1.2-2.3c8.3-16.6,18.1-32.1,30.1-46.3c26.2-31,59.2-50.9,98.7-60.1
		c14.1-3.3,28.4-5,43-4.8c6.9,0.1,13.7,1.2,20.4,2.5c22.5,4.3,43.8,12,63.8,23.3c36.3,20.4,62.4,50,79.1,88
		c6.5,14.7,11.2,29.9,14.7,45.5c1.3,5.6,0.4,4.8,6,6.1c21.8,5,41.4,14.4,58.3,29.2c14.2,12.4,25.1,27.4,33.6,44.2
		c8.2,16.2,14,33.3,16.6,51.3c5.8,40.1-1.1,77.8-22.4,112.5c-8.8,14.3-19.9,26.8-33.4,36.9c-12.8,9.5-27.1,15.4-42.9,18
		c-13.8,2.3-27.7,2.2-41.6,1.6c-12.6-0.5-25.2-1-37.8-1.6c-1.7-0.1-2.8,0.5-3.9,1.7c-5.9,6.5-11.6,13.3-17.9,19.3
		c-21.9,21.1-47.8,34.5-77.9,39.3c-44.3,7-83.7-4.5-118.3-32.7c-0.8-0.7-1.6-1.3-2.4-2C435.6,527.4,435.4,527.4,435.2,527.2z
		 M176.7,286c-3.9-0.5-7.5-0.9-11.1-1.5c-16.7-2.4-33.3-1.9-49.6,2.6c-32.2,8.9-56.2,28.1-71.2,58.1c-4.7,9.5-7.6,19.6-9.8,30
		c-0.4,1.9-0.9,3.9-0.9,5.9c-0.2,6.2-0.2,12.5-0.2,18.7c0,1.3,0,2.6,0.3,3.8c0.9,4.7,1.7,9.4,2.8,14.1c4.2,17.5,11.7,33.2,23.7,46.7
		c11.6,13,25.7,22.4,41.6,29.3c19.5,8.4,39.8,10.8,60.7,7.3c9.6-1.6,18.8-4.4,27.8-7.9c1.9-0.7,3.9-1.4,6-1.7
		c5.2-0.9,9.7,0.8,13.9,3.9c4.9,3.7,9.8,7.5,14.9,10.8c28.7,18.4,60.4,27.5,94.3,29.2c13.8,0.7,27.6,0,41.3-2.2
		c22.3-3.6,43.4-10.6,63-21.9c1.5-0.9,3.1-1.7,4.7-2.4c5.6-2.3,10.9-1.8,16,1.4c1.5,0.9,2.8,2.1,4.2,3.2c3.5,2.7,6.9,5.7,10.6,8.2
		c29.8,20.4,62.5,27.7,98,20.8c26-5.1,48.2-17.5,66.6-36.5c6.4-6.6,12.4-13.5,18.5-20.5c2.6-3,5.6-4.2,9.5-3.8
		c6.4,0.6,12.7,1.1,19.1,1.5c8.7,0.5,17.4,0.8,26.1,1.2c10.9,0.5,21.9,0.4,32.8-1.1c13.7-1.9,26.2-6.8,37.3-15.2
		c11.9-9.1,21.6-20.2,29.2-33c17.5-29.3,23.2-61,19-94.7c-2.5-20.1-9.3-38.9-19.5-56.4c-16-27.5-39.2-45.9-70.1-54.1
		c-3.4-0.9-6.8-1.6-10.2-2.7c-6.6-2.1-11.1-6.5-13.2-13.1c-0.5-1.6-1-3.2-1.3-4.8c-3.2-14.5-7.5-28.7-13.5-42.4
		c-14.6-33.6-37.3-60-69.1-78.4c-18.5-10.8-38.3-18.2-59.4-22.2c-6.4-1.2-12.9-2.4-19.5-2.4c-13,0-25.8,1.7-38.4,4.8
		c-31.9,7.7-59.2,23.4-81.5,47.5c-13.8,15-24.7,31.9-33.6,50.2c-2.4,4.8-5,9.4-7.6,14.1c-0.2,0.3-0.5,0.6-0.8,1
		c-1.9-0.7-3.8-1.3-5.7-1.9c-16.6-5.8-33.6-9.5-51.3-10c-19.2-0.6-37.7,2.7-55.5,9.9c-23.3,9.4-43.4,23.4-59.2,43.1
		c-12.2,15.2-20.5,32.5-26.1,51.1C179,277.5,177.9,281.6,176.7,286z"/>
	<path class="st0" d="M176.7,286c1.2-4.3,2.3-8.4,3.5-12.5c5.6-18.6,13.9-35.8,26.1-51.1c15.8-19.8,35.8-33.7,59.2-43.1
		c17.8-7.2,36.3-10.5,55.5-9.9c17.6,0.5,34.7,4.2,51.3,10c1.9,0.7,3.8,1.3,5.7,1.9c0.3-0.4,0.6-0.7,0.8-1c2.5-4.7,5.2-9.3,7.6-14.1
		c9-18.2,19.8-35.2,33.6-50.2c22.3-24.2,49.6-39.8,81.5-47.5c12.6-3,25.4-4.7,38.4-4.8c6.6,0,13,1.2,19.5,2.4
		c21,4.1,40.8,11.5,59.4,22.2c31.8,18.4,54.5,44.9,69.1,78.4c5.9,13.7,10.3,27.8,13.5,42.4c0.4,1.6,0.8,3.3,1.3,4.8
		c2.2,6.6,6.6,11,13.2,13.1c3.3,1.1,6.8,1.8,10.2,2.7c31,8.2,54.1,26.6,70.1,54.1c10.2,17.5,17,36.3,19.5,56.4
		c4.2,33.6-1.6,65.4-19,94.7c-7.6,12.8-17.3,23.9-29.2,33c-11.1,8.4-23.6,13.2-37.3,15.2c-10.9,1.5-21.8,1.6-32.8,1.1
		c-8.7-0.4-17.4-0.7-26.1-1.2c-6.4-0.4-12.7-0.9-19.1-1.5c-3.9-0.4-6.9,0.9-9.5,3.8c-6.1,6.9-12.1,13.9-18.5,20.5
		c-18.4,19-40.6,31.4-66.6,36.5c-35.5,7-68.2-0.3-98-20.8c-3.7-2.5-7.1-5.5-10.6-8.2c-1.4-1.1-2.7-2.2-4.2-3.2
		c-5.1-3.2-10.5-3.7-16-1.4c-1.6,0.7-3.2,1.5-4.7,2.4c-19.6,11.3-40.7,18.3-63,21.9c-13.7,2.2-27.5,2.9-41.3,2.2
		c-33.9-1.7-65.6-10.8-94.3-29.2c-5.2-3.3-10-7.1-14.9-10.8c-4.1-3.2-8.7-4.8-13.9-3.9c-2,0.3-4,1-6,1.7c-9,3.5-18.2,6.3-27.8,7.9
		c-21,3.5-41.2,1-60.7-7.3c-15.9-6.8-30-16.2-41.6-29.3c-12-13.5-19.5-29.3-23.7-46.7c-1.1-4.7-1.9-9.4-2.8-14.1
		c-0.2-1.2-0.3-2.5-0.3-3.8c0-6.2,0-12.5,0.2-18.7c0.1-2,0.5-3.9,0.9-5.9c2.2-10.3,5-20.5,9.8-30c15-30.1,38.9-49.3,71.2-58.1
		c16.3-4.5,32.9-5,49.6-2.6C169.2,285,172.8,285.5,176.7,286z"/>
</g>
<g>
	<path class="st1" d="M208.9,390.4c0,3.8-0.4,7.1-1.2,9.9c-0.8,2.8-1.8,5.3-3.1,7.3s-2.7,3.7-4.3,5c-1.6,1.3-3.2,2.4-4.8,3.1
		s-3.2,1.3-4.7,1.6c-1.5,0.3-2.8,0.5-3.9,0.5c-0.6,0-1.4,0-2.4-0.1c-1-0.1-2.2-0.2-3.4-0.5c-1.3-0.2-2.7-0.6-4.3-1s-3.2-1.1-4.9-1.9
		l0.8-18.1c2.8,2.4,5.3,4,7.6,4.8c2.2,0.8,4.1,1.2,5.6,1.2c3,0,5.2-1.1,6.7-3.2c1.5-2.2,2.3-4.9,2.3-8.4c0-2.3-0.6-4.9-1.7-7.7
		s-3.1-5.9-6-9.2c-2-2.3-4-4.7-6.1-7.2c-2.1-2.5-4-5.1-5.7-8c-1.7-2.8-3.1-5.9-4.2-9.1c-1.1-3.3-1.6-6.8-1.6-10.5
		c0-4.8,0.7-8.9,2-12.4c1.3-3.5,3.1-6.4,5.3-8.7c2.2-2.3,4.7-4,7.6-5.1c2.8-1.1,5.8-1.7,8.9-1.7c2.7,0,5.5,0.4,8.4,1.1
		c2.8,0.7,5.7,1.9,8.6,3.4l-1.4,18.1c-1.2-1.6-2.5-2.8-3.9-3.8c-1.4-0.9-2.7-1.6-3.9-2.1c-1.3-0.5-2.4-0.8-3.5-0.9
		c-1.1-0.1-2-0.2-2.7-0.2c-1.4,0-2.7,0.3-3.8,1c-1.2,0.7-2.2,1.6-3,2.8s-1.5,2.6-2,4.2s-0.7,3.3-0.7,5.1c0,2.7,0.6,5.2,1.8,7.4
		s2.6,4.4,4.4,6.5c1.8,2.2,3.7,4.4,5.7,6.6c2,2.3,3.9,4.8,5.7,7.7s3.2,6.1,4.4,9.8C208.3,381.4,208.9,385.6,208.9,390.4z"/>
	<path class="st1" d="M252.5,327.9c-1.5-0.1-3.3-0.2-5.3-0.2c-2,0-4.1-0.1-6.3-0.1c-0.3,4.4-0.6,9-0.8,13.8s-0.4,9.6-0.5,14.5
		c-0.1,4.9-0.2,9.8-0.3,14.8c0,4.9-0.1,9.8-0.1,14.7c0,5.5,0,10.8,0.1,16c0.1,5.1,0.2,10.1,0.5,14.9h-15.3c0.4-8.1,0.8-16.8,1-26
		c0.2-9.2,0.4-18.4,0.4-27.7c0-6.1-0.1-12-0.2-17.8s-0.3-11.4-0.4-16.9c-2.3,0-4.5,0-6.5,0.1s-3.9,0.1-5.5,0.2l0.1-15
		c1.7,0.1,3.7,0.3,5.8,0.3c2.2,0.1,4.4,0.1,6.8,0.2s4.8,0.1,7.3,0.1s4.9,0,7.3,0s4.6,0,6.8,0s4,0,5.7-0.1L252.5,327.9z"/>
	<path class="st1" d="M286.2,416.4c-0.2-3.3-0.5-6.6-0.7-10c-0.2-3.3-0.5-6.7-0.8-10.1c-2.1-0.1-4.1-0.3-6.1-0.4
		c-2-0.1-3.9-0.2-6-0.2h-0.9c-0.2,3.4-0.5,6.8-0.6,10.2c-0.2,3.3-0.4,6.7-0.5,10l-17.9-0.3c3-17.1,5.6-34.1,8-51
		c2.4-17,4.4-34.1,6.1-51.3l21.6,0.4c1.8,17.1,4,34,6.6,50.9c2.6,16.8,5.6,33.8,9,50.9L286.2,416.4z M277.8,331.2
		c-1,8.8-1.9,17.6-2.7,26.3c-0.9,8.7-1.6,17.6-2.4,26.5c1,0.1,2,0.1,3.1,0.1s2.1,0,3.2,0h4.7c-0.8-8.9-1.7-17.7-2.7-26.5
		C279.9,348.9,278.9,340.1,277.8,331.2z"/>
	<path class="st1" d="M350.6,343.6c0,3.2-0.3,6.4-0.9,9.6s-1.6,6.3-2.9,9.3c-1.3,3-3.1,5.8-5.2,8.4c-2.1,2.6-4.7,4.9-7.7,6.9
		c2.7,6.8,5.6,13.4,8.9,19.7c3.2,6.3,6.8,12.3,10.8,18.2l-17.9,1l-12.2-34.6c0.2,5.8,0.4,11.6,0.7,17.4s0.6,11.4,1.1,17h-17.5
		c0.8-10.9,1.3-21.7,1.7-32.6c0.4-10.9,0.5-21.8,0.5-32.8c0-6.4,0-12.7-0.1-19c-0.1-6.3-0.3-12.7-0.6-19.2c2.5-0.8,5.1-1.3,7.7-1.5
		c2.6-0.2,4.8-0.4,6.6-0.4c1.3,0,2.9,0.1,4.7,0.4s3.8,0.8,5.8,1.6s4,2,6,3.4c2,1.5,3.8,3.4,5.3,5.8c1.6,2.4,2.8,5.4,3.8,8.8
		S350.6,338.7,350.6,343.6z M323.3,370.4c1.7-0.5,3.1-1.2,4.4-2.1c1.3-0.9,2.4-2,3.3-3.2c1-1.2,1.8-2.5,2.4-3.8
		c0.6-1.3,1.2-2.7,1.6-4c1-3.1,1.5-6.5,1.6-10.2c0-0.1,0-0.7,0-1.8s-0.2-2.4-0.4-4.1s-0.6-3.4-1-5.3c-0.5-1.9-1.1-3.8-2-5.6
		c-0.9-1.8-2-3.4-3.3-4.8c-1.3-1.4-3-2.4-4.9-2.9c-0.6,7.5-1,15-1.3,22.4c-0.3,7.4-0.5,14.9-0.5,22.5V370.4z"/>
	<path class="st1" d="M393.7,327.9c-1.5-0.1-3.3-0.2-5.3-0.2c-2,0-4.1-0.1-6.3-0.1c-0.3,4.4-0.6,9-0.8,13.8s-0.4,9.6-0.5,14.5
		s-0.2,9.8-0.3,14.8c0,4.9-0.1,9.8-0.1,14.7c0,5.5,0,10.8,0.1,16c0.1,5.1,0.2,10.1,0.5,14.9h-15.3c0.4-8.1,0.8-16.8,1-26
		c0.2-9.2,0.4-18.4,0.4-27.7c0-6.1-0.1-12-0.2-17.8c-0.1-5.8-0.3-11.4-0.4-16.9c-2.3,0-4.5,0-6.5,0.1s-3.9,0.1-5.5,0.2l0.1-15
		c1.7,0.1,3.7,0.3,5.8,0.3c2.2,0.1,4.4,0.1,6.8,0.2c2.4,0,4.8,0.1,7.3,0.1s4.9,0,7.3,0c2.4,0,4.6,0,6.8,0s4,0,5.7-0.1L393.7,327.9z"
		/>
	<path class="st1" d="M465.8,344.6c0,4.1-0.5,8.1-1.6,12.1s-2.7,7.6-4.9,10.9s-5,6.3-8.4,8.9c-3.4,2.6-7.4,4.5-12,5.8
		c0.1,5.8,0.2,11.5,0.4,17.2c0.2,5.7,0.4,11.3,0.6,16.9h-17.5c0.8-10.9,1.3-21.7,1.7-32.6c0.4-10.9,0.5-21.8,0.5-32.8
		c0-6.4,0-12.7-0.1-19c-0.1-6.3-0.3-12.7-0.6-19.2c2.5-0.8,5.1-1.3,7.7-1.5s4.8-0.4,6.6-0.4c1.3,0,2.9,0.1,4.8,0.4
		c1.9,0.3,3.8,0.8,5.9,1.7s4.1,2,6.1,3.5c2,1.5,3.9,3.5,5.5,6s2.9,5.6,3.9,9.1C465.3,335.4,465.8,339.7,465.8,344.6z M438.7,370.2
		c1.6-0.6,3-1.3,4.1-2.3c1.2-1,2.2-2,3.1-3.2c0.9-1.2,1.6-2.4,2.2-3.8c0.6-1.3,1.1-2.7,1.5-3.9c0.9-3,1.4-6.3,1.6-9.8
		c0,0,0-0.6,0-1.6s-0.1-2.4-0.4-4c-0.2-1.6-0.6-3.4-1-5.3c-0.5-1.9-1.1-3.8-2-5.6s-1.9-3.4-3.2-4.8c-1.3-1.4-2.9-2.4-4.8-3
		c-0.4,7.4-0.6,14.8-0.8,22.3s-0.2,14.9-0.2,22.5V370.2z"/>
	<path class="st1" d="M509.4,416c-2.7-0.1-5.3-0.2-7.8-0.2c-2.5,0-5-0.1-7.5-0.1c-3.7,0-7.4,0.1-11,0.2c-3.6,0.1-7.4,0.3-11.3,0.5
		c0.4-8.9,0.8-17.7,1-26.4c0.3-8.7,0.4-17.5,0.4-26.4c0-8.5-0.1-17-0.3-25.3c-0.2-8.4-0.6-16.8-1.1-25.3c0.5,0,1,0.1,1.6,0.1
		c0.5,0,1.2,0.1,1.9,0.1s1.6,0,2.6,0c1.5,0,3.2,0,5-0.1c1.8-0.1,3.6-0.2,5.4-0.3c-0.6,6.9-1.1,14.1-1.3,21.7s-0.4,15.3-0.5,23.1
		c-0.1,7.8-0.1,15.5-0.1,23.2c0,7.7-0.1,15.2-0.3,22.3c3.9-0.1,7.7-0.3,11.4-0.6c3.7-0.3,7.6-0.7,11.8-1.4V416z"/>
	<path class="st1" d="M544.4,416.4c-0.2-3.3-0.5-6.6-0.7-10c-0.2-3.3-0.5-6.7-0.8-10.1c-2.1-0.1-4.1-0.3-6.1-0.4s-3.9-0.2-6-0.2H530
		c-0.2,3.4-0.5,6.8-0.6,10.2c-0.2,3.3-0.4,6.7-0.5,10l-17.9-0.3c3-17.1,5.6-34.1,8-51c2.4-17,4.4-34.1,6.1-51.3l21.6,0.4
		c1.8,17.1,4,34,6.6,50.9c2.6,16.8,5.6,33.8,9,50.9L544.4,416.4z M536,331.2c-1,8.8-1.9,17.6-2.7,26.3c-0.9,8.7-1.6,17.6-2.4,26.5
		c1,0.1,2,0.1,3.1,0.1s2.1,0,3.2,0h4.7c-0.8-8.9-1.7-17.7-2.7-26.5C538.2,348.9,537.1,340.1,536,331.2z"/>
	<path class="st1" d="M611.8,313c-3.8,12.1-7.4,24.4-10.7,36.7c-3.3,12.4-6.5,24.3-9.4,35.8v4.4c0,2.4,0,4.6,0.1,6.8
		s0.2,4.2,0.3,6.3c0.1,2.1,0.2,4.2,0.4,6.4c0.2,2.2,0.4,4.5,0.6,6.9h-17.2c0.4-3,0.7-5.7,1-8.3c0.3-2.6,0.5-5.1,0.7-7.6
		s0.3-5,0.4-7.7c0.1-2.6,0.1-5.5,0.1-8.6c-1.3-5.5-2.7-11.2-4.2-17.1c-1.5-5.9-3-11.9-4.5-17.9c-1.5-6-3.1-11.9-4.6-17.8
		c-1.5-5.9-3-11.6-4.5-17.1l17.9-1.5c0.2,3.9,0.5,8.1,1,12.4c0.5,4.4,1,8.8,1.6,13.4c0.6,4.5,1.3,9.1,2.1,13.8
		c0.8,4.6,1.6,9.2,2.4,13.6c0.9-4.5,1.8-9.2,2.7-13.9c0.9-4.7,1.7-9.4,2.5-13.9s1.5-9.1,2.1-13.4s1.2-8.4,1.7-12.3L611.8,313z"/>
	<path class="st1" d="M644,414.8c-1.9-0.1-3.8-0.2-5.7-0.2c-1.9,0-3.8-0.1-5.7-0.1c-3.2,0-6.3,0.1-9.5,0.2c-3.2,0.1-6.3,0.3-9.5,0.5
		l0.1-15.4c1.1,0.1,2.2,0.3,3.3,0.3c1.1,0.1,2.2,0.2,3.3,0.3c0.3-7.4,0.6-14.8,0.8-22.1c0.3-7.3,0.4-14.7,0.4-22
		c0-4.9-0.1-9.8-0.2-14.6s-0.3-9.6-0.4-14.5c-1.2,0-2.5,0-3.8,0.1c-1.3,0-2.6,0.1-3.9,0.2l0.1-15c3.7,0.2,7.4,0.4,11,0.5
		c3.7,0.1,7.4,0.2,11.1,0.2c1.3,0,2.7,0,4,0c1.3,0,2.7,0,4.1-0.1l-0.4,14.3c-1.1,0-2.2,0-3.3-0.1c-1.1,0-2.2-0.1-3.3-0.1
		c-0.7,8.6-1.1,17.1-1.4,25.6c-0.3,8.5-0.4,17-0.4,25.6c0,7.5,0.1,15,0.4,22.4c1.5,0,3.1,0,4.7-0.1c1.6,0,3.2-0.1,4.8-0.2L644,414.8
		z"/>
	<path class="st1" d="M703.2,312.4c-0.6,9.6-1.1,19.1-1.4,28.6c-0.3,9.4-0.5,18.9-0.5,28.4c0,7.4,0.1,14.7,0.3,21.9
		s0.6,14.5,1.1,21.8l-14.5-0.4c-1.9-6.2-3.8-12.4-5.6-18.5c-1.8-6.1-3.7-12.2-5.5-18.3c-1.8-6.1-3.7-12.1-5.6-18.1
		c-1.9-6-3.8-12-5.8-18c0.1,12.5,0.4,24.9,0.7,37.3s0.9,24.8,1.7,37.1l-16.6-0.1c0.6-15.2,0.9-30.6,0.9-46c0-9.5-0.1-18.8-0.3-28.1
		c-0.2-9.3-0.5-18.6-0.9-28l20.1,0.4c2.4,10.5,5,21.2,7.8,32c2.8,10.9,5.7,21.6,8.8,32.1c-0.3-10.8-0.8-21.6-1.5-32.4
		c-0.6-10.8-1.4-21.4-2.1-31.9L703.2,312.4z"/>
	<path class="st1" d="M753,364.4c-0.2,1.7-0.5,3.7-0.8,5.9c-0.3,2.2-0.5,4.6-0.7,7.1c-0.2,2.5-0.3,5.1-0.5,7.9s-0.2,5.5-0.2,8.3
		c0,0.6,0,1.5,0.1,2.7c0.1,1.2,0.2,2.5,0.3,3.9s0.2,2.9,0.3,4.4c0.1,1.5,0.2,2.9,0.4,4.2c0.1,1.3,0.2,2.4,0.3,3.4
		c0.1,1,0.2,1.6,0.3,1.9c-1.9,0.9-3.7,1.5-5.5,2c-1.8,0.5-3.4,0.8-4.9,1c-1.7,0.2-3.3,0.4-4.9,0.4c-1.7,0-3.6-0.3-5.6-0.9
		s-4-1.7-6-3.2c-2-1.5-3.9-3.6-5.8-6.2c-1.9-2.6-3.5-5.9-4.9-9.8c-1.4-3.9-2.6-8.7-3.4-14.2c-0.9-5.5-1.3-11.9-1.3-19.2
		c0-7.3,0.5-13.7,1.5-19.1c1-5.4,2.4-10.1,4-14c1.6-3.9,3.5-7.1,5.6-9.6s4.2-4.5,6.3-6c2.2-1.5,4.2-2.5,6.3-3c2-0.5,3.8-0.8,5.3-0.8
		c1.4,0,2.7,0.2,4.1,0.4c1.1,0.2,2.4,0.6,3.6,1.1c1.3,0.5,2.4,1.1,3.3,2l-1.4,14.4c-1.3-0.7-2.6-1.2-3.8-1.5
		c-1.2-0.3-2.3-0.5-3.3-0.5c-2,0-3.8,0.5-5.3,1.6c-1.6,1.1-2.9,2.5-4,4.3s-2.1,3.8-2.9,6c-0.8,2.2-1.4,4.5-1.9,6.9
		c-1.2,5.5-1.9,11.8-2,18.8c0.1,6.1,0.7,11.6,1.6,16.7c0.4,2.2,1,4.3,1.6,6.5c0.6,2.2,1.4,4.1,2.4,6s2,3.4,3.3,4.8
		c1.3,1.3,2.7,2.3,4.4,2.8c-0.1-6.2-0.4-12.4-0.9-18.5c-0.5-6.1-1.2-12.3-2.2-18.5L753,364.4z"/>
</g>
<g>
	<path class="st2" d="M201.9,381.3c0,3.8-0.4,7.1-1.2,9.9c-0.8,2.8-1.8,5.3-3.1,7.3s-2.7,3.7-4.3,5c-1.6,1.3-3.2,2.4-4.8,3.1
		s-3.2,1.3-4.7,1.6c-1.5,0.3-2.8,0.5-3.9,0.5c-0.6,0-1.4,0-2.4-0.1c-1-0.1-2.2-0.2-3.4-0.5c-1.3-0.2-2.7-0.6-4.3-1
		c-1.6-0.5-3.2-1.1-4.9-1.9l0.8-18.1c2.8,2.4,5.3,4,7.6,4.8c2.2,0.8,4.1,1.2,5.6,1.2c3,0,5.2-1.1,6.7-3.2c1.5-2.2,2.3-4.9,2.3-8.4
		c0-2.3-0.6-4.9-1.7-7.7s-3.1-5.9-6-9.2c-2-2.3-4-4.7-6.1-7.2c-2.1-2.5-4-5.1-5.7-8s-3.1-5.9-4.2-9.1s-1.6-6.8-1.6-10.5
		c0-4.8,0.7-8.9,2-12.4c1.3-3.5,3.1-6.4,5.3-8.7c2.2-2.3,4.7-4,7.6-5.1c2.8-1.1,5.8-1.7,8.9-1.7c2.7,0,5.5,0.4,8.4,1.1
		c2.8,0.7,5.7,1.9,8.6,3.4l-1.4,18.1c-1.2-1.6-2.5-2.8-3.9-3.8c-1.4-0.9-2.7-1.6-3.9-2.1c-1.3-0.5-2.4-0.8-3.5-0.9
		c-1.1-0.1-2-0.2-2.7-0.2c-1.4,0-2.7,0.3-3.8,1c-1.2,0.7-2.2,1.6-3,2.8s-1.5,2.6-2,4.2c-0.5,1.6-0.7,3.3-0.7,5.1
		c0,2.7,0.6,5.2,1.8,7.4c1.2,2.2,2.6,4.4,4.4,6.5c1.8,2.2,3.7,4.4,5.7,6.6s3.9,4.8,5.7,7.7c1.8,2.8,3.2,6.1,4.4,9.8
		C201.3,372.3,201.9,376.5,201.9,381.3z"/>
	<path class="st2" d="M245.5,318.8c-1.5-0.1-3.3-0.2-5.3-0.2c-2,0-4.1-0.1-6.3-0.1c-0.3,4.4-0.6,9-0.8,13.8
		c-0.2,4.8-0.4,9.6-0.5,14.5c-0.1,4.9-0.2,9.8-0.3,14.8c0,4.9-0.1,9.8-0.1,14.7c0,5.5,0,10.8,0.1,16c0.1,5.1,0.2,10.1,0.5,14.9
		h-15.3c0.4-8.1,0.8-16.8,1-26c0.2-9.2,0.4-18.4,0.4-27.7c0-6.1-0.1-12-0.2-17.8c-0.1-5.8-0.3-11.4-0.4-16.9c-2.3,0-4.5,0-6.5,0.1
		s-3.9,0.1-5.5,0.2l0.1-15c1.7,0.1,3.7,0.3,5.8,0.3c2.2,0.1,4.4,0.1,6.8,0.2c2.4,0,4.8,0.1,7.3,0.1s4.9,0,7.3,0s4.6,0,6.8,0
		c2.1,0,4,0,5.7-0.1L245.5,318.8z"/>
	<path class="st2" d="M279.2,407.3c-0.2-3.3-0.5-6.6-0.7-10c-0.2-3.3-0.5-6.7-0.8-10.1c-2.1-0.1-4.1-0.3-6.1-0.4
		c-2-0.1-3.9-0.2-6-0.2h-0.9c-0.2,3.4-0.5,6.8-0.6,10.2c-0.2,3.3-0.4,6.7-0.5,10l-17.9-0.3c3-17.1,5.6-34.1,8-51
		c2.4-17,4.4-34.1,6.1-51.3l21.6,0.4c1.8,17.1,4,34,6.6,50.9c2.6,16.8,5.6,33.8,9,50.9L279.2,407.3z M270.8,322.1
		c-1,8.8-1.9,17.6-2.7,26.3c-0.9,8.7-1.6,17.6-2.4,26.5c1,0.1,2,0.1,3.1,0.1s2.1,0,3.2,0h4.7c-0.8-8.9-1.7-17.7-2.7-26.5
		C272.9,339.8,271.9,331,270.8,322.1z"/>
	<path class="st2" d="M343.6,334.5c0,3.2-0.3,6.4-0.9,9.6s-1.6,6.3-2.9,9.3c-1.3,3-3.1,5.8-5.2,8.4c-2.1,2.6-4.7,4.9-7.7,6.9
		c2.7,6.8,5.6,13.4,8.9,19.7c3.2,6.3,6.8,12.3,10.8,18.2l-17.9,1L316.5,373c0.2,5.8,0.4,11.6,0.7,17.4c0.3,5.7,0.6,11.4,1.1,17
		h-17.5c0.8-10.9,1.3-21.7,1.7-32.6c0.4-10.9,0.5-21.8,0.5-32.8c0-6.4,0-12.7-0.1-19c-0.1-6.3-0.3-12.7-0.6-19.2
		c2.5-0.8,5.1-1.3,7.7-1.5s4.8-0.4,6.6-0.4c1.3,0,2.9,0.1,4.7,0.4s3.8,0.8,5.8,1.6c2,0.8,4,2,6,3.4s3.8,3.4,5.3,5.8
		c1.6,2.4,2.8,5.4,3.8,8.8C343.1,325.5,343.6,329.6,343.6,334.5z M316.3,361.3c1.7-0.5,3.1-1.2,4.4-2.1c1.3-0.9,2.4-2,3.3-3.2
		c1-1.2,1.8-2.5,2.4-3.8c0.6-1.3,1.2-2.7,1.6-4c1-3.1,1.5-6.5,1.6-10.2c0-0.1,0-0.7,0-1.8s-0.2-2.4-0.4-4.1s-0.6-3.4-1-5.3
		s-1.1-3.8-2-5.6c-0.9-1.8-2-3.4-3.3-4.8c-1.3-1.4-3-2.4-4.9-2.9c-0.6,7.5-1,15-1.3,22.4c-0.3,7.4-0.5,14.9-0.5,22.5V361.3z"/>
	<path class="st2" d="M386.7,318.8c-1.5-0.1-3.3-0.2-5.3-0.2c-2,0-4.1-0.1-6.3-0.1c-0.3,4.4-0.6,9-0.8,13.8
		c-0.2,4.8-0.4,9.6-0.5,14.5c-0.1,4.9-0.2,9.8-0.3,14.8s-0.1,9.8-0.1,14.7c0,5.5,0,10.8,0.1,16c0.1,5.1,0.2,10.1,0.5,14.9h-15.3
		c0.4-8.1,0.8-16.8,1-26c0.2-9.2,0.4-18.4,0.4-27.7c0-6.1-0.1-12-0.2-17.8c-0.1-5.8-0.3-11.4-0.4-16.9c-2.3,0-4.5,0-6.5,0.1
		s-3.9,0.1-5.5,0.2l0.1-15c1.7,0.1,3.7,0.3,5.8,0.3c2.2,0.1,4.4,0.1,6.8,0.2c2.4,0,4.8,0.1,7.3,0.1s4.9,0,7.3,0c2.4,0,4.6,0,6.8,0
		c2.1,0,4,0,5.7-0.1L386.7,318.8z"/>
	<path class="st2" d="M458.8,335.5c0,4.1-0.5,8.1-1.6,12.1s-2.7,7.6-4.9,10.9c-2.2,3.3-5,6.3-8.4,8.9c-3.4,2.6-7.4,4.5-12,5.8
		c0.1,5.8,0.2,11.5,0.4,17.2c0.2,5.7,0.4,11.3,0.6,16.9h-17.5c0.8-10.9,1.3-21.7,1.7-32.6c0.4-10.9,0.5-21.8,0.5-32.8
		c0-6.4,0-12.7-0.1-19c-0.1-6.3-0.3-12.7-0.6-19.2c2.5-0.8,5.1-1.3,7.7-1.5c2.6-0.2,4.8-0.4,6.6-0.4c1.3,0,2.9,0.1,4.8,0.4
		c1.9,0.3,3.8,0.8,5.9,1.7s4.1,2,6.1,3.5c2,1.5,3.9,3.5,5.5,6c1.6,2.5,2.9,5.6,3.9,9.1C458.3,326.3,458.8,330.6,458.8,335.5z
		 M431.7,361.1c1.6-0.6,3-1.3,4.1-2.3c1.2-1,2.2-2,3.1-3.2c0.9-1.2,1.6-2.4,2.2-3.8c0.6-1.3,1.1-2.7,1.5-3.9c0.9-3,1.4-6.3,1.6-9.8
		c0,0,0-0.6,0-1.6s-0.1-2.4-0.4-4s-0.6-3.4-1-5.3c-0.5-1.9-1.1-3.8-2-5.6s-1.9-3.4-3.2-4.8s-2.9-2.4-4.8-3
		c-0.4,7.4-0.6,14.8-0.8,22.3c-0.1,7.4-0.2,14.9-0.2,22.5V361.1z"/>
	<path class="st2" d="M502.4,406.9c-2.7-0.1-5.3-0.2-7.8-0.2c-2.5,0-5-0.1-7.5-0.1c-3.7,0-7.4,0.1-11,0.2c-3.6,0.1-7.4,0.3-11.3,0.5
		c0.4-8.9,0.8-17.7,1-26.4c0.3-8.7,0.4-17.5,0.4-26.4c0-8.5-0.1-17-0.3-25.3s-0.6-16.8-1.1-25.3c0.5,0,1,0.1,1.6,0.1
		c0.5,0,1.2,0.1,1.9,0.1s1.6,0,2.6,0c1.5,0,3.2,0,5-0.1c1.8-0.1,3.6-0.2,5.4-0.3c-0.6,6.9-1.1,14.1-1.3,21.7
		c-0.3,7.6-0.4,15.3-0.5,23.1c-0.1,7.8-0.1,15.5-0.1,23.2c0,7.7-0.1,15.2-0.3,22.3c3.9-0.1,7.7-0.3,11.4-0.6
		c3.7-0.3,7.6-0.7,11.8-1.4V406.9z"/>
	<path class="st2" d="M537.4,407.3c-0.2-3.3-0.5-6.6-0.7-10c-0.2-3.3-0.5-6.7-0.8-10.1c-2.1-0.1-4.1-0.3-6.1-0.4
		c-2-0.1-3.9-0.2-6-0.2H523c-0.2,3.4-0.5,6.8-0.6,10.2c-0.2,3.3-0.4,6.7-0.5,10l-17.9-0.3c3-17.1,5.6-34.1,8-51
		c2.4-17,4.4-34.1,6.1-51.3l21.6,0.4c1.8,17.1,4,34,6.6,50.9c2.6,16.8,5.6,33.8,9,50.9L537.4,407.3z M529,322.1
		c-1,8.8-1.9,17.6-2.7,26.3c-0.9,8.7-1.6,17.6-2.4,26.5c1,0.1,2,0.1,3.1,0.1c1.1,0,2.1,0,3.2,0h4.7c-0.8-8.9-1.7-17.7-2.7-26.5
		C531.2,339.8,530.1,331,529,322.1z"/>
	<path class="st2" d="M604.8,303.9c-3.8,12.1-7.4,24.4-10.7,36.7c-3.3,12.4-6.5,24.3-9.4,35.8v4.4c0,2.4,0,4.6,0.1,6.8
		c0.1,2.1,0.2,4.2,0.3,6.3c0.1,2.1,0.2,4.2,0.4,6.4c0.2,2.2,0.4,4.5,0.6,6.9h-17.2c0.4-3,0.7-5.7,1-8.3s0.5-5.1,0.7-7.6
		c0.2-2.5,0.3-5,0.4-7.7c0.1-2.6,0.1-5.5,0.1-8.6c-1.3-5.5-2.7-11.2-4.2-17.1c-1.5-5.9-3-11.9-4.5-17.9s-3.1-11.9-4.6-17.8
		c-1.5-5.9-3-11.6-4.5-17.1l17.9-1.5c0.2,3.9,0.5,8.1,1,12.4c0.5,4.4,1,8.8,1.6,13.4c0.6,4.5,1.3,9.1,2.1,13.8
		c0.8,4.6,1.6,9.2,2.4,13.6c0.9-4.5,1.8-9.2,2.7-13.9c0.9-4.7,1.7-9.4,2.5-13.9c0.8-4.6,1.5-9.1,2.1-13.4s1.2-8.4,1.7-12.3
		L604.8,303.9z"/>
	<path class="st2" d="M637,405.7c-1.9-0.1-3.8-0.2-5.7-0.2s-3.8-0.1-5.7-0.1c-3.2,0-6.3,0.1-9.5,0.2s-6.3,0.3-9.5,0.5l0.1-15.4
		c1.1,0.1,2.2,0.3,3.3,0.3c1.1,0.1,2.2,0.2,3.3,0.3c0.3-7.4,0.6-14.8,0.8-22.1s0.4-14.7,0.4-22c0-4.9-0.1-9.8-0.2-14.6
		c-0.1-4.8-0.3-9.6-0.4-14.5c-1.2,0-2.5,0-3.8,0.1s-2.6,0.1-3.9,0.2l0.1-15c3.7,0.2,7.4,0.4,11,0.5c3.7,0.1,7.4,0.2,11.1,0.2
		c1.3,0,2.7,0,4,0c1.3,0,2.7,0,4.1-0.1l-0.4,14.3c-1.1,0-2.2,0-3.3-0.1s-2.2-0.1-3.3-0.1c-0.7,8.6-1.1,17.1-1.4,25.6
		s-0.4,17-0.4,25.6c0,7.5,0.1,15,0.4,22.4c1.5,0,3.1,0,4.7-0.1c1.6,0,3.2-0.1,4.8-0.2L637,405.7z"/>
	<path class="st2" d="M696.2,303.3c-0.6,9.6-1.1,19.1-1.4,28.6s-0.5,18.9-0.5,28.4c0,7.4,0.1,14.7,0.3,21.9s0.6,14.5,1.1,21.8
		l-14.5-0.4c-1.9-6.2-3.8-12.4-5.6-18.5s-3.7-12.2-5.5-18.3c-1.8-6.1-3.7-12.1-5.6-18.1c-1.9-6-3.8-12-5.8-18
		c0.1,12.5,0.4,24.9,0.7,37.3c0.3,12.4,0.9,24.8,1.7,37.1l-16.6-0.1c0.6-15.2,0.9-30.6,0.9-46c0-9.5-0.1-18.8-0.3-28.1
		s-0.5-18.6-0.9-28l20.1,0.4c2.4,10.5,5,21.2,7.8,32s5.7,21.6,8.8,32.1c-0.3-10.8-0.8-21.6-1.5-32.4c-0.6-10.8-1.4-21.4-2.1-31.9
		L696.2,303.3z"/>
	<path class="st2" d="M746,355.3c-0.2,1.7-0.5,3.7-0.8,5.9c-0.3,2.2-0.5,4.6-0.7,7.1c-0.2,2.5-0.3,5.1-0.5,7.9
		c-0.1,2.7-0.2,5.5-0.2,8.3c0,0.6,0,1.5,0.1,2.7s0.2,2.5,0.3,3.9c0.1,1.4,0.2,2.9,0.3,4.4c0.1,1.5,0.2,2.9,0.4,4.2
		c0.1,1.3,0.2,2.4,0.3,3.4c0.1,1,0.2,1.6,0.3,1.9c-1.9,0.9-3.7,1.5-5.5,2c-1.8,0.5-3.4,0.8-4.9,1c-1.7,0.2-3.3,0.4-4.9,0.4
		c-1.7,0-3.6-0.3-5.6-0.9c-2-0.6-4-1.7-6-3.2c-2-1.5-3.9-3.6-5.8-6.2c-1.9-2.6-3.5-5.9-4.9-9.8c-1.4-3.9-2.6-8.7-3.4-14.2
		c-0.9-5.5-1.3-11.9-1.3-19.2s0.5-13.7,1.5-19.1c1-5.4,2.4-10.1,4-14c1.6-3.9,3.5-7.1,5.6-9.6c2.1-2.5,4.2-4.5,6.3-6
		c2.2-1.5,4.2-2.5,6.3-3c2-0.5,3.8-0.8,5.3-0.8c1.4,0,2.7,0.2,4.1,0.4c1.1,0.2,2.4,0.6,3.6,1.1c1.3,0.5,2.4,1.1,3.3,2l-1.4,14.4
		c-1.3-0.7-2.6-1.2-3.8-1.5c-1.2-0.3-2.3-0.5-3.3-0.5c-2,0-3.8,0.5-5.3,1.6c-1.6,1.1-2.9,2.5-4,4.3c-1.1,1.8-2.1,3.8-2.9,6
		c-0.8,2.2-1.4,4.5-1.9,6.9c-1.2,5.5-1.9,11.8-2,18.8c0.1,6.1,0.7,11.6,1.6,16.7c0.4,2.2,1,4.3,1.6,6.5c0.6,2.2,1.4,4.1,2.4,6
		c0.9,1.8,2,3.4,3.3,4.8c1.3,1.3,2.7,2.3,4.4,2.8c-0.1-6.2-0.4-12.4-0.9-18.5c-0.5-6.1-1.2-12.3-2.2-18.5L746,355.3z"/>
</g>
</svg>
